SplineFontDB: 3.0
FontName: TlwgTypist-Oblique
FullName: Tlwg Typist Oblique
FamilyName: Tlwg Typist
Weight: Regular
Copyright: Tlwg Typist, based on Poonlap Veerathanabutr's Tlwg Typewriter.\n\nCopyright (C) 2005-2014 Theppitak Karoonboonyanan.\n\nTlwg Typewriter, Free Thai Pseudo Monospace outline font.\n\nCopyright (C) 2003, 2004 Poonlap Veerathanabutr <poonlap@linux.thai.net>
UComments: "2003-11-20: Created. +AAoA-PfaEdit 1.0 (http://pfaedit.sf.net).+AAoACgAA-TLWG is Thai Linux Working Group http://linux.thai.net+AAoACgAA-This font was derived from TlwgMono.Most characters have fixed width except some vowels and tone marks.+AAoACgAA-2003-11-25: Fixed above vowel and tone mark level.+AAoA" 
Version: 002.009
ItalicAngle: -12
UnderlinePosition: -100
UnderlineWidth: 50
Ascent: 800
Descent: 200
LayerCount: 2
Layer: 0 0 "Back"  1
Layer: 1 0 "Fore"  0
FSType: 0
OS2Version: 4
OS2_WeightWidthSlopeOnly: 0
OS2_UseTypoMetrics: 0
CreationTime: 1153663934
ModificationTime: 1448268553
PfmFamily: 49
TTFWeight: 500
TTFWidth: 5
LineGap: 90
VLineGap: 0
Panose: 2 0 6 3 0 0 0 0 0 0
OS2TypoAscent: 0
OS2TypoAOffset: 1
OS2TypoDescent: 0
OS2TypoDOffset: 1
OS2TypoLinegap: 0
OS2WinAscent: 0
OS2WinAOffset: 1
OS2WinDescent: 0
OS2WinDOffset: 1
HheadAscent: 0
HheadAOffset: 1
HheadDescent: 0
HheadDOffset: 1
OS2Vendor: 'PfEd'
Lookup: 6 0 0 "'ccmp' Thai Tone Tilde Reordering"  {"'ccmp' Thai Tone Tilde Reordering"  } ['ccmp' ('DFLT' <'dflt' > 'latn' <'dflt' > 'thai' <'KUY ' 'MLY ' 'PAL ' 'SAN ' 'THA ' 'dflt' > ) ]
Lookup: 6 0 0 "'ccmp' Thai Tone Macron Reordering"  {"'ccmp' Thai Tone Macron Reordering"  } ['ccmp' ('DFLT' <'dflt' > 'latn' <'dflt' > 'thai' <'KUY ' 'MLY ' 'PAL ' 'SAN ' 'THA ' 'dflt' > ) ]
Lookup: 6 0 0 "'ccmp' Thai Below Vowel Macron Reordering"  {"'ccmp' Thai Below Vowel Macron Reordering"  } ['ccmp' ('DFLT' <'dflt' > 'latn' <'dflt' > 'thai' <'KUY ' 'MLY ' 'PAL ' 'SAN ' 'THA ' 'dflt' > ) ]

StartChar: micro
Encoding: 181 181 0
Width: 600
Flags: W
HStem: -16 40<204.923 354.898> 0 40<489 545.575> 377 40<127.332 205 421.334 520>
DStem2: 82.261 -200 123.261 -200 0.207912 0.978148<15.5436 229.314 309.539 589.91> 396.948 -200 437.986 -200 0.207912 0.978148<253.894 264.786 298.625 589.975>
LayerCount: 2
Fore
SplineSet
169 16 m 1xa0
 129 -173 l 2
 125 -191 116 -200 102 -200 c 0
 93 -200 86 -193 86 -185 c 0
 86 -183 87 -178 88 -173 c 2
 205 377 l 1
 150 377 l 2
 134 377 127 382 127 393 c 0
 127 408 139 417 159 417 c 2
 254 417 l 1
 190 115 l 2
 188 107 187 98 187 94 c 0
 187 50 214 24 260 24 c 0xa0
 329 24 395 53 464 115 c 1
 520 377 l 1
 445 377 l 2
 428 377 421 382 421 393 c 0
 421 408 433 417 454 417 c 2
 569 417 l 1
 489 40 l 1
 523 40 l 2x60
 539 40 546 36 546 24 c 0xa0
 546 10 534 0 514 0 c 2
 439 0 l 1x60
 452 59 l 1
 389 10 320 -16 254 -16 c 0
 214 -16 191 -7 169 16 c 1xa0
EndSplineSet
Validated: 1
EndChar

StartChar: uni0E31
Encoding: 3633 3633 1
Width: 0
Flags: W
HStem: 490 51<-169.151 -64.7614> 621 45<-162.761 -92.09>
VStem: -218 46<542.824 611.108> -90 46<556.653 619.251>
AnchorPoint: "AboveMark" -24 500 mark 0
AnchorPoint: "AboveMark" 19 700 basemark 0
AnchorPoint: "AboveBase" 6 500 mark 0
LayerCount: 2
Fore
SplineSet
-139 541 m 0
 -114 541 -90 564 -90 590 c 0
 -90 608 -103 621 -122 621 c 0
 -143 621 -172 602 -172 574 c 0
 -172 555 -158 541 -139 541 c 0
-218 561 m 0
 -218 618 -165 666 -112 666 c 16
 -68 666 -44 633 -44 598 c 0
 -44 585 -47 571 -55 556 c 1
 3 562 60 632 92 661 c 9
 126 613 l 17
 67 543 -30 490 -98 490 c 0
 -166 490 -218 508 -218 561 c 0
EndSplineSet
Validated: 1
EndChar

StartChar: uni0E34
Encoding: 3636 3636 2
Width: 0
Flags: W
HStem: 552 37<-296 -139.09> 626 40<-263.653 -110.725>
AnchorPoint: "AboveMark" -34 500 mark 0
AnchorPoint: "AboveMark" 9 700 basemark 0
AnchorPoint: "AboveBase" 6 500 mark 0
LayerCount: 2
Back
SplineSet
-47.6836 519 m 21
 -47.6836 519 -55.9395 626 -199.939 626 c 4
 -263.939 626 -328.756 561 -328.756 561 c 13
 -378.094 550 l 21
 -378.094 550 -291.438 666 -191.438 666 c 4
 6.5625 666 -2.72168 500 -2.72168 500 c 13
 -47.6836 519 l 21
-2.72168 500 m 21
 -2.72168 500 -94.0547 522.292 -147.069 536 c 4
 -243.756 561 -378.094 550 -378.094 550 c 13
 -338.441 586 l 21
 -338.441 586 -244.104 597 -138.567 576 c 4
 -84.5957 565.26 -34.9443 546 -34.9443 546 c 13
 -2.72168 500 l 21
EndSplineSet
Fore
SplineSet
-3 500 m 1
 -167 540 -185 552 -307 552 c 0
 -349 552 -378 550 -378 550 c 1
 -378 550 -291 666 -191 666 c 0
 -71 666 -3 601 -3 500 c 1
-296 589 m 1
 -238 589 -151 587 -58 554 c 1
 -74 586 -111 626 -200 626 c 0
 -235 626 -270 606 -296 589 c 1
EndSplineSet
Validated: 1
EndChar

StartChar: uni0E35
Encoding: 3637 3637 3
Width: 0
Flags: W
HStem: 552 37<-296 -139.339> 626 40<-263.653 -110.171>
AnchorPoint: "AboveMark" -37 500 mark 0
AnchorPoint: "AboveMark" 6 700 basemark 0
AnchorPoint: "AboveBase" 6 500 mark 0
LayerCount: 2
Back
SplineSet
-49.1426 578 m 29
 -30.6494 665 l 29
 26.3506 665 l 29
 -7.02148 508 l 29
 -49.1426 578 l 29
-2.72168 500 m 5
 -2.72168 500 -94.0459 522 -147.069 536 c 4
 -243.756 561 -378.094 550 -378.094 550 c 5
 -378.094 550 -291.438 666 -191.438 666 c 4
 6.5625 666 -2.72168 500 -2.72168 500 c 5
-295.805 589 m 5
 -257.592 590 -200.017 588 -138.567 576 c 4
 -107.843 570 -77.7559 561 -58.2441 554 c 5
 -74.4414 586 -110.939 626 -199.939 626 c 4
 -234.939 626 -270.19 606 -295.805 589 c 5
EndSplineSet
Fore
SplineSet
-296 589 m 1
 -238 589 -151 587 -58 554 c 1
 -74 586 -111 626 -200 626 c 0
 -235 626 -270 606 -296 589 c 1
-3 500 m 1
 -158 537 -185 552 -307 552 c 0
 -349 552 -378 550 -378 550 c 1
 -378 550 -291 666 -191 666 c 0
 -114 666 -70 641 -42 611 c 1
 -29 675 l 1
 28 675 l 1
 -4 523 l 1
 -2 509 -3 500 -3 500 c 1
EndSplineSet
Validated: 1
EndChar

StartChar: uni0E37
Encoding: 3639 3639 4
Width: 0
Flags: W
HStem: 552 37<-296 -139.339> 626 40<-263.653 -109.476>
AnchorPoint: "AboveMark" -71 500 mark 0
AnchorPoint: "AboveMark" -28 700 basemark 0
AnchorPoint: "AboveBase" 6 500 mark 0
LayerCount: 2
Back
SplineSet
-107.452 633 m 29
 -98.5244 675 l 29
 -48.5244 675 l 29
 -61.7031 613 l 29
 -107.452 633 l 29
-38.0791 583 m 29
 -18.5244 675 l 21
 31.4756 675 l 13
 -4.44629 506 l 29
 -38.0791 583 l 29
-2.72168 500 m 5
 -2.72168 500 -94.0459 522 -147.069 536 c 4
 -243.756 561 -378.094 550 -378.094 550 c 5
 -378.094 550 -291.438 666 -191.438 666 c 4
 6.5625 666 -2.72168 500 -2.72168 500 c 5
-295.805 589 m 5
 -257.592 590 -200.017 588 -138.567 576 c 4
 -107.843 570 -77.7559 561 -58.2441 554 c 5
 -74.4414 586 -110.939 626 -199.939 626 c 4
 -234.939 626 -270.19 606 -295.805 589 c 5
EndSplineSet
Fore
SplineSet
-296 589 m 1
 -238 589 -151 587 -58 554 c 1
 -74 586 -111 626 -200 626 c 0
 -235 626 -270 606 -296 589 c 1
-3 500 m 1
 -158 537 -185 552 -307 552 c 0
 -349 552 -378 550 -378 550 c 1
 -378 550 -291 666 -191 666 c 0
 -155 666 -126 661 -103 652 c 1
 -99 675 l 1
 -49 675 l 1
 -59 627 l 1
 -49 619 -41 610 -34 601 c 1
 -19 675 l 1
 31 675 l 1
 -3 513 l 1
 -3 500 l 1
EndSplineSet
Validated: 1
EndChar

StartChar: uni0E48
Encoding: 3656 3656 5
Width: 0
Flags: W
HStem: 700 170<16 37>
VStem: -20 93
DStem2: -20 700 37 700 0.207912 0.978148<11.851 173.77>
AnchorPoint: "AboveMark" 50 895 basemark 0
AnchorPoint: "AboveMark" 9 700 mark 0
LayerCount: 2
Fore
SplineSet
16 870 m 1
 73 870 l 1
 37 700 l 1
 -20 700 l 1
 16 870 l 1
EndSplineSet
Validated: 1
Substitution2: "Thai Mai Ek Macron Reordering" macronbelowcmb
Substitution2: "Thai Mai Ek Tilde Reordering" tildecomb
MultipleSubs2: "Thai Tone Nikhahit Attachment" uni0E4D uni0E48
Substitution2: "Thai Tone Low Variant" uni0E48.low
Substitution2: "Thai Sara U Mai Ek Reordering" uni0E38
Substitution2: "Thai Sara UU Mai Ek Reordering" uni0E39
Substitution2: "Thai Phinthu Mai Ek Reordering" uni0E3A
EndChar

StartChar: uni0E49
Encoding: 3657 3657 6
Width: 0
Flags: W
HStem: 847 28<-89.4227 -40.751>
VStem: -125 28<793.094 839.19> -39 28<798.775 844.789>
AnchorPoint: "AboveMark" 50 895 basemark 0
AnchorPoint: "AboveMark" 9 700 mark 0
LayerCount: 2
Back
SplineSet
-153.771 735 m 21
 -45.293 789 -26.1914 813 -31.6895 853 c 5
 -0.665039 839 11.7314 775 -161.21 700 c 13
 -153.771 735 l 21
-161.21 700 m 13
 -153.771 735 l 21
 -7.77051 735 75.2822 787 114.286 867 c 13
 184.286 867 l 21
 120.354 745 -1.20996 700 -161.21 700 c 13
-123.916 819 m 4
 -117.346 849.912 -86.9248 875 -56.0127 875 c 4
 -25.1006 875 -5.3457 849.912 -11.916 819 c 4
 -18.4863 788.088 -48.9072 763 -79.8193 763 c 4
 -110.731 763 -130.486 788.088 -123.916 819 c 4
-95.916 819 m 4
 -99.2012 803.544 -89.3242 791 -73.8682 791 c 4
 -58.4121 791 -43.2012 803.544 -39.916 819 c 4
 -36.6309 834.456 -46.5088 847 -61.9648 847 c 4
 -77.4209 847 -92.6309 834.456 -95.916 819 c 4
EndSplineSet
Fore
SplineSet
-62 847 m 0
 -77 847 -97 833 -97 814 c 0
 -97 801 -87 791 -74 791 c 0
 -59 791 -39 805 -39 824 c 0
 -39 837 -49 847 -62 847 c 0
-125 807 m 0
 -125 844 -89 875 -56 875 c 0
 -29 875 -11 856 -11 831 c 0
 -11 798 -42 765 -85 739 c 1
 19 754 82 801 114 867 c 1
 184 867 l 1
 120 745 -1 700 -161 700 c 1
 -154 735 l 1
 -130 746 -112 756 -96 766 c 1
 -114 772 -125 788 -125 807 c 0
EndSplineSet
Validated: 1
Substitution2: "Thai Mai Tho Macron Reordering" macronbelowcmb
Substitution2: "Thai Mai Tho Tilde Reordering" tildecomb
MultipleSubs2: "Thai Tone Nikhahit Attachment" uni0E4D uni0E49
Substitution2: "Thai Tone Low Variant" uni0E49.low
Substitution2: "Thai Sara U Mai Tho Reordering" uni0E38
Substitution2: "Thai Sara UU Mai Tho Reordering" uni0E39
Substitution2: "Thai Phinthu Mai Tho Reordering" uni0E3A
EndChar

StartChar: uni0E4A
Encoding: 3658 3658 7
Width: 0
Flags: W
HStem: 690 28<-215.744 -168.7> 695 35<-28 -4.25729> 774 28<-210.259 -162.197> 827 40<-203.615 -135.637 -86.859 -38.9058>
VStem: -271 53<718.253 791.672> -160 28<726.707 772.056> -37 51<747.803 825.976> 53 50<801.044 867>
AnchorPoint: "AboveMark" -136 700 mark 0
AnchorPoint: "AboveMark" -95 895 basemark 0
LayerCount: 2
Back
SplineSet
-185.423 699 m 0
 -215.375 671 -281.109 724 -269.206 780 c 0
 -257.94 833 -197.714 867 -154.714 867 c 0
 -114.714 867 -110.278 822 -110.278 822 c 1
 -110.278 822 -78.8418 866 -46.9258 866 c 0
 2.07422 866 21.4219 830 11.8564 785 c 0
 8.24316 768 -4.64551 745 -27.834 730 c 1
 4.16602 730 37.5576 793 53.2861 867 c 9
 103.286 867 l 17
 81.6055 765 26.7266 695 -87.2734 695 c 1
 -62.0225 715 -43.6699 759 -38.1436 785 c 0
 -35.167 799 -38.4287 826 -55.4287 826 c 0
 -77.4287 826 -95.8916 805 -118.781 782 c 1
 -134.892 805 -143.216 827 -163.216 827 c 0
 -186.216 827 -214.746 804.012 -219.206 780 c 0
 -240.013 668 -156.185 726.333 -185.423 699 c 0
-245.433 746 m 0
 -238.844 777 -208.529 802 -177.529 802 c 0
 -146.529 802 -126.844 777 -133.433 746 c 0
 -140.022 715 -170.336 690 -201.336 690 c 0
 -232.336 690 -252.022 715 -245.433 746 c 0
-217.433 746 m 0
 -220.621 731 -210.385 718 -195.385 718 c 0
 -180.385 718 -164.621 731 -161.433 746 c 0
 -158.244 761 -168.481 774 -183.481 774 c 0
 -198.481 774 -214.244 761 -217.433 746 c 0
EndSplineSet
Fore
SplineSet
-183 774 m 0xbf
 -200 774 -218 758 -218 740 c 0
 -218 728 -208 718 -195 718 c 0
 -176 718 -160 738 -160 751 c 0
 -160 764 -170 774 -183 774 c 0xbf
-132 757 m 0
 -132 727 -161 690 -201 690 c 0xbf
 -234 690 -271 726 -271 766 c 0
 -271 818 -210 867 -155 867 c 0
 -115 867 -110 822 -110 822 c 1
 -110 822 -79 866 -47 866 c 0
 -6 866 14 841 14 806 c 0
 14 760 -18 736 -28 730 c 1
 4 730 38 793 53 867 c 1
 103 867 l 1
 82 765 27 695 -87 695 c 1x7f
 -59 718 -37 775 -37 796 c 0
 -37 809 -42 826 -55 826 c 0
 -77 826 -96 805 -119 782 c 1
 -135 805 -143 827 -163 827 c 0
 -183 827 -208 809 -216 789 c 1
 -205 797 -192 802 -178 802 c 0
 -151 802 -132 783 -132 757 c 0
EndSplineSet
Validated: 1
Substitution2: "Thai Mai Tri Macron Reordering" macronbelowcmb
Substitution2: "Thai Mai Tri Tilde Reordering" tildecomb
MultipleSubs2: "Thai Tone Nikhahit Attachment" uni0E4D uni0E4A
Substitution2: "Thai Tone Low Variant" uni0E4A.low
Substitution2: "Thai Sara U Mai Tri Reordering" uni0E38
Substitution2: "Thai Sara UU Mai Tri Reordering" uni0E39
Substitution2: "Thai Phinthu Mai Tri Reordering" uni0E3A
EndChar

StartChar: uni0E4B
Encoding: 3659 3659 8
Width: 0
Flags: W
HStem: 755 53<-47 -9 60 98>
VStem: -59 169
DStem2: -20 700 37 700 0.207912 0.978148<11.851 56.0851 122.273 169.649>
AnchorPoint: "AboveMark" 50 895 basemark 0
AnchorPoint: "AboveMark" 9 700 mark 0
LayerCount: 2
Fore
SplineSet
-9 755 m 1
 -59 755 l 1
 -47 808 l 1
 3 808 l 1
 15 866 l 1
 72 866 l 1
 60 808 l 1
 110 808 l 1
 98 755 l 1
 48 755 l 1
 37 700 l 1
 -20 700 l 1
 -9 755 l 1
EndSplineSet
Validated: 1
Substitution2: "Thai Mai Chattawa Macron Reordering" macronbelowcmb
Substitution2: "Thai Mai Chattawa Tilde Reordering" tildecomb
MultipleSubs2: "Thai Tone Nikhahit Attachment" uni0E4D uni0E4B
Substitution2: "Thai Tone Low Variant" uni0E4B.low
Substitution2: "Thai Sara U Mai Chattawa Reordering" uni0E38
Substitution2: "Thai Sara UU Mai Chattawa Reordering" uni0E39
Substitution2: "Thai Phinthu Mai Chattawa Reordering" uni0E3A
EndChar

StartChar: uni0E4C
Encoding: 3660 3660 9
Width: 0
Flags: W
HStem: 690 28<-24.3529 22.8595>
VStem: -54 28<720.203 765.386> 32 28<727.025 772.132> 106 50<841.708 870>
AnchorPoint: "AboveMark" 36 895 basemark 0
AnchorPoint: "AboveMark" -5 700 mark 0
LayerCount: 2
Back
SplineSet
-44.0947 757 m 4
 -43.085 813.5 94.3398 815.5 105.924 870 c 13
 155.924 870 l 21
 142.108 805 49.0068 781 9.00684 781 c 4
 -14.9932 781 -44.4619 736.456 -44.0947 757 c 4
-53.4326 746 m 4
 -46.8438 777 -16.5293 802 14.4707 802 c 4
 45.4707 802 65.1562 777 58.5674 746 c 4
 51.9775 715 21.6641 690 -9.33594 690 c 4
 -40.3359 690 -60.0225 715 -53.4326 746 c 4
-25.4326 746 m 4
 -28.6211 731 -18.3848 718 -3.38477 718 c 4
 11.6152 718 27.3789 731 30.5674 746 c 4
 33.7559 761 23.5186 774 8.51855 774 c 4
 -6.48145 774 -22.2441 761 -25.4326 746 c 4
EndSplineSet
Fore
SplineSet
9 774 m 0
 -8 774 -26 758 -26 740 c 0
 -26 728 -16 718 -3 718 c 0
 16 718 32 738 32 751 c 0
 32 764 22 774 9 774 c 0
-54 734 m 0
 -54 819 94 811 106 870 c 1
 156 870 l 1
 146 822 93 797 50 786 c 1
 56 778 60 768 60 756 c 0
 60 726 29 690 -9 690 c 0
 -36 690 -54 709 -54 734 c 0
EndSplineSet
Validated: 1
Substitution2: "Thai Thanthakhat Macron Reordering" macronbelowcmb
MultipleSubs2: "Thai Tone Nikhahit Attachment" uni0E4D uni0E4C
Substitution2: "Thai Tone Low Variant" uni0E4C.low
Substitution2: "Thai Sara U Thanthakhat Reordering" uni0E38
Substitution2: "Thai Sara UU Thanthakhat Reordering" uni0E39
Substitution2: "Thai Phinthu Thanthakhat Reordering" uni0E3A
EndChar

StartChar: uni0E4D
Encoding: 3661 3661 10
Width: 0
Flags: W
HStem: 500 41<-112.368 -43.6997> 621 47<-105.394 -34.9616>
VStem: -160 45<543.127 610.873> -33 45<550.483 619.58>
AnchorPoint: "AboveMark" -48 700 basemark 0
AnchorPoint: "AboveBase" 6 500 mark 0
LayerCount: 2
Fore
SplineSet
-82 541 m 0
 -57 541 -33 564 -33 590 c 0
 -33 608 -46 621 -65 621 c 0
 -86 621 -115 602 -115 574 c 0
 -115 555 -101 541 -82 541 c 0
-160 565 m 0
 -160 623 -102 668 -55 668 c 0
 -15 668 12 637 12 599 c 0
 12 551 -34 500 -91 500 c 0
 -131 500 -160 527 -160 565 c 0
EndSplineSet
Validated: 1
Substitution2: "Thai Mark High Variant" uni0E4D.high
Substitution2: "Thai Sara U Nikhahit Reordering" uni0E38
Substitution2: "Thai Sara UU Nikhahit Reordering" uni0E39
Substitution2: "Thai Phinthu Nikhahit Reordering" uni0E3A
EndChar

StartChar: exclam
Encoding: 33 33 12
Width: 600
Flags: W
HStem: -15 100<262.49 351.417> 598 20G<416.5 440>
VStem: 246 122<1.98056 67.9058> 328 42<209.601 262.932> 380 83<518.255 609.315>
LayerCount: 2
Fore
SplineSet
458 563 m 2xd8
 370 237 l 2
 365 217 357 209 343 209 c 0
 335 209 328 216 328 224 c 0
 328 228 328 231 329 237 c 2
 380 563 l 2
 386 601 402 618 431 618 c 0
 449 618 463 606 463 589 c 0
 463 584 461 575 458 563 c 2xd8
311 85 m 2
 323 85 l 2
 350 85 368 69 368 45 c 0
 368 13 337 -15 302 -15 c 2
 290 -15 l 2
 264 -15 246 1 246 24 c 0xe8
 246 57 277 85 311 85 c 2
EndSplineSet
Validated: 1
EndChar

StartChar: quotedbl
Encoding: 34 34 13
Width: 600
Flags: W
HStem: 315 289<274 308.754 454 488.642>
VStem: 254 328
LayerCount: 2
Fore
SplineSet
274 604 m 1
 402 604 l 1
 315 351 l 2
 306 326 295 315 277 315 c 0
 263 315 254 325 254 341 c 2
 254 351 l 1
 274 604 l 1
454 604 m 1
 582 604 l 1
 495 351 l 2
 486 326 474 315 457 315 c 0
 443 315 434 325 434 341 c 2
 434 351 l 1
 454 604 l 1
EndSplineSet
Validated: 1
EndChar

StartChar: numbersign
Encoding: 35 35 14
Width: 600
Flags: W
HStem: 189 41<138.625 248 300 380 432 542.321> 356 41<182.365 292 343 424 475 586.329>
DStem2: 189 -34 230 -34 0.256096 0.966651<-12.8972 230.673 283.623 403.372 456.066 697.703> 321 -34 362 -34 0.256096 0.966651<-12.8972 230.673 283.623 403.372 456.066 697.703>
LayerCount: 2
Back
SplineSet
466 356 m 1
 430 230 l 1
 510 230 l 2
 527 230 534 225 534 214 c 0
 534 199 521 189 501 189 c 2
 419 189 l 1
 355 -36 l 2
 350 -54 342 -62 329 -62 c 0
 320 -62 313 -55 313 -46 c 0
 313 -43 314 -39 315 -33 c 2
 378 189 l 1
 287 189 l 1
 224 -36 l 2
 219 -54 210 -62 197 -62 c 0
 188 -62 181 -55 181 -46 c 0
 181 -43 181 -43 184 -33 c 2
 247 189 l 1
 160 189 l 2
 144 189 137 194 137 205 c 0
 137 221 149 230 169 230 c 2
 258 230 l 1
 294 356 l 1
 216 356 l 2
 199 356 192 361 192 372 c 0
 192 388 204 397 225 397 c 2
 305 397 l 1
 369 622 l 2
 374 639 382 647 395 647 c 0
 404 647 411 640 411 632 c 0
 411 629 410 623 409 619 c 2
 346 397 l 1
 437 397 l 1
 500 622 l 2
 505 639 514 647 526 647 c 0
 536 647 543 640 543 632 c 0
 543 629 543 629 540 619 c 2
 477 397 l 1
 566 397 l 2
 583 397 589 392 589 381 c 0
 589 366 577 356 557 356 c 2
 466 356 l 1
425 356 m 1
 334 356 l 1
 299 230 l 1
 390 230 l 1
 425 356 l 1
EndSplineSet
Fore
SplineSet
182 372 m 0
 182 382 186 397 213 397 c 2
 302 397 l 1
 362 619 l 2
 366 635 376 647 390 647 c 0
 400 647 404 641 404 631 c 0
 404 627 404 623 403 619 c 2
 343 397 l 1
 434 397 l 1
 494 619 l 2
 498 635 508 647 522 647 c 0
 532 647 536 641 536 631 c 0
 536 627 536 623 535 619 c 2
 475 397 l 1
 563 397 l 2
 579 397 587 391 587 382 c 0
 587 371 580 356 556 356 c 2
 465 356 l 1
 432 230 l 1
 519 230 l 2
 531 230 543 227 543 215 c 0
 543 205 537 189 511 189 c 2
 421 189 l 1
 362 -34 l 2
 358 -50 347 -62 333 -62 c 0
 323 -62 319 -56 319 -47 c 0
 319 -43 320 -39 321 -34 c 2
 380 189 l 1
 289 189 l 1
 230 -34 l 2
 226 -50 215 -62 201 -62 c 0
 191 -62 187 -56 187 -47 c 0
 187 -43 188 -39 189 -34 c 2
 248 189 l 1
 161 189 l 2
 149 189 138 192 138 204 c 0
 138 213 142 230 169 230 c 2
 258 230 l 1
 292 356 l 1
 206 356 l 2
 194 356 182 359 182 372 c 0
424 356 m 1
 333 356 l 1
 300 230 l 1
 390 230 l 1
 424 356 l 1
EndSplineSet
Validated: 1
EndChar

StartChar: dollar
Encoding: 36 36 15
Width: 600
Flags: W
HStem: 54 39<234.679 291 332 409.497> 449 21G<535 547.5> 538 117<379.246 442.773> 538 38<340.244 402 443 492.052> 543 20G<559.5 571.5>
VStem: 131 60<126.252 182.642> 225 42<374.225 475.028> 491 42<159.204 266.615> 525 42<449.541 508.308> 539 42<534 562.119>
DStem2: 260.261 -92 301.261 -92 0.207912 0.978148<17.7514 149.201 691.396 754.607>
LayerCount: 2
Fore
SplineSet
191 181 m 0xe7
 191 177 190 172 190 168 c 0
 190 127 248 93 319 93 c 0
 409 93 491 142 491 222 c 0
 491 280 429 290 363 304 c 0
 295 318 225 335 225 406 c 0
 225 500 310 565 402 576 c 1xd7
 413 628 l 2
 417 646 426 655 440 655 c 0xe7
 450 655 456 649 456 638 c 0
 456 635 455 632 454 628 c 2
 443 576 l 1xd7
 487 572 509 562 539 534 c 1
 544 553 553 563 566 563 c 0
 577 563 581 558 581 547 c 0xcf40
 581 544 581 540 580 536 c 2
 567 476 l 2
 563 458 554 449 541 449 c 0
 529 449 525 454 525 466 c 2
 525 474 l 2xce80
 525 509 475 538 416 538 c 0
 344 538 267 487 267 416 c 0
 267 367 320 355 379 343 c 0
 452 328 533 314 533 233 c 0
 533 129 443 66 332 54 c 1
 307 -65 l 2
 303 -83 294 -92 281 -92 c 0
 270 -92 265 -86 265 -75 c 0
 265 -72 265 -69 266 -65 c 2
 291 54 l 1
 245 56 197 79 177 108 c 1
 174 92 l 2
 170 74 161 65 148 65 c 0
 137 65 131 71 131 82 c 0
 131 85 132 88 133 92 c 2
 149 171 l 2
 153 189 162 198 176 198 c 0
 187 198 191 193 191 181 c 0xe7
EndSplineSet
Validated: 1
EndChar

StartChar: percent
Encoding: 37 37 16
Width: 600
Flags: W
HStem: -12 38<319.033 422.822> 198 38<347.748 452.406> 363 38<275.015 378.822> 573 38<303.685 408.258>
VStem: 216 39<420.317 524.526> 260 39<45.1191 149.341> 428 39<449.254 554.085> 472 39<74.3758 178.242>
DStem2: 565 380 163 222 0.957696 0.287781<-442.395 12.8023>
LayerCount: 2
Fore
SplineSet
412 236 m 0
 470 236 511 196 511 137 c 0
 511 61 437 -12 358 -12 c 0
 302 -12 260 30 260 86 c 0
 260 163 334 236 412 236 c 0
403 198 m 0
 350 198 299 147 299 94 c 0
 299 55 327 26 366 26 c 0
 421 26 472 76 472 131 c 0
 472 170 444 198 403 198 c 0
367 611 m 0
 426 611 467 570 467 512 c 0
 467 436 393 363 314 363 c 0
 257 363 216 405 216 462 c 0
 216 538 290 611 367 611 c 0
360 573 m 0
 306 573 255 522 255 469 c 0
 255 430 284 401 322 401 c 0
 377 401 428 451 428 505 c 0
 428 545 400 573 360 573 c 0
569 344 m 2
 163 222 l 2
 159 220 154 220 151 220 c 0
 143 220 137 227 137 235 c 0
 137 245 145 253 159 258 c 2
 565 380 l 2
 570 381 573 382 578 382 c 0
 585 382 591 375 591 367 c 0
 591 356 584 348 569 344 c 2
EndSplineSet
Validated: 1
EndChar

StartChar: ampersand
Encoding: 38 38 17
Width: 600
Flags: W
HStem: -16 41<204.132 314.193> 0 41<422 482.543> 208 41<473.164 526.575> 251 36<242.721 277> 452 21G<439.5 483> 478 41<334.607 442.159>
VStem: 132 42<55.2035 184.802> 249 41<307.483 434.098>
DStem2: 314 298 277 287 0.37473 -0.927134<-85.1994 -3.66654 31.6272 191.833 253.518 278.744>
LayerCount: 2
Fore
SplineSet
393 0 m 1x7f
 372 48 l 1
 334 5 293 -16 247 -16 c 0xbf
 181 -16 132 37 132 108 c 0
 132 189 192 263 277 287 c 1
 253 348 249 359 249 379 c 0
 249 449 324 519 399 519 c 0
 422 519 442 513 461 499 c 1
 468 503 482 510 490 510 c 0
 498 510 505 502 505 494 c 0
 505 483 499 476 483 468 c 2
 448 452 l 1
 431 470 414 478 391 478 c 0
 341 478 290 429 290 381 c 0
 290 364 297 339 314 298 c 2
 388 121 l 1
 417 159 440 200 461 249 c 1
 504 249 l 2
 521 249 527 245 527 233 c 0
 527 217 515 208 495 208 c 2
 483 208 l 1
 457 154 429 110 403 82 c 1
 422 41 l 1
 460 41 l 2x7f
 476 41 483 37 483 25 c 0xbf
 483 10 470 0 451 0 c 2
 393 0 l 1x7f
357 86 m 1
 287 251 l 1
 222 237 174 180 174 116 c 0
 174 65 209 25 255 25 c 0
 290 25 326 47 357 86 c 1
EndSplineSet
Validated: 1
EndChar

StartChar: quotesingle
Encoding: 39 39 18
Width: 600
Flags: W
HStem: 315 289<364 398.642>
VStem: 344 148
LayerCount: 2
Fore
SplineSet
364 604 m 1
 492 604 l 1
 405 351 l 2
 396 326 384 315 367 315 c 0
 353 315 344 325 344 341 c 2
 344 351 l 1
 364 604 l 1
EndSplineSet
Validated: 1
EndChar

StartChar: parenleft
Encoding: 40 40 19
Width: 600
Flags: W
HStem: 584 20G<559.5 571>
VStem: 335 59<-6.35356 276.841>
LayerCount: 2
Fore
SplineSet
394 124 m 0
 394 -1 437 -91 437 -101 c 0
 437 -112 424 -124 411 -124 c 0
 388 -124 335 26 335 138 c 0
 335 268 381 383 493 530 c 0
 536 586 553 604 566 604 c 0
 576 604 583 597 583 588 c 0
 583 581 583 581 572 567 c 0
 449 406 394 270 394 124 c 0
EndSplineSet
Validated: 1
EndChar

StartChar: parenright
Encoding: 41 41 20
Width: 600
Flags: W
HStem: 584 20G<289.5 298.5>
VStem: 313 59<205.37 487.988>
LayerCount: 2
Fore
SplineSet
313 356 m 0
 313 481 270 571 270 581 c 0
 270 592 283 604 296 604 c 0
 301 604 306 601 309 595 c 0
 345 533 372 422 372 342 c 0
 372 212 326 97 214 -50 c 0
 172 -106 154 -124 141 -124 c 0
 131 -124 124 -117 124 -108 c 0
 124 -103 125 -99 130 -93 c 0
 256 69 313 208 313 356 c 0
EndSplineSet
Validated: 1
EndChar

StartChar: asterisk
Encoding: 42 42 21
Width: 600
Flags: W
HStem: 442 41<211.555 227 536.167 585.406> 584 20G<421 432.5>
DStem2: 249 480 227 442 0.947145 -0.320807<-13.0998 122.273> 246 288 274 264 0.683941 0.729537<-23.9857 153.522> 332.039 250 373.039 250 0.207912 0.978148<200.724 366.074> 417 400 379 376 0.459854 -0.887994<3.83741 141.157> 413 438 417 400 0.957642 0.287962<0 164.416>
LayerCount: 2
Fore
SplineSet
372 438 m 1
 402 577 l 2
 406 595 414 604 428 604 c 0
 437 604 444 597 444 589 c 0
 438 534 421 490 413 438 c 1
 556 481 l 2
 561 483 568 484 571 484 c 0
 579 484 586 476 586 468 c 0
 586 455 578 448 560 442 c 2
 417 400 l 1
 475 288 l 2
 477 284 479 276 479 273 c 0
 479 262 466 250 454 250 c 0
 446 250 443 253 437 264 c 2
 379 376 l 1
 274 264 l 2
 264 254 258 250 251 250 c 0
 241 250 234 257 234 266 c 0
 234 274 236 276 246 288 c 2
 351 400 l 1
 227 442 l 2
 219 445 211 448 211 458 c 0
 211 471 223 483 236 483 c 0
 240 483 241 483 249 480 c 2
 372 438 l 1
EndSplineSet
Validated: 1
EndChar

StartChar: plus
Encoding: 43 43 22
Width: 600
Flags: W
HStem: 261 41<131.424 334 384 587.543>
DStem2: 286.812 32 326.261 32 0.207912 0.978148<4.13146 233.807 284.306 513.003>
LayerCount: 2
Fore
SplineSet
375 261 m 1
 332 59 l 2
 328 41 320 32 306 32 c 0
 297 32 290 39 290 47 c 1
 301 122 320 189 334 261 c 1
 154 261 l 2
 138 261 131 266 131 277 c 0
 131 292 143 302 162 302 c 2
 343 302 l 1
 386 503 l 2
 389 521 398 530 412 530 c 0
 421 530 428 523 428 514 c 1
 416 441 398 373 384 302 c 1
 564 302 l 2
 581 302 588 298 588 286 c 0
 588 271 575 261 556 261 c 2
 375 261 l 1
EndSplineSet
Validated: 1
EndChar

StartChar: comma
Encoding: 44 44 23
Width: 600
Flags: W
HStem: -145 290
VStem: 110 261
LayerCount: 2
Fore
SplineSet
238 145 m 1
 371 145 l 1
 170 -120 l 2
 155 -139 147 -145 133 -145 c 0
 120 -145 110 -135 110 -122 c 0
 110 -117 112 -111 115 -105 c 2
 238 145 l 1
EndSplineSet
Validated: 1
EndChar

StartChar: hyphen
Encoding: 45 45 24
Width: 600
Flags: W
HStem: 258 41<131.425 587.575>
LayerCount: 2
Fore
SplineSet
556 258 m 2
 154 258 l 2
 138 258 131 263 131 274 c 0
 131 290 143 299 163 299 c 2
 565 299 l 2
 581 299 588 294 588 283 c 0
 588 268 576 258 556 258 c 2
EndSplineSet
Validated: 1
EndChar

StartChar: period
Encoding: 46 46 25
Width: 600
Flags: W
HStem: -15 131<263.47 357.53>
VStem: 235 151<12.9633 88.0367>
LayerCount: 2
Fore
SplineSet
319 116 m 2
 330 116 l 2
 363 116 386 95 386 64 c 0
 386 22 346 -15 302 -15 c 2
 291 -15 l 2
 258 -15 235 6 235 37 c 0
 235 79 275 116 319 116 c 2
EndSplineSet
Validated: 1
EndChar

StartChar: slash
Encoding: 47 47 26
Width: 600
Flags: W
DStem2: 107 -46 141 -63 0.564514 0.825424<-20.0049 868.37>
LayerCount: 2
Fore
SplineSet
617 633 m 2
 141 -63 l 2
 131 -77 125 -81 115 -81 c 0
 107 -81 99 -74 99 -65 c 0
 99 -60 101 -55 107 -46 c 2
 583 650 l 2
 592 664 599 668 608 668 c 0
 618 668 625 661 625 652 c 0
 625 647 623 643 617 633 c 2
EndSplineSet
Validated: 1
EndChar

StartChar: zero
Encoding: 48 48 27
Width: 600
Flags: W
HStem: -15 41<246.94 373.137> 577 41<355.363 483.264>
VStem: 156 44<75.3828 304.203> 529 43<299.773 526.112>
DStem2: 109.46 -15 151.185 -15 0.207912 0.978148<205.912 507.665> 443.185 -15 483.46 -15 0.207912 0.978148<148.169 449.922>
LayerCount: 2
Fore
SplineSet
562 351 m 2
 540 251 l 2
 506 93 408 -15 297 -15 c 0
 208 -15 156 54 156 162 c 0
 156 189 159 219 166 251 c 2
 188 351 l 2
 222 510 320 618 431 618 c 0
 520 618 572 549 572 440 c 0
 572 413 569 383 562 351 c 2
228 346 m 2
 209 257 l 2
 203 230 200 202 200 175 c 0
 200 97 227 26 306 26 c 0
 412 26 479 154 501 257 c 2
 520 346 l 2
 526 373 529 401 529 428 c 0
 529 506 502 577 423 577 c 0
 317 577 250 449 228 346 c 2
EndSplineSet
Validated: 1
EndChar

StartChar: one
Encoding: 49 49 28
Width: 600
Flags: W
HStem: 0 41<117.425 289 330 491.541> 592 20G<383.069 446.762>
DStem2: 280.285 0 321.285 0 0.207912 0.978148<50.4403 569.302> 451 612 258 515 0.959288 0.28243<-227.641 -66.3759>
LayerCount: 2
Fore
SplineSet
451 612 m 1
 330 41 l 1
 469 41 l 2
 486 41 492 37 492 25 c 0
 492 10 480 0 461 0 c 2
 141 0 l 2
 124 0 117 5 117 16 c 0
 117 32 129 41 149 41 c 2
 289 41 l 1
 398 557 l 1
 258 515 l 2
 247 512 246 512 243 512 c 0
 235 512 228 520 228 528 c 0
 228 541 236 548 254 554 c 2
 451 612 l 1
EndSplineSet
Validated: 1
EndChar

StartChar: two
Encoding: 50 50 29
Width: 600
Flags: W
HStem: 0 41<132 449.062> 452 21G<215 224.5> 577 41<331.585 481.21>
VStem: 530 42<401.925 529.839>
DStem2: 97 60 133 44 0.7868 0.617207<18.4495 537.215>
LayerCount: 2
Fore
SplineSet
203 466 m 0
 203 496 288 618 424 618 c 0
 505 618 572 555 572 479 c 0
 572 427 552 388 496 334 c 0
 450 290 239 122 133 44 c 1
 132 41 l 1
 446 41 l 1
 450 64 452 104 480 104 c 0
 489 104 496 97 496 89 c 0
 496 86 496 85 494 77 c 2
 478 0 l 1
 84 0 l 1
 97 60 l 1
 380 282 l 2
 509 383 530 414 530 471 c 0
 530 529 478 577 414 577 c 0
 344 577 273 533 244 472 c 0
 237 458 230 452 219 452 c 0
 211 452 203 459 203 466 c 0
EndSplineSet
Validated: 1
EndChar

StartChar: three
Encoding: 51 51 30
Width: 600
Flags: W
HStem: -15 41<202.859 385.143> 312 41<332.323 429.252> 577 41<332.129 496.803>
VStem: 496 42<123.162 252.316> 537 42<420.43 540.263>
LayerCount: 2
Fore
SplineSet
237 525 m 0xe8
 237 549 327 618 433 618 c 0
 520 618 579 567 579 493 c 0xe8
 579 422 528 361 444 328 c 1
 505 301 538 254 538 197 c 0
 538 89 415 -15 287 -15 c 0
 200 -15 110 39 110 64 c 0
 110 76 122 88 133 88 c 0
 153 88 187 26 297 26 c 0
 400 26 496 107 496 193 c 0xf0
 496 260 428 312 345 312 c 0
 329 312 322 317 322 328 c 0
 322 335 326 342 332 347 c 0
 339 353 339 353 380 353 c 0
 466 353 537 413 537 485 c 0
 537 539 491 577 424 577 c 0
 367 577 315 558 277 523 c 0
 264 511 261 509 253 509 c 0
 244 509 237 515 237 525 c 0xe8
EndSplineSet
Validated: 1
EndChar

StartChar: four
Encoding: 52 52 31
Width: 600
Flags: W
HStem: 0 41<277.425 385 425 482.543> 169 41<189 412 461 517.576> 563 41<472 495>
DStem2: 151 216 189 210 0.624204 0.781262<19.0322 471.467> 376.285 0 416.285 0 0.207912 0.978148<50.2324 172.732 223.024 575.379>
LayerCount: 2
Fore
SplineSet
412 169 m 1
 141 169 l 1
 151 216 l 1
 461 604 l 1
 545 604 l 1
 461 210 l 1
 495 210 l 2
 512 210 518 206 518 194 c 0
 518 178 506 169 487 169 c 2
 453 169 l 1
 425 41 l 1
 459 41 l 2
 476 41 483 36 483 25 c 0
 483 10 470 0 451 0 c 2
 300 0 l 2
 284 0 277 5 277 16 c 0
 277 32 289 41 309 41 c 2
 385 41 l 1
 412 169 l 1
420 210 m 1
 495 563 l 1
 472 563 l 1
 189 210 l 1
 420 210 l 1
EndSplineSet
Validated: 1
EndChar

StartChar: five
Encoding: 53 53 32
Width: 600
Flags: W
HStem: -15 41<212.983 383.743> 354 41<295.285 463.429> 563 41<310 583.575>
VStem: 506 42<153.767 310.931>
DStem2: 146.605 -15 187.229 -15 0.207912 0.978148<396.935 599.341>
LayerCount: 2
Fore
SplineSet
392 354 m 0
 313 354 251 313 235 313 c 0
 227 313 221 319 220 328 c 0
 220 330 220 333 221 335 c 2
 278 604 l 1
 560 604 l 2
 577 604 584 599 584 588 c 0
 584 572 572 563 552 563 c 2
 310 563 l 1
 268 365 l 1
 324 386 363 395 405 395 c 0
 491 395 548 338 548 250 c 0
 548 108 429 -15 292 -15 c 0
 182 -15 113 60 113 78 c 0
 113 90 125 102 138 102 c 0
 143 102 147 100 153 93 c 0
 192 49 242 26 299 26 c 0
 434 26 506 154 506 242 c 0
 506 311 462 354 392 354 c 0
EndSplineSet
Validated: 1
EndChar

StartChar: six
Encoding: 54 54 33
Width: 600
Flags: W
HStem: -15 41<276.88 413.183> 323 41<341.898 470.565> 577 41<457.976 616.803>
VStem: 185 38<91.7105 211.763> 510 42<126.527 281.817>
LayerCount: 2
Fore
SplineSet
547 577 m 0
 445 577 278 484 236 285 c 0
 234 276 231 261 228 242 c 1
 286 324 349 364 420 364 c 0
 498 364 552 302 552 220 c 0
 552 87 438 -15 334 -15 c 0
 240 -15 185 62 185 182 c 0
 185 213 188 246 196 282 c 0
 246 515 427 618 559 618 c 0
 600 618 631 604 631 586 c 0
 631 573 619 563 608 563 c 0
 596 563 593 577 547 577 c 0
223 188 m 1
 228 84 262 26 344 26 c 0
 424 26 510 106 510 212 c 0
 510 275 471 323 411 323 c 0
 316 323 237 206 223 188 c 1
EndSplineSet
Validated: 1
EndChar

StartChar: seven
Encoding: 55 55 34
Width: 600
Flags: W
HStem: -1 21G<289.5 299.5> 563 41<261.516 557>
DStem2: 436.944 -1 477.219 -1 0.207912 0.978148<514.965 576.636>
LayerCount: 2
Fore
SplineSet
553 545 m 1
 557 563 l 1
 265 563 l 1
 260 540 259 500 231 500 c 0
 223 500 215 507 215 515 c 0
 215 518 216 523 217 528 c 2
 233 604 l 1
 606 604 l 1
 592 539 l 1
 319 20 l 2
 311 4 305 -1 294 -1 c 0
 285 -1 278 6 278 14 c 0
 278 19 280 24 284 32 c 2
 553 545 l 1
EndSplineSet
Validated: 1
EndChar

StartChar: eight
Encoding: 56 56 35
Width: 600
Flags: W
HStem: -15 41<234.23 385.971> 293 40<302.168 435.956> 577 41<347.021 491.987>
VStem: 143 42<71.5137 204.807> 216 41<372.491 492.388> 482 42<115.093 249.709> 534 42<407.878 537.093>
LayerCount: 2
Fore
SplineSet
441 313 m 1
 496 285 524 244 524 192 c 0
 524 87 412 -15 296 -15 c 0
 207 -15 143 45 143 128 c 0
 143 206 197 274 291 313 c 1
 237 344 216 376 216 424 c 0
 216 522 323 618 432 618 c 0
 515 618 576 561 576 483 c 0
 576 402 512 345 441 313 c 1
422 577 m 0
 338 577 257 504 257 429 c 0
 257 374 305 333 370 333 c 0
 457 333 534 399 534 473 c 0
 534 535 489 577 422 577 c 0
361 293 m 0
 268 293 185 219 185 135 c 0
 185 71 235 26 305 26 c 0
 396 26 482 103 482 184 c 0
 482 250 434 293 361 293 c 0
EndSplineSet
Validated: 1
EndChar

StartChar: nine
Encoding: 57 57 36
Width: 600
Flags: W
HStem: -15 41<157.697 319.927> 239 41<303.766 432.524> 577 41<361.211 499.323>
VStem: 222 42<322.215 476.473> 551 39<391.237 511.289>
LayerCount: 2
Fore
SplineSet
228 26 m 0
 330 26 497 119 539 318 c 0
 541 327 543 342 546 361 c 1
 488 279 425 239 354 239 c 0
 276 239 222 301 222 383 c 0
 222 516 336 618 440 618 c 0
 534 618 590 541 590 421 c 0
 590 390 586 357 578 321 c 0
 528 88 347 -15 215 -15 c 0
 174 -15 143 -1 143 17 c 0
 143 30 156 40 167 40 c 0
 179 40 182 26 228 26 c 0
551 415 m 1
 546 519 513 577 431 577 c 0
 351 577 264 497 264 391 c 0
 264 328 304 280 364 280 c 0
 459 280 537 397 551 415 c 1
EndSplineSet
Validated: 1
EndChar

StartChar: colon
Encoding: 58 58 37
Width: 600
Flags: W
HStem: -15 131<263.47 357.53> 285 132<327.47 421.53>
VStem: 235 151<13.4615 87.9098> 299 151<313.533 388.467>
LayerCount: 2
Fore
SplineSet
319 116 m 2xe0
 330 116 l 2
 363 116 386 95 386 65 c 0
 386 22 346 -15 302 -15 c 2
 291 -15 l 2
 258 -15 235 6 235 37 c 0
 235 79 275 116 319 116 c 2xe0
383 417 m 2
 394 417 l 2
 427 417 450 396 450 365 c 0
 450 323 410 285 366 285 c 2
 355 285 l 2
 322 285 299 306 299 337 c 0xd0
 299 379 339 417 383 417 c 2
EndSplineSet
Validated: 1
EndChar

StartChar: semicolon
Encoding: 59 59 38
Width: 600
Flags: W
HStem: 285 132<303.47 397.53>
VStem: 275 151<313.533 388.467>
LayerCount: 2
Fore
SplineSet
242 145 m 1
 375 145 l 1
 174 -120 l 2
 159 -139 151 -145 138 -145 c 0
 124 -145 114 -135 114 -122 c 0
 114 -117 116 -111 119 -105 c 2
 242 145 l 1
359 417 m 2
 370 417 l 2
 403 417 426 396 426 365 c 0
 426 323 386 285 342 285 c 2
 331 285 l 2
 298 285 275 306 275 337 c 0
 275 379 315 417 359 417 c 2
EndSplineSet
Validated: 1
EndChar

StartChar: less
Encoding: 60 60 39
Width: 600
Flags: W
DStem2: 131 281 213 281 0.895575 0.444911<73.4371 535.233> 213 281 131 281 0.84527 -0.53434<0 378.408>
LayerCount: 2
Fore
SplineSet
535 70 m 0
 535 61 523 44 511 44 c 0
 508 44 503 46 498 49 c 2
 131 281 l 1
 598 513 l 2
 604 516 609 518 611 518 c 0
 623 518 627 506 627 499 c 0
 627 491 621 484 610 478 c 2
 213 281 l 1
 526 84 l 2
 533 79 535 76 535 70 c 0
EndSplineSet
Validated: 1
EndChar

StartChar: equal
Encoding: 61 61 40
Width: 600
Flags: W
HStem: 190 41<95.4254 593.575> 334 41<126.425 624.575>
LayerCount: 2
Fore
SplineSet
593 334 m 2
 149 334 l 2
 133 334 126 339 126 350 c 0
 126 366 138 375 158 375 c 2
 602 375 l 2
 618 375 625 370 625 359 c 0
 625 344 613 334 593 334 c 2
562 190 m 2
 118 190 l 2
 102 190 95 195 95 206 c 0
 95 222 107 231 127 231 c 2
 571 231 l 2
 587 231 594 226 594 215 c 0
 594 200 582 190 562 190 c 2
EndSplineSet
Validated: 1
EndChar

StartChar: greater
Encoding: 62 62 41
Width: 600
Flags: W
DStem2: 588 281 193 478 0.84527 -0.53434<-447.72 -69.3121> 506 281 121 49 0.895575 0.444911<-461.796 0>
LayerCount: 2
Fore
SplineSet
184 492 m 0
 184 504 198 518 208 518 c 0
 211 518 216 516 221 513 c 2
 588 281 l 1
 121 49 l 2
 115 46 110 44 108 44 c 0
 95 44 92 57 92 63 c 0
 92 71 98 78 109 84 c 2
 506 281 l 1
 193 478 l 2
 186 483 184 486 184 492 c 0
EndSplineSet
Validated: 1
EndChar

StartChar: question
Encoding: 63 63 42
Width: 600
Flags: W
HStem: -15 100<251.367 363.982> 536 41<319.432 497.516>
VStem: 236 144<1.625 68.75> 538 43<379.413 500.131>
DStem2: 130.823 -15 171.823 -15 0.207912 0.978148<476.782 550.158> 278.025 -15 319.025 -15 0.207912 0.978148<216.085 286.84>
LayerCount: 2
Fore
SplineSet
246 529 m 1
 291 543 343 577 432 577 c 0
 524 577 581 530 581 457 c 0
 581 351 501 296 375 247 c 1
 366 206 l 2
 362 188 353 179 340 179 c 0
 329 179 324 185 324 196 c 0
 324 199 324 202 325 206 c 2
 339 274 l 1
 470 325 538 365 538 445 c 0
 538 499 492 536 418 536 c 0
 373 536 340 528 282 502 c 1
 273 461 l 2
 269 443 260 434 247 434 c 0
 236 434 231 440 231 451 c 0
 231 454 231 457 232 461 c 2
 246 529 l 1
236 24 m 0
 236 62 269 85 305 85 c 2
 332 85 l 2
 362 85 380 70 380 46 c 0
 380 9 347 -15 311 -15 c 2
 284 -15 l 2
 254 -15 236 0 236 24 c 0
EndSplineSet
Validated: 1
EndChar

StartChar: at
Encoding: 64 64 43
Width: 600
Flags: W
HStem: -62 41<231.4 394.025> 147 41<359.64 459> 376 40<413.438 498> 583 41<355.224 487.854>
VStem: 139 42<33.2162 257.289> 297 42<207.349 312.64> 519 42<418.421 553.079>
DStem2: 91.7353 -62 132.735 -62 0.207912 0.978148<208.307 555.885> 405.011 -62 445.286 -62 0.207912 0.978148<252.162 447.762 483.871 562.356>
LayerCount: 2
Fore
SplineSet
301 -21 m 0
 393 -21 417 20 434 20 c 0
 443 20 450 13 450 5 c 0
 450 -27 364 -62 286 -62 c 0
 185 -62 139 20 139 121 c 0
 139 146 142 172 147 198 c 2
 182 361 l 2
 214 513 320 624 433 624 c 0
 510 624 561 574 561 499 c 0
 561 487 560 475 557 463 c 2
 498 186 l 1
 509 184 514 180 514 170 c 0
 514 154 502 145 482 145 c 2
 449 145 l 1
 450 150 l 1
 430 148 419 147 408 147 c 0
 343 147 297 187 297 245 c 0
 297 316 364 416 506 416 c 1
 511 440 519 462 519 490 c 0
 519 547 483 583 425 583 c 0
 334 583 250 490 222 358 c 2
 188 198 l 2
 184 176 181 152 181 131 c 0
 181 43 213 -21 301 -21 c 0
459 192 m 1
 498 376 l 1
 410 376 339 322 339 255 c 0
 339 214 371 188 420 188 c 0
 432 188 446 189 459 192 c 1
EndSplineSet
Validated: 1
EndChar

StartChar: A
Encoding: 65 65 44
Width: 600
Flags: W
HStem: 0 41<13.3131 76 117 218.541 385.425 493 536 595.542> 188 41<227 462> 522 41<214.425 357 397 412>
DStem2: 76 41 117 41 0.504429 0.863453<20.6816 190.99 238.498 557.066> 449 563 412 522 0.164399 -0.986394<34.3594 331.593 373.021 522.131>
LayerCount: 2
Fore
SplineSet
468 188 m 1
 203 188 l 1
 117 41 l 1
 196 41 l 2
 213 41 219 37 219 25 c 0
 219 10 206 0 187 0 c 2
 36 0 l 2
 20 0 13 5 13 17 c 0
 13 32 25 41 45 41 c 2
 76 41 l 1
 357 522 l 1
 237 522 l 2
 221 522 214 527 214 538 c 0
 214 554 226 563 246 563 c 2
 449 563 l 1
 536 41 l 1
 573 41 l 2
 590 41 596 37 596 25 c 0
 596 10 584 0 564 0 c 2
 408 0 l 2
 392 0 385 5 385 16 c 0
 385 32 397 41 417 41 c 2
 493 41 l 1
 468 188 l 1
462 229 m 1
 412 522 l 1
 397 522 l 1
 227 229 l 1
 462 229 l 1
EndSplineSet
Validated: 1
EndChar

StartChar: B
Encoding: 66 66 45
Width: 600
Flags: W
HStem: 0 41<47.3131 133 174 459.782> 272 41<232 471.12> 522 41<158.313 235 276 512.378>
VStem: 535 42<112.972 226.681> 549 42<378.119 487.816>
DStem2: 124.285 0 165.285 0 0.207912 0.978148<50.4403 286.58 328.555 533.612>
LayerCount: 2
Fore
SplineSet
133 41 m 1xf0
 235 522 l 1
 181 522 l 2
 165 522 158 527 158 539 c 0
 158 554 170 563 190 563 c 2
 448 563 l 2
 533 563 591 515 591 445 c 0xe8
 591 383 554 335 477 298 c 1
 544 273 577 234 577 181 c 0
 577 88 479 0 377 0 c 2
 70 0 l 2
 54 0 47 5 47 17 c 0
 47 32 59 41 79 41 c 2
 133 41 l 1xf0
549 437 m 0
 549 460 531 522 440 522 c 2
 276 522 l 1
 232 313 l 1
 379 313 l 2
 474 313 549 368 549 437 c 0
174 41 m 1
 382 41 l 2
 463 41 535 104 535 175 c 0xf0
 535 214 506 272 372 272 c 2
 223 272 l 1
 174 41 l 1
EndSplineSet
Validated: 1
EndChar

StartChar: C
Encoding: 67 67 46
Width: 600
Flags: W
HStem: -16 41<244.86 421.037> 535 41<332.712 506.564> 543 20G<612 624>
VStem: 109 43<117.404 267.261>
DStem2: 59.1604 -16 100.885 -16 0.207912 0.978148<234.205 446.082>
LayerCount: 2
Fore
SplineSet
557 110 m 0xd0
 557 87 448 -16 319 -16 c 0
 199 -16 109 79 109 194 c 0
 109 210 111 226 114 242 c 2
 132 325 l 2
 153 424 261 576 427 576 c 0xd0
 493 576 549 552 586 507 c 1
 592 536 l 2
 596 554 605 563 619 563 c 0xb0
 629 563 634 557 634 546 c 0
 634 543 634 540 633 536 c 2
 609 424 l 2
 605 406 596 397 582 397 c 0
 572 397 567 403 567 414 c 0
 567 420 568 426 568 432 c 0
 568 488 503 535 419 535 c 0
 308 535 197 438 172 319 c 2
 157 248 l 2
 154 233 152 218 152 203 c 0
 152 103 224 25 327 25 c 0
 396 25 452 51 520 115 c 0
 529 123 534 125 541 125 c 0
 551 125 557 119 557 110 c 0xd0
EndSplineSet
Validated: 1
EndChar

StartChar: D
Encoding: 68 68 47
Width: 600
Flags: W
HStem: 0 41<47.4254 113 154 378.872> 522 41<158.425 215 256 475.976>
VStem: 551 41<292.45 442.924>
DStem2: 104.285 0 145.285 0 0.207912 0.978148<50.4403 533.612> 478.924 0 520.011 0 0.207912 0.978148<158.986 363.678>
LayerCount: 2
Fore
SplineSet
113 41 m 1
 215 522 l 1
 181 522 l 2
 165 522 158 527 158 538 c 0
 158 554 170 563 190 563 c 2
 410 563 l 2
 519 563 592 484 592 368 c 0
 592 348 590 329 586 310 c 2
 574 254 l 2
 544 112 419 0 290 0 c 2
 70 0 l 2
 54 0 47 5 47 16 c 0
 47 32 59 41 79 41 c 2
 113 41 l 1
154 41 m 1
 303 41 l 2
 399 41 508 139 531 245 c 2
 547 318 l 2
 550 332 551 346 551 357 c 0
 551 451 497 522 399 522 c 2
 256 522 l 1
 154 41 l 1
EndSplineSet
Validated: 1
EndChar

StartChar: E
Encoding: 69 69 48
Width: 600
Flags: W
HStem: 0 41<47.3131 133 174 488> 272 41<232 368> 522 41<158.313 235 276 569>
DStem2: 124.285 0 165.285 0 0.207912 0.978148<50.4403 286.58 328.555 533.612> 310.47 0 350.905 0 0.207912 0.978148<220.947 278.017 319.993 386.464> 458.045 0 499.331 0 0.207912 0.978148<410.442 533.662> 479.285 0 520 0 0.207912 0.978148<41.916 184.053>
LayerCount: 2
Fore
SplineSet
223 272 m 1
 174 41 l 1
 488 41 l 1
 513 160 l 2
 517 178 526 187 540 187 c 0
 549 187 556 180 556 172 c 0
 556 169 555 165 554 160 c 2
 520 0 l 1
 70 0 l 2
 54 0 47 5 47 17 c 0
 47 32 59 41 79 41 c 2
 133 41 l 1
 235 522 l 1
 181 522 l 2
 165 522 158 527 158 539 c 0
 158 554 170 563 190 563 c 2
 619 563 l 1
 589 424 l 2
 586 406 577 397 563 397 c 0
 554 397 547 404 547 412 c 0
 550 453 563 484 569 522 c 1
 276 522 l 1
 232 313 l 1
 377 313 l 1
 386 358 l 2
 390 376 399 385 412 385 c 0
 422 385 429 378 429 370 c 0
 429 368 428 362 427 358 c 2
 399 227 l 2
 396 209 387 200 373 200 c 0
 364 200 357 207 357 215 c 0
 358 236 365 253 368 272 c 1
 223 272 l 1
EndSplineSet
Validated: 1
EndChar

StartChar: F
Encoding: 70 70 49
Width: 600
Flags: W
HStem: 0 41<47.4254 133 174 335.543> 272 41<232 368> 522 41<158.425 235 276 590>
DStem2: 124.285 0 165.285 0 0.207912 0.978148<50.4403 286.58 328.555 533.612> 310.47 0 350.905 0 0.207912 0.978148<220.947 278.017 319.993 386.464> 479.045 0 520.331 0 0.207912 0.978148<410.464 533.662>
LayerCount: 2
Fore
SplineSet
223 272 m 1
 174 41 l 1
 312 41 l 2
 329 41 336 36 336 25 c 0
 336 10 323 0 304 0 c 2
 70 0 l 2
 54 0 47 5 47 16 c 0
 47 32 59 41 79 41 c 2
 133 41 l 1
 235 522 l 1
 181 522 l 2
 165 522 158 527 158 538 c 0
 158 554 170 563 190 563 c 2
 640 563 l 1
 610 424 l 2
 607 406 598 397 584 397 c 0
 576 397 568 404 568 412 c 0
 571 453 584 484 590 522 c 1
 276 522 l 1
 232 313 l 1
 377 313 l 1
 386 358 l 2
 390 376 399 385 412 385 c 0
 422 385 429 379 429 370 c 0
 429 368 428 362 427 358 c 2
 399 227 l 2
 396 209 387 200 373 200 c 0
 364 200 357 207 357 215 c 0
 358 236 365 253 368 272 c 1
 223 272 l 1
EndSplineSet
Validated: 1
EndChar

StartChar: G
Encoding: 71 71 50
Width: 600
Flags: W
HStem: -16 41<237.072 450.776> 209 41<361.596 523 564 610.525> 535 41<335.075 526.056> 543 20G<613 625.5>
VStem: 108 41<105.626 306.016> 573 42<418.534 450.764> 575 60<436.088 553.5>
DStem2: 59.7353 -16 100.735 -16 0.207912 0.978148<217.95 442.623> 476.058 -16 516.947 -16 0.207912 0.978148<63.3383 229.843 549.933 584.583>
LayerCount: 2
Fore
SplineSet
573 434 m 0xdc
 573 439 575 446 575 451 c 0
 575 498 514 535 429 535 c 0
 281 535 189 401 171 317 c 2
 156 244 l 2
 152 224 149 205 149 187 c 0
 149 85 218 25 341 25 c 0
 393 25 430 33 492 59 c 1
 523 209 l 1
 384 209 l 2
 369 209 361 214 361 224 c 0
 361 241 374 250 393 250 c 2
 587 250 l 2
 603 250 611 245 611 235 c 0
 611 217 598 209 578 209 c 2
 564 209 l 1
 528 36 l 1
 462 2 392 -16 330 -16 c 0
 190 -16 108 59 108 179 c 0
 108 200 110 221 115 244 c 2
 131 318 l 2
 157 440 273 576 435 576 c 0xea
 501 576 553 558 590 522 c 1
 593 536 l 2
 597 554 606 563 620 563 c 0
 631 563 635 559 635 548 c 0xda
 635 545 635 541 634 536 c 2
 615 445 l 2
 611 427 602 418 589 418 c 0
 578 418 573 423 573 434 c 0xdc
EndSplineSet
Validated: 1
EndChar

StartChar: H
Encoding: 72 72 51
Width: 600
Flags: W
HStem: 0 41<57.4254 135 176 252.541 360.425 446 487 555.538> 272 41<234 495> 522 41<189.425 237 278 363.541 471.425 548 589 645.542>
DStem2: 126.285 0 167.285 0 0.207912 0.978148<50.4403 286.58 328.555 533.612> 437.285 0 478.285 0 0.207912 0.978148<50.4403 278.056 320.031 533.612>
LayerCount: 2
Fore
SplineSet
495 272 m 1
 225 272 l 1
 176 41 l 1
 230 41 l 2
 247 41 253 37 253 25 c 0
 253 10 240 0 221 0 c 2
 81 0 l 2
 64 0 57 5 57 16 c 0
 57 32 69 41 89 41 c 2
 135 41 l 1
 237 522 l 1
 212 522 l 2
 196 522 189 527 189 538 c 0
 189 554 201 563 221 563 c 2
 341 563 l 2
 358 563 364 559 364 547 c 0
 364 532 352 522 332 522 c 2
 278 522 l 1
 234 313 l 1
 504 313 l 1
 548 522 l 1
 494 522 l 2
 478 522 471 527 471 538 c 0
 471 554 483 563 503 563 c 2
 623 563 l 2
 640 563 646 559 646 547 c 0
 646 532 634 522 614 522 c 2
 589 522 l 1
 487 41 l 1
 532 41 l 2
 550 41 556 37 556 25 c 0
 556 10 543 0 524 0 c 2
 383 0 l 2
 367 0 360 5 360 16 c 0
 360 32 372 41 392 41 c 2
 446 41 l 1
 495 272 l 1
EndSplineSet
Validated: 1
EndChar

StartChar: I
Encoding: 73 73 52
Width: 600
Flags: W
HStem: 0 41<117.424 288 329 491.538> 522 41<228.424 390 431 602.538>
DStem2: 279.285 0 320.285 0 0.207912 0.978148<50.4403 533.612>
LayerCount: 2
Fore
SplineSet
431 522 m 1
 329 41 l 1
 468 41 l 2
 486 41 492 37 492 25 c 0
 492 10 479 0 460 0 c 2
 140 0 l 2
 124 0 117 5 117 16 c 0
 117 32 129 41 148 41 c 2
 288 41 l 1
 390 522 l 1
 251 522 l 2
 235 522 228 527 228 538 c 0
 228 554 240 563 259 563 c 2
 579 563 l 2
 597 563 603 559 603 547 c 0
 603 532 590 522 571 522 c 2
 431 522 l 1
EndSplineSet
Validated: 1
EndChar

StartChar: J
Encoding: 74 74 53
Width: 600
Flags: W
HStem: -16 41<202.348 356.657> 522 41<348.425 530 571 698.542>
DStem2: 80.8699 -16 121.831 -16 0.207912 0.978148<107.384 275.928> 415.527 -16 456.527 -16 0.207912 0.978148<110.303 550.044>
LayerCount: 2
Fore
SplineSet
571 522 m 1
 495 165 l 2
 474 67 371 -16 269 -16 c 0
 205 -16 158 9 100 74 c 1
 132 223 l 2
 136 241 144 250 158 250 c 0
 167 250 174 243 174 235 c 0
 169 183 153 142 145 93 c 1
 186 47 228 25 278 25 c 0
 360 25 438 87 454 165 c 2
 530 522 l 1
 372 522 l 2
 355 522 348 527 348 538 c 0
 348 554 360 563 380 563 c 2
 676 563 l 2
 693 563 699 559 699 547 c 0
 699 532 687 522 667 522 c 2
 571 522 l 1
EndSplineSet
Validated: 1
EndChar

StartChar: K
Encoding: 75 75 54
Width: 600
Flags: W
HStem: 0 41<47.3131 133 174 271.543 494.831 576.543> 522 41<158.313 235 276 382.538 487.425 556 613 661.538>
DStem2: 124.285 0 165.285 0 0.207912 0.978148<50.4403 234.408 287.558 533.612> 223 273 212 221 0.799761 0.600319<0 90.3556 131.386 415.8>
LayerCount: 2
Fore
SplineSet
212 221 m 1
 174 41 l 1
 248 41 l 2
 265 41 272 36 272 25 c 0
 272 10 259 0 240 0 c 2
 70 0 l 2
 54 0 47 5 47 17 c 0
 47 32 59 41 79 41 c 2
 133 41 l 1
 235 522 l 1
 181 522 l 2
 165 522 158 527 158 539 c 0
 158 554 170 563 190 563 c 2
 359 563 l 2
 377 563 383 559 383 547 c 0
 383 532 371 522 351 522 c 2
 276 522 l 1
 223 273 l 1
 556 522 l 1
 511 522 l 2
 494 522 487 527 487 538 c 0
 487 554 499 563 519 563 c 2
 638 563 l 2
 656 563 662 559 662 547 c 0
 662 532 650 522 630 522 c 2
 613 522 l 1
 349 324 l 1
 437 284 464 233 498 41 c 1
 554 41 l 2
 570 41 577 36 577 25 c 0
 577 10 564 0 545 0 c 2
 459 0 l 1
 428 204 397 263 309 294 c 1
 212 221 l 1
EndSplineSet
Validated: 1
EndChar

StartChar: L
Encoding: 76 76 55
Width: 600
Flags: W
HStem: 0 41<67.4254 195 236 508> 522 41<178.312 297 338 465.541>
DStem2: 186.285 0 227.285 0 0.207912 0.978148<50.4403 533.612> 499.285 0 541 0 0.207912 0.978148<41.916 227.006>
LayerCount: 2
Fore
SplineSet
338 522 m 1
 236 41 l 1
 508 41 l 1
 542 201 l 2
 546 219 555 228 568 228 c 0
 578 228 585 222 585 214 c 0
 585 211 584 206 583 201 c 2
 541 0 l 1
 90 0 l 2
 74 0 67 5 67 16 c 0
 67 32 79 41 99 41 c 2
 195 41 l 1
 297 522 l 1
 201 522 l 2
 184 522 178 527 178 539 c 0
 178 554 190 563 209 563 c 2
 443 563 l 2
 460 563 466 559 466 547 c 0
 466 532 454 522 434 522 c 2
 338 522 l 1
EndSplineSet
Validated: 1
EndChar

StartChar: M
Encoding: 77 77 56
Width: 600
Flags: W
HStem: 0 41<15.3131 81 122 219.543 394.312 500 541 597.543> 522 41<135.313 183 224 232 594 602 643 699.542>
DStem2: 72.2852 0 113.285 0 0.207912 0.978148<50.4403 533.612> 266 563 232 522 0.231496 -0.972836<32.0154 357.761> 349 215 362 169 0.549225 0.835674<0 391.112> 491.285 0 532.285 0 0.207912 0.978148<50.4403 533.612>
LayerCount: 2
Fore
SplineSet
362 169 m 1
 316 169 l 1
 232 522 l 1
 224 522 l 1
 122 41 l 1
 196 41 l 2
 213 41 220 36 220 25 c 0
 220 10 207 0 188 0 c 2
 38 0 l 2
 22 0 15 5 15 17 c 0
 15 32 27 41 47 41 c 2
 81 41 l 1
 183 522 l 1
 158 522 l 2
 141 522 135 527 135 539 c 0
 135 554 147 563 167 563 c 2
 266 563 l 1
 349 215 l 1
 577 563 l 1
 677 563 l 2
 694 563 700 559 700 547 c 0
 700 532 688 522 668 522 c 2
 643 522 l 1
 541 41 l 1
 575 41 l 2
 591 41 598 36 598 25 c 0
 598 10 585 0 566 0 c 2
 417 0 l 2
 401 0 394 5 394 17 c 0
 394 32 406 41 425 41 c 2
 500 41 l 1
 602 522 l 1
 594 522 l 1
 362 169 l 1
EndSplineSet
Validated: 1
EndChar

StartChar: N
Encoding: 78 78 57
Width: 600
Flags: W
HStem: 0 41<46.3131 112 153 250.543> 522 41<137.313 214 473.425 571 612 677.542>
DStem2: 103.285 0 144.285 0 0.207912 0.978148<50.4403 523.698> 275 563 251 504 0.365652 -0.930752<46.1387 541.498> 460.459 0 501 0 0.207912 0.978148<60.3181 533.576>
LayerCount: 2
Fore
SplineSet
501 0 m 1
 449 0 l 1
 251 504 l 1
 153 41 l 1
 227 41 l 2
 244 41 251 37 251 25 c 0
 251 10 238 0 219 0 c 2
 69 0 l 2
 53 0 46 5 46 17 c 0
 46 32 58 41 78 41 c 2
 112 41 l 1
 214 522 l 1
 160 522 l 2
 143 522 137 527 137 539 c 0
 137 554 149 563 169 563 c 2
 275 563 l 1
 473 59 l 1
 571 522 l 1
 497 522 l 2
 480 522 473 527 473 538 c 0
 473 554 485 563 505 563 c 2
 655 563 l 2
 672 563 678 559 678 547 c 0
 678 532 666 522 646 522 c 2
 612 522 l 1
 501 0 l 1
EndSplineSet
Validated: 1
EndChar

StartChar: O
Encoding: 79 79 58
Width: 600
Flags: W
HStem: -16 41<229.581 385.849> 535 41<332.084 488.052>
VStem: 102 42<120.049 327.537> 574 42<237.015 441.222>
LayerCount: 2
Fore
SplineSet
422 576 m 0
 536 576 616 486 616 357 c 0
 616 164 461 -16 296 -16 c 0
 181 -16 102 74 102 207 c 0
 102 396 258 576 422 576 c 0
415 535 m 0
 277 535 144 378 144 216 c 0
 144 106 211 25 302 25 c 0
 441 25 574 181 574 345 c 0
 574 455 507 535 415 535 c 0
EndSplineSet
Validated: 1
EndChar

StartChar: P
Encoding: 80 80 59
Width: 600
Flags: W
HStem: 0 41<47.3131 133 174 335.541> 231 41<223 442.988> 522 41<158.313 235 276 496.885>
VStem: 545 42<358.681 478.236>
DStem2: 124.285 0 165.285 0 0.207912 0.978148<50.4403 244.605 286.58 533.612>
LayerCount: 2
Fore
SplineSet
214 231 m 1
 174 41 l 1
 312 41 l 2
 329 41 336 36 336 25 c 0
 336 10 323 0 303 0 c 2
 70 0 l 2
 54 0 47 5 47 17 c 0
 47 32 59 41 79 41 c 2
 133 41 l 1
 235 522 l 1
 181 522 l 2
 164 522 158 527 158 539 c 0
 158 554 170 563 190 563 c 2
 430 563 l 2
 522 563 587 508 587 431 c 0
 587 324 474 231 346 231 c 2
 214 231 l 1
223 272 m 1
 357 272 l 2
 455 272 545 343 545 421 c 0
 545 479 494 522 425 522 c 2
 276 522 l 1
 223 272 l 1
EndSplineSet
Validated: 1
EndChar

StartChar: Q
Encoding: 81 81 60
Width: 600
Flags: W
HStem: -115 41<358.148 489.463> -89 41<201.714 384.902> -16 41<301 383.71> 535 41<332.084 488.245>
VStem: 102 42<119.588 327.505> 574 42<233.625 440.701>
LayerCount: 2
Fore
SplineSet
298 -89 m 0x7c
 243 -89 144 -114 143 -114 c 0
 133 -114 127 -107 127 -97 c 0
 127 -89 132 -81 142 -75 c 2
 246 -10 l 1
 160 10 102 97 102 206 c 0
 102 396 258 576 422 576 c 0
 537 576 616 486 616 354 c 0
 616 166 465 -11 301 -16 c 1
 238 -56 l 1
 270 -50 286 -48 307 -48 c 0x7c
 380 -48 392 -74 429 -74 c 0
 471 -74 499 -43 517 -43 c 0
 526 -43 533 -49 533 -59 c 0
 533 -89 448 -115 418 -115 c 0xbc
 376 -115 358 -89 298 -89 c 0x7c
415 535 m 0
 277 535 144 379 144 216 c 0
 144 106 211 25 302 25 c 0
 441 25 574 181 574 346 c 0
 574 455 507 535 415 535 c 0
EndSplineSet
Validated: 1
EndChar

StartChar: R
Encoding: 82 82 61
Width: 600
Flags: W
HStem: 0 41<47.3131 133 174 271.543 533.019 593.543> 251 41<227 383.24> 522 41<158.312 235 276 498.377>
VStem: 545 42<371.124 479.24>
DStem2: 124.285 0 165.285 0 0.207912 0.978148<50.4403 264.999 306.975 533.612>
LayerCount: 2
Fore
SplineSet
218 251 m 1
 174 41 l 1
 248 41 l 2
 265 41 272 37 272 25 c 0
 272 10 259 0 240 0 c 2
 70 0 l 2
 54 0 47 5 47 17 c 0
 47 32 59 41 79 41 c 2
 133 41 l 1
 235 522 l 1
 181 522 l 2
 164 522 158 527 158 539 c 0
 158 554 170 563 189 563 c 2
 438 563 l 2
 522 563 587 507 587 434 c 0
 587 357 528 299 414 262 c 1
 468 218 489 183 540 41 c 1
 570 41 l 2
 587 41 594 36 594 25 c 0
 594 10 581 0 562 0 c 2
 505 0 l 1
 452 162 419 216 351 251 c 1
 218 251 l 1
227 292 m 1
 341 292 l 2
 448 292 545 355 545 425 c 0
 545 479 493 522 429 522 c 2
 276 522 l 1
 227 292 l 1
EndSplineSet
Validated: 1
EndChar

StartChar: S
Encoding: 83 83 62
Width: 600
Flags: W
HStem: -16 41<217.821 402.457> 0 21G<107 119> 535 41<328.373 494.351> 543 20G<579 591>
VStem: 201 45<347.953 465.427> 499 46<106.328 229.526>
LayerCount: 2
Fore
SplineSet
164 150 m 0x4c
 164 143 162 134 162 127 c 0
 162 68 222 25 306 25 c 0
 403 25 499 84 499 177 c 0
 499 253 410 263 361 271 c 0
 270 287 201 310 201 387 c 0
 201 501 308 576 421 576 c 0xac
 480 576 522 558 555 517 c 1
 559 536 l 2
 563 554 572 563 586 563 c 0x1c
 596 563 601 557 601 546 c 0
 601 543 601 540 600 536 c 2
 578 433 l 2
 574 415 565 406 552 406 c 0
 541 406 536 412 536 423 c 0
 536 429 537 437 537 443 c 0
 537 496 488 535 416 535 c 0
 329 535 246 481 246 397 c 0
 246 339 303 321 377 309 c 0
 477 292 545 271 545 191 c 0
 545 65 429 -16 299 -16 c 0xac
 230 -16 176 9 145 56 c 1
 139 27 l 2
 135 9 126 0 112 0 c 0
 102 0 96 6 96 17 c 0
 96 20 97 23 98 27 c 2
 122 139 l 2
 126 157 134 166 148 166 c 0
 159 166 164 161 164 150 c 0x4c
EndSplineSet
Validated: 1
EndChar

StartChar: T
Encoding: 84 84 63
Width: 600
Flags: W
HStem: 0 41<152.596 289 330 457.48> 422 21G<177 189 593 605> 522 41<224 391 432 598>
DStem2: 71.5621 0 112.562 0 0.207912 0.978148<449.179 542.287> 280.285 0 321.285 0 0.207912 0.978148<50.4403 533.612> 487.562 0 527.562 0 0.207912 0.978148<451.09 533.554>
LayerCount: 2
Fore
SplineSet
152 15 m 0
 152 32 165 41 184 41 c 2
 289 41 l 1
 391 522 l 1
 224 522 l 1
 208 449 l 2
 204 431 196 422 182 422 c 0
 172 422 166 428 166 439 c 0
 166 442 166 445 167 449 c 2
 192 563 l 1
 648 563 l 1
 623 449 l 2
 619 430 612 422 598 422 c 0
 588 422 582 429 582 441 c 0
 582 443 582 446 583 449 c 2
 598 522 l 1
 432 522 l 1
 330 41 l 1
 435 41 l 2
 451 41 458 36 458 26 c 0
 458 8 445 0 426 0 c 2
 175 0 l 2
 160 0 152 5 152 15 c 0
EndSplineSet
Validated: 1
EndChar

StartChar: U
Encoding: 85 85 64
Width: 600
Flags: W
HStem: -16 41<231.601 386.879> 522 41<155.425 212 253 358.545 472.313 569 610 675.542>
VStem: 136 42<79.9781 216.039>
DStem2: 98.2761 -16 139.276 -16 0.207912 0.978148<180.386 549.888> 455.276 -16 496.276 -16 0.207912 0.978148<122.853 549.888>
LayerCount: 2
Fore
SplineSet
610 522 m 1
 539 185 l 2
 515 72 409 -16 297 -16 c 0
 201 -16 136 47 136 140 c 0
 136 154 138 170 141 185 c 2
 212 522 l 1
 179 522 l 2
 162 522 155 527 155 538 c 0
 155 554 167 563 187 563 c 2
 337 563 l 2
 353 563 359 559 359 547 c 0
 359 532 347 522 328 522 c 2
 253 522 l 1
 182 185 l 2
 179 173 178 161 178 151 c 0
 178 76 230 25 305 25 c 0
 394 25 479 95 498 185 c 2
 569 522 l 1
 495 522 l 2
 478 522 472 527 472 539 c 0
 472 554 484 563 504 563 c 2
 653 563 l 2
 670 563 676 559 676 547 c 0
 676 532 664 522 644 522 c 2
 610 522 l 1
EndSplineSet
Validated: 1
EndChar

StartChar: V
Encoding: 86 86 65
Width: 600
Flags: W
HStem: 0 21G<264.552 336.261> 522 41<124.425 178 222 329.575 502.424 604 644 706.575>
DStem2: 222 522 178 522 0.169907 -0.98546<0 488.109> 307 41 324 0 0.522639 0.852554<0 565.302>
LayerCount: 2
Fore
SplineSet
268 0 m 1
 178 522 l 1
 147 522 l 2
 130 522 124 527 124 538 c 0
 124 554 136 563 156 563 c 2
 306 563 l 2
 324 563 330 559 330 547 c 0
 330 531 318 522 298 522 c 2
 222 522 l 1
 305 41 l 1
 307 41 l 1
 604 522 l 1
 525 522 l 2
 508 522 502 527 502 538 c 0
 502 554 514 563 533 563 c 2
 684 563 l 2
 701 563 707 559 707 547 c 0
 707 531 695 522 675 522 c 2
 644 522 l 1
 324 0 l 1
 268 0 l 1
EndSplineSet
Validated: 1
EndChar

StartChar: W
Encoding: 87 87 66
Width: 600
Flags: W
HStem: 0 21G<122 195 410.65 482.628> 522 41<135.425 173 214 339.538 491.425 610 649 695.542>
DStem2: 122 0 169 46 0.0972382 0.995261<50.3522 524.485> 169 46 185 0 0.447214 0.894427<0 413.225> 426 438 385 400 0.0673468 -0.99773<35.1525 392.861> 452 46 476 0 0.314591 0.949227<0 501.538>
LayerCount: 2
Fore
SplineSet
122 0 m 1
 173 522 l 1
 158 522 l 2
 142 522 135 527 135 538 c 0
 135 554 147 563 167 563 c 2
 316 563 l 2
 334 563 340 559 340 547 c 0
 340 532 328 522 308 522 c 2
 214 522 l 1
 169 46 l 1
 364 438 l 1
 426 438 l 1
 452 46 l 1
 610 522 l 1
 514 522 l 2
 498 522 491 527 491 538 c 0
 491 554 503 563 523 563 c 2
 673 563 l 2
 690 563 696 559 696 547 c 0
 696 532 684 522 664 522 c 2
 649 522 l 1
 476 0 l 1
 412 0 l 1
 385 400 l 1
 185 0 l 1
 122 0 l 1
EndSplineSet
Validated: 1
EndChar

StartChar: X
Encoding: 88 88 67
Width: 600
Flags: W
HStem: 0 41<44.4254 93 142 229.541 378.425 472 525 564.542> 522 41<166.424 204 256 330.541 496.425 565 615 661.542>
DStem2: 93 41 142 41 0.701153 0.713011<34.3565 334.183 392.46 673.902> 256 522 204 522 0.488106 -0.872784<0 230.098 279.892 525.24>
LayerCount: 2
Fore
SplineSet
386 288 m 1
 525 41 l 1
 542 41 l 2
 559 41 565 37 565 25 c 0
 565 10 552 0 533 0 c 2
 401 0 l 2
 385 0 378 5 378 16 c 0
 378 32 390 41 410 41 c 2
 472 41 l 1
 352 255 l 1
 142 41 l 1
 207 41 l 2
 224 41 230 37 230 25 c 0
 230 10 218 0 198 0 c 2
 67 0 l 2
 51 0 44 5 44 16 c 0
 44 32 56 41 76 41 c 2
 93 41 l 1
 334 288 l 1
 204 522 l 1
 189 522 l 2
 173 522 166 527 166 538 c 0
 166 554 178 563 197 563 c 2
 308 563 l 2
 325 563 331 559 331 547 c 0
 331 532 319 522 299 522 c 2
 256 522 l 1
 368 321 l 1
 565 522 l 1
 519 522 l 2
 503 522 496 527 496 538 c 0
 496 554 508 563 528 563 c 2
 639 563 l 2
 656 563 662 559 662 547 c 0
 662 532 650 522 630 522 c 2
 615 522 l 1
 386 288 l 1
EndSplineSet
Validated: 1
EndChar

StartChar: Y
Encoding: 89 89 68
Width: 600
Flags: W
HStem: 0 41<153.425 290 331 458.541> 522 41<166.425 213 262 331.541 499.427 564 610 664.663>
DStem2: 262 522 213 522 0.414315 -0.910134<0 249.689> 281.285 0 322.285 0 0.207912 0.978148<50.4403 259.617> 366 295 376 254 0.657708 0.753273<0 301.219>
LayerCount: 2
Fore
SplineSet
376 254 m 1
 331 41 l 1
 436 41 l 2
 453 41 459 36 459 25 c 0
 459 10 447 0 427 0 c 2
 176 0 l 2
 160 0 153 5 153 16 c 0
 153 32 165 41 185 41 c 2
 290 41 l 1
 335 254 l 1
 213 522 l 1
 189 522 l 2
 173 522 166 527 166 538 c 0
 166 554 178 563 198 563 c 2
 309 563 l 2
 326 563 332 559 332 547 c 0
 332 532 320 522 300 522 c 2
 262 522 l 1
 366 295 l 1
 564 522 l 1
 523 522 l 2
 506 522 499 527 499 538 c 0
 499 554 511 563 532 563 c 2
 642 563 l 2
 658 563 665 558 665 546 c 0
 665 532 652 522 633 522 c 2
 610 522 l 1
 376 254 l 1
EndSplineSet
Validated: 1
EndChar

StartChar: Z
Encoding: 90 90 69
Width: 600
Flags: W
HStem: 0 41<150 465> 522 41<273 542>
DStem2: 116 59 151 45 0.680329 0.732907<13.5508 626.277> 121.127 0 162.127 0 0.207912 0.978148<401.008 542.169> 456.285 0 497 0 0.207912 0.978148<41.916 206.61>
LayerCount: 2
Fore
SplineSet
497 0 m 1
 103 0 l 1
 116 59 l 1
 541 519 l 1
 542 522 l 1
 273 522 l 1
 248 404 l 2
 244 385 235 376 221 376 c 0
 212 376 205 383 205 392 c 0
 205 395 205 396 207 404 c 2
 241 563 l 1
 590 563 l 1
 578 505 l 1
 151 45 l 1
 150 41 l 1
 465 41 l 1
 495 182 l 2
 499 200 507 209 521 209 c 0
 531 209 538 202 538 194 c 0
 538 191 537 185 536 182 c 2
 497 0 l 1
EndSplineSet
Validated: 1
EndChar

StartChar: bracketleft
Encoding: 91 91 70
Width: 600
Flags: W
HStem: -124 41<304 423.541> 563 41<441 569.575>
VStem: 254 316
DStem2: 254 -124 295.285 -124 0.207912 0.978148<50.4996 710.867>
LayerCount: 2
Fore
SplineSet
441 563 m 1
 304 -83 l 1
 401 -83 l 2
 418 -83 424 -87 424 -99 c 0
 424 -114 412 -124 392 -124 c 2
 254 -124 l 1
 409 604 l 1
 547 604 l 2
 564 604 570 600 570 588 c 0
 570 572 558 563 538 563 c 2
 441 563 l 1
EndSplineSet
Validated: 1
EndChar

StartChar: backslash
Encoding: 92 92 71
Width: 600
Flags: W
VStem: 250 224
DStem2: 472 -46 432 -63 0.250383 -0.968147<-723.513 11.0573>
LayerCount: 2
Fore
SplineSet
292 650 m 2
 472 -46 l 2
 473 -50 474 -55 474 -57 c 0
 474 -69 462 -81 449 -81 c 0
 439 -81 435 -77 432 -63 c 2
 252 633 l 2
 251 637 250 642 250 644 c 0
 250 656 262 668 275 668 c 0
 285 668 289 664 292 650 c 2
EndSplineSet
Validated: 1
EndChar

StartChar: bracketright
Encoding: 93 93 72
Width: 600
Flags: W
HStem: -124 41<132.425 261> 563 41<278.459 398>
VStem: 132 316
DStem2: 252.285 -124 293 -124 0.207912 0.978148<41.916 702.283>
LayerCount: 2
Fore
SplineSet
261 -83 m 1
 398 563 l 1
 301 563 l 2
 284 563 278 567 278 579 c 0
 278 594 290 604 310 604 c 2
 448 604 l 1
 293 -124 l 1
 155 -124 l 2
 138 -124 132 -120 132 -108 c 0
 132 -92 144 -83 164 -83 c 2
 261 -83 l 1
EndSplineSet
Validated: 1
EndChar

StartChar: asciicircum
Encoding: 94 94 73
Width: 600
Flags: W
HStem: 354 261
DStem2: 205 392 231 367 0.710256 0.703943<-24.3527 263.205> 430 615 417 552 0.509379 -0.860542<47.5922 273.61>
LayerCount: 2
Fore
SplineSet
430 615 m 1
 562 392 l 2
 565 387 567 381 567 378 c 0
 567 366 554 354 542 354 c 0
 534 354 530 357 524 367 c 2
 417 552 l 1
 231 367 l 2
 221 357 216 354 208 354 c 0
 199 354 192 361 192 370 c 0
 192 377 195 382 205 392 c 2
 430 615 l 1
EndSplineSet
Validated: 1
EndChar

StartChar: underscore
Encoding: 95 95 74
Width: 600
Flags: W
HStem: -125 50<-61 564>
LayerCount: 2
Fore
SplineSet
564 -75 m 1
 564 -125 l 1
 -61 -125 l 1
 -61 -75 l 1
 564 -75 l 1
EndSplineSet
Validated: 1
EndChar

StartChar: grave
Encoding: 96 96 75
Width: 600
Flags: W
HStem: 490 149
VStem: 286 143
DStem2: 328 630 387 499 0.681013 -0.732272<-16.7468 153.433>
LayerCount: 2
Fore
SplineSet
328 630 m 2
 420 530 l 2
 423 528 429 516 429 514 c 0
 429 502 415 490 403 490 c 0
 398 490 393 493 387 499 c 2
 294 599 l 2
 289 605 286 610 286 614 c 0
 286 627 298 639 312 639 c 0
 317 639 321 637 328 630 c 2
EndSplineSet
Validated: 1
EndChar

StartChar: a
Encoding: 97 97 76
Width: 600
Flags: W
HStem: -16 41<158.331 327.604> 0 41<469 545.542> 217 41<223.914 460.073> 390 41<266.877 458.632>
VStem: 93 42<47.9591 150.081> 486 42<276.938 364.532>
DStem2: 415.358 -16 456.884 -16 0.207912 0.978148<66.9073 84.8543 109.947 222.934 258.832 345.028>
LayerCount: 2
Fore
SplineSet
379 390 m 0xbc
 315 390 232 358 220 358 c 0
 212 358 205 365 205 374 c 0
 205 384 211 392 223 397 c 0
 259 412 353 431 391 431 c 0
 472 431 528 390 528 331 c 0
 528 322 527 316 526 308 c 2
 469 41 l 1
 523 41 l 2x7c
 540 41 546 37 546 25 c 0xbc
 546 10 534 0 514 0 c 2
 419 0 l 1x7c
 433 67 l 1
 360 10 295 -16 225 -16 c 0
 143 -16 93 23 93 87 c 0
 93 184 200 258 338 258 c 0
 384 258 414 253 470 237 c 1
 485 308 l 2
 486 313 486 316 486 322 c 0
 486 363 444 390 379 390 c 0xbc
443 112 m 1
 462 202 l 1
 427 211 382 217 337 217 c 0
 222 217 135 165 135 96 c 0
 135 51 170 25 231 25 c 0xbc
 304 25 361 49 443 112 c 1
EndSplineSet
Validated: 1
EndChar

StartChar: b
Encoding: 98 98 77
Width: 600
Flags: W
HStem: -16 41<251.532 408.894> 0 41<26.3131 112> 390 41<321.252 479.821> 563 41<146.312 223>
VStem: 549 42<162.792 323.516>
DStem2: 99.8843 -16 140.599 -16 0.207912 0.978148<58.2734 114.85 360.209 591.945>
LayerCount: 2
Fore
SplineSet
272 604 m 1x78
 214 328 l 1
 279 399 342 431 416 431 c 0
 519 431 591 360 591 258 c 0
 591 117 459 -16 319 -16 c 0xb8
 247 -16 195 19 163 88 c 1
 144 0 l 1
 49 0 l 2
 33 0 26 5 26 17 c 0
 26 32 38 41 58 41 c 2
 112 41 l 1
 223 563 l 1
 169 563 l 2
 152 563 146 567 146 580 c 0
 146 595 158 604 177 604 c 2
 272 604 l 1x78
404 390 m 0
 290 390 184 282 184 167 c 0
 184 86 245 25 326 25 c 0
 441 25 549 132 549 247 c 0
 549 330 488 390 404 390 c 0
EndSplineSet
Validated: 1
EndChar

StartChar: c
Encoding: 99 99 78
Width: 600
Flags: W
HStem: -16 41<229.602 423.351> 390 41<302.265 483.836> 397 20G<573 585>
VStem: 122 42<88.151 254.511> 532 42<271.378 302.766> 533 62<291.982 405.5>
LayerCount: 2
Fore
SplineSet
532 289 m 0xb8
 532 294 533 298 533 303 c 0
 533 352 474 390 394 390 c 0
 277 390 164 299 164 163 c 0
 164 80 222 25 316 25 c 0
 389 25 457 49 519 97 c 0
 529 105 532 107 539 107 c 0
 548 107 554 100 554 91 c 0
 554 56 426 -16 306 -16 c 0
 193 -16 122 52 122 153 c 0
 122 318 262 431 406 431 c 0xd4
 467 431 517 412 550 376 c 1
 553 389 l 2
 557 408 566 417 580 417 c 0
 590 417 595 411 595 400 c 0xb4
 595 397 595 393 594 389 c 2
 574 298 l 2
 570 280 562 271 549 271 c 0
 538 271 532 276 532 289 c 0xb8
EndSplineSet
Validated: 1
EndChar

StartChar: d
Encoding: 100 100 79
Width: 600
Flags: W
HStem: -16 41<210.155 369.813> 0 41<510 586.545> 390 41<282.357 442.345> 563 41<503.313 580>
VStem: 102 42<92.0212 252.836>
DStem2: 457.599 -16 497.884 -16 0.207912 0.978148<66.6492 107.363 350.558 591.796>
LayerCount: 2
Fore
SplineSet
630 604 m 1xb8
 510 41 l 1
 565 41 l 2x78
 581 41 587 37 587 25 c 0xb8
 587 10 575 0 556 0 c 2
 461 0 l 1x78
 480 89 l 1
 417 18 350 -16 274 -16 c 0
 176 -16 102 58 102 157 c 0
 102 299 232 431 371 431 c 0
 446 431 496 398 530 327 c 1
 580 563 l 1
 526 563 l 2
 509 563 503 567 503 580 c 0
 503 595 515 604 535 604 c 2
 630 604 l 1xb8
365 390 m 0
 251 390 144 284 144 169 c 0
 144 84 203 25 287 25 c 0xb8
 403 25 509 132 509 248 c 0
 509 331 450 390 365 390 c 0
EndSplineSet
Validated: 1
EndChar

StartChar: e
Encoding: 101 101 80
Width: 600
Flags: W
HStem: -16 41<222.66 424.023> 199 41<155 529> 390 41<280.553 458.285>
VStem: 104 42<99.5877 197.321> 529 40<240.678 321.744>
LayerCount: 2
Fore
SplineSet
530 70 m 0
 530 31 391 -16 302 -16 c 0
 184 -16 104 63 104 169 c 0
 104 323 245 431 383 431 c 0
 493 431 569 367 569 257 c 0
 569 239 566 220 562 199 c 1
 146 199 l 1
 146 193 146 187 146 181 c 0
 146 86 209 25 311 25 c 0
 373 25 451 47 498 79 c 0
 506 84 510 86 515 86 c 0
 524 86 530 79 530 70 c 0
155 240 m 1
 529 240 l 1
 529 247 l 2
 529 334 468 390 374 390 c 0
 277 390 193 332 155 240 c 1
EndSplineSet
Validated: 1
EndChar

StartChar: f
Encoding: 102 102 81
Width: 600
Flags: W
HStem: 0 41<109.313 239 280 480.543> 376 41<199.313 310 360 571.542> 563 41<423.196 642.026>
DStem2: 230.285 0 271.285 0 0.207912 0.978148<50.4403 384.357 434.857 555.219>
LayerCount: 2
Fore
SplineSet
637 551 m 0
 629 551 556 563 502 563 c 0
 436 563 383 529 373 478 c 2
 360 417 l 1
 549 417 l 2
 566 417 572 413 572 401 c 0
 572 386 560 376 540 376 c 2
 351 376 l 1
 280 41 l 1
 457 41 l 2
 474 41 481 37 481 25 c 0
 481 10 468 0 449 0 c 2
 132 0 l 2
 116 0 109 5 109 17 c 0
 109 32 121 41 141 41 c 2
 239 41 l 1
 310 376 l 1
 222 376 l 2
 206 376 199 381 199 393 c 0
 199 408 211 417 231 417 c 2
 319 417 l 1
 332 478 l 2
 347 551 423 604 512 604 c 0
 551 604 617 597 649 591 c 0
 658 589 663 583 663 576 c 0
 663 562 651 551 637 551 c 0
EndSplineSet
Validated: 1
EndChar

StartChar: g
Encoding: 103 103 82
Width: 600
Flags: W
HStem: -186 41<139.676 355.805> -16 41<206.083 354.68> 376 41<561 646.296> 390 41<277.642 427.373>
VStem: 102 42<87.7607 255.924>
DStem2: 400.141 -186 441.416 -186 0.207912 0.978148<95.9424 279.064 525.609 583.163>
LayerCount: 2
Back
SplineSet
511 334 m 1xd8
 529 417 l 1
 624 417 l 2
 641 417 647 413 647 401 c 0
 647 386 635 376 615 376 c 2
 561 376 l 1xe8
 475 -28 l 2
 457.745 -106.606 375.34 -186 277 -186 c 2
 162 -186 l 2
 146 -186 139 -181 139 -170 c 0
 139 -154 151 -145 171 -145 c 2
 287 -145 l 2
 355 -145 421 -90 435 -22 c 2
 463 107 l 1
 403 40 344 10 271 10 c 0
 174 10 105 79 105 177 c 0
 105 307 230 431 361 431 c 0
 433 431 480 401 511 334 c 1xd8
354 390 m 0xd8
 247 390 147 291 147 186 c 0
 147 106 202 51 282 51 c 0
 392 51 491 150 491 258 c 0
 491 336 435 390 354 390 c 0xd8
EndSplineSet
Fore
SplineSet
102 158 m 0xe8
 102 303 233 431 361 431 c 0xd8
 434 431 480 399 510 328 c 1
 529 417 l 1
 624 417 l 2
 639 417 647 412 647 402 c 0
 647 392 640 376 615 376 c 2
 561 376 l 1
 475 -28 l 2
 457 -112 369 -186 276 -186 c 2
 162 -186 l 2
 147 -186 139 -181 139 -171 c 0
 139 -160 146 -145 171 -145 c 2
 287 -145 l 2
 355 -145 421 -90 435 -22 c 2
 458 87 l 1
 399 17 338 -16 266 -16 c 0
 169 -16 102 59 102 158 c 0xe8
277 25 m 0
 382 25 489 129 489 250 c 0
 489 331 436 390 355 390 c 0
 249 390 144 284 144 167 c 0
 144 86 197 25 277 25 c 0
EndSplineSet
Validated: 1
EndChar

StartChar: h
Encoding: 104 104 83
Width: 600
Flags: W
HStem: 0 41<55.3131 133 174 242.541 369.312 446 487 555.543> 390 41<324.33 471.887> 563 41<167.312 244>
VStem: 501 42<259.75 362.047>
DStem2: 124.285 0 165.285 0 0.207912 0.978148<50.4403 338.749 363.268 575.587> 437.285 0 478.285 0 0.207912 0.978148<50.4403 315.262>
LayerCount: 2
Fore
SplineSet
293 604 m 1
 239 347 l 1
 303 408 350 431 411 431 c 0
 491 431 543 387 543 319 c 0
 543 310 542 301 540 291 c 2
 487 41 l 1
 532 41 l 2
 549 41 556 36 556 25 c 0
 556 10 543 0 524 0 c 2
 392 0 l 2
 376 0 369 5 369 17 c 0
 369 32 381 41 400 41 c 2
 446 41 l 1
 498 288 l 2
 500 295 501 304 501 309 c 0
 501 334 490 390 396 390 c 0
 329 390 299 362 228 296 c 1
 174 41 l 1
 219 41 l 2
 236 41 243 36 243 25 c 0
 243 10 230 0 210 0 c 2
 78 0 l 2
 62 0 55 5 55 17 c 0
 55 32 67 41 87 41 c 2
 133 41 l 1
 244 563 l 1
 189 563 l 2
 173 563 167 567 167 580 c 0
 167 595 179 604 198 604 c 2
 293 604 l 1
EndSplineSet
Validated: 1
EndChar

StartChar: i
Encoding: 105 105 84
Width: 600
Flags: W
HStem: 0 41<96.4241 288 329 512.543> 376 41<218.313 359>
DStem2: 252.471 0 311.471 0 0.207912 0.978148<543.884 637.918> 279.285 0 320.285 0 0.207912 0.978148<50.4403 384.357>
LayerCount: 2
Fore
SplineSet
444 624 m 1
 422 520 l 1
 363 520 l 1
 385 624 l 1
 444 624 l 1
409 417 m 1
 329 41 l 1
 489 41 l 2
 506 41 513 36 513 25 c 0
 513 10 500 0 481 0 c 2
 119 0 l 2
 103 0 96 5 96 16 c 0
 96 32 108 41 127 41 c 2
 288 41 l 1
 359 376 l 1
 241 376 l 2
 225 376 218 381 218 393 c 0
 218 408 230 417 250 417 c 2
 409 417 l 1
EndSplineSet
Validated: 1
EndChar

StartChar: j
Encoding: 106 106 85
Width: 600
Flags: W
HStem: -186 41<112.425 340.406> 376 41<233.427 497>
DStem2: 315.935 -186 374.935 -186 0.207912 0.978148<734.039 828.074> 377.416 -186 418.416 -186 0.207912 0.978148<86.895 574.582>
LayerCount: 2
Fore
SplineSet
497 376 m 1
 257 376 l 2
 240 376 233 381 233 392 c 0
 233 408 245 417 266 417 c 2
 547 417 l 1
 452 -28 l 2
 433 -121 355 -186 264 -186 c 2
 135 -186 l 2
 119 -186 112 -181 112 -170 c 0
 112 -154 124 -145 144 -145 c 2
 272 -145 l 2
 338 -145 397 -96 411 -28 c 2
 497 376 l 1
547 624 m 1
 525 520 l 1
 466 520 l 1
 488 624 l 1
 547 624 l 1
EndSplineSet
Validated: 1
EndChar

StartChar: k
Encoding: 107 107 86
Width: 600
Flags: W
HStem: 0 41<67.3131 153 360.313 420 478 545.543> 376 41<393.313 438 499 577.663> 563 41<187.312 264>
DStem2: 144.285 0 185 0 0.207912 0.978148<41.916 192.432 242.649 575.587> 234 229 278 219 0.815327 0.579<0 30.0844 74.4902 251.44> 314 245 278 219 0.626557 -0.779376<0 225.408>
LayerCount: 2
Fore
SplineSet
223 180 m 1
 185 0 l 1
 90 0 l 2
 74 0 67 5 67 17 c 0
 67 32 79 41 99 41 c 2
 153 41 l 1
 264 563 l 1
 210 563 l 2
 193 563 187 567 187 580 c 0
 187 595 199 604 218 604 c 2
 314 604 l 1
 234 229 l 1
 438 376 l 1
 416 376 l 2
 400 376 393 381 393 393 c 0
 393 408 405 417 425 417 c 2
 554 417 l 2
 572 417 578 413 578 400 c 0
 578 386 565 376 546 376 c 2
 499 376 l 1
 314 245 l 1
 478 41 l 1
 523 41 l 2
 539 41 546 37 546 25 c 0
 546 10 533 0 514 0 c 2
 383 0 l 2
 367 0 360 5 360 17 c 0
 360 32 372 41 392 41 c 2
 420 41 l 1
 278 219 l 1
 223 180 l 1
EndSplineSet
Validated: 1
EndChar

StartChar: l
Encoding: 108 108 87
Width: 600
Flags: W
HStem: 0 41<96.4241 288 329 512.543> 563 41<259.425 399>
DStem2: 279.285 0 320.285 0 0.207912 0.978148<50.4403 575.587>
LayerCount: 2
Fore
SplineSet
449 604 m 1
 329 41 l 1
 489 41 l 2
 506 41 513 36 513 25 c 0
 513 10 500 0 481 0 c 2
 119 0 l 2
 103 0 96 5 96 16 c 0
 96 32 108 41 127 41 c 2
 288 41 l 1
 399 563 l 1
 282 563 l 2
 265 563 259 567 259 579 c 0
 259 595 271 604 291 604 c 2
 449 604 l 1
EndSplineSet
Validated: 1
EndChar

StartChar: m
Encoding: 109 109 88
Width: 600
Flags: W
HStem: 0 41<15.4254 81 121 177.543 331 387.541 541 597.542> 376 41<95.4254 152> 390 41<244.558 338.387 452.525 548.839>
VStem: 561 42<239.266 378.197>
DStem2: 72.2852 0 112.285 0 0.207912 0.978148<50.2324 354.736 381.498 384.357> 282 0 322.285 0 0.207912 0.978148<50.2917 338.862> 492 0 532.285 0 0.207912 0.978148<50.2917 339.796>
LayerCount: 2
Fore
SplineSet
201 417 m 1xd0
 190 365 l 1
 233 412 267 431 309 431 c 0
 352 431 379 408 391 360 c 1
 440 410 477 431 519 431 c 0
 568 431 603 395 603 345 c 0
 603 338 602 331 600 323 c 2
 541 41 l 1
 575 41 l 2
 592 41 598 37 598 25 c 0
 598 10 585 0 566 0 c 2
 492 0 l 1
 560 319 l 2
 561 324 561 327 561 333 c 0
 561 365 539 390 509 390 c 0
 473 390 437 366 387 308 c 1
 331 41 l 1
 365 41 l 2
 382 41 388 37 388 25 c 0
 388 10 376 0 356 0 c 2
 282 0 l 1
 349 316 l 2
 350 322 351 327 351 332 c 0
 351 364 328 390 300 390 c 0xb0
 265 390 228 366 178 308 c 1
 121 41 l 1
 155 41 l 2
 171 41 178 36 178 25 c 0
 178 10 165 0 146 0 c 2
 37 0 l 2
 22 0 15 5 15 16 c 0
 15 32 27 41 47 41 c 2
 81 41 l 1
 152 376 l 1
 118 376 l 2
 102 376 95 381 95 392 c 0
 95 408 107 417 127 417 c 2
 201 417 l 1xd0
EndSplineSet
Validated: 1
EndChar

StartChar: n
Encoding: 110 110 89
Width: 600
Flags: W
HStem: 0 41<57.4254 135 176 243.541 382.425 448 489 545.542> 376 41<149.425 206> 390 41<326.739 471.601>
VStem: 502 43<263.25 359.97>
DStem2: 126.285 0 167.285 0 0.207912 0.978148<50.4403 337.422 364.246 384.357> 439.285 0 480.285 0 0.207912 0.978148<50.4403 313.855>
LayerCount: 2
Fore
SplineSet
256 417 m 1xd0
 241 348 l 1
 313 412 353 431 414 431 c 0
 493 431 545 387 545 319 c 0
 545 309 544 303 543 295 c 2
 489 41 l 1
 523 41 l 2
 540 41 546 37 546 25 c 0
 546 10 533 0 514 0 c 2
 405 0 l 2
 389 0 382 5 382 16 c 0
 382 32 394 41 414 41 c 2
 448 41 l 1
 500 288 l 2
 502 295 502 298 502 308 c 0
 502 324 494 390 403 390 c 0xb0
 339 390 309 373 230 294 c 1
 176 41 l 1
 221 41 l 2
 238 41 244 37 244 25 c 0
 244 10 232 0 212 0 c 2
 81 0 l 2
 64 0 57 5 57 16 c 0
 57 32 69 41 89 41 c 2
 135 41 l 1
 206 376 l 1
 172 376 l 2
 156 376 149 381 149 392 c 0
 149 408 161 417 181 417 c 2
 256 417 l 1xd0
EndSplineSet
Validated: 1
EndChar

StartChar: o
Encoding: 111 111 90
Width: 600
Flags: W
HStem: -16 41<224.645 395.52> 390 41<294.577 463.212>
VStem: 111 42<93.6478 251.775> 535 42<162.575 321.556>
LayerCount: 2
Fore
SplineSet
391 431 m 0
 501 431 577 358 577 252 c 0
 577 113 441 -16 296 -16 c 0
 187 -16 111 58 111 162 c 0
 111 301 247 431 391 431 c 0
382 390 m 0
 264 390 153 284 153 171 c 0
 153 85 216 25 305 25 c 0
 424 25 535 130 535 244 c 0
 535 331 473 390 382 390 c 0
EndSplineSet
Validated: 1
EndChar

StartChar: p
Encoding: 112 112 91
Width: 600
Flags: W
HStem: -186 41<-13.3238 72 113 234.291> -16 41<249.911 410.245> 376 41<105.558 183> 390 41<322.892 481.093>
VStem: 548 43<161.531 324.432>
DStem2: 63.2852 -186 104.285 -186 0.207912 0.978148<50.4403 288.744 534.103 574.609>
LayerCount: 2
Back
SplineSet
233 417 m 1xe8
 216 335 l 1
 283 404 339 431 415 431 c 0xd8
 523 431 593 365 593 264 c 0
 593 131 466 10 326 10 c 0
 249 10 199 40 167 106 c 1
 114 -145 l 1
 211 -145 l 2
 229 -145 235 -149 235 -161 c 0
 235 -177 223 -186 203 -186 c 2
 10 -186 l 2
 -6 -186 -13 -181 -13 -170 c 0
 -13 -154 -1 -145 19 -145 c 2
 73 -145 l 1
 183 376 l 1
 129 376 l 2
 113 376 106 381 106 392 c 0
 106 408 118 417 138 417 c 2
 233 417 l 1xe8
405 390 m 0
 292 390 188 292 188 187 c 0
 188 107 248 51 333 51 c 0
 447 51 551 149 551 255 c 0
 551 335 491 390 405 390 c 0
EndSplineSet
Fore
SplineSet
327 25 m 0xd8
 435 25 548 128 548 246 c 0
 548 330 491 390 405 390 c 0
 285 390 184 277 184 169 c 0
 184 87 241 25 327 25 c 0xd8
591 258 m 0
 591 116 457 -16 321 -16 c 0
 248 -16 195 19 163 88 c 1
 113 -145 l 1
 211 -145 l 2
 227 -145 235 -150 235 -160 c 0
 235 -170 228 -186 202 -186 c 2
 9 -186 l 2
 -6 -186 -14 -181 -14 -171 c 0
 -14 -160 -7 -145 18 -145 c 2
 72 -145 l 1
 183 376 l 1
 129 376 l 2
 113 376 105 381 105 392 c 0
 105 402 112 417 138 417 c 2
 233 417 l 1xe8
 214 328 l 1
 279 400 342 431 416 431 c 0
 522 431 591 358 591 258 c 0
EndSplineSet
Validated: 1
EndChar

StartChar: q
Encoding: 113 113 92
Width: 600
Flags: W
HStem: -186 41<300.676 430 471 548.291> -16 41<209.683 369.516> 376 41<582 667.296> 390 41<279.944 442.936>
VStem: 102 42<90.0811 252.839>
DStem2: 421.285 -186 462.285 -186 0.207912 0.978148<50.4403 281.198 524.601 583.133>
LayerCount: 2
Back
SplineSet
532 335 m 1xd8
 550 417 l 1
 645 417 l 2
 662 417 668 413 668 401 c 0
 668 386 656 376 636 376 c 2
 582 376 l 1xe8
 471 -145 l 1
 525 -145 l 2
 542 -145 549 -149 549 -161 c 0
 549 -176 536 -186 517 -186 c 2
 324 -186 l 2
 307 -186 300 -181 300 -170 c 0
 300 -154 312 -145 332 -145 c 2
 430 -145 l 1
 484 106 l 1
 423 40 361 10 284 10 c 0
 177 10 105 78 105 178 c 0
 105 311 233 431 374 431 c 0
 450 431 500 401 532 335 c 1xd8
365 390 m 0xd8
 251 390 147 293 147 186 c 0
 147 107 207 51 293 51 c 0
 407 51 512 148 512 254 c 0
 512 335 452 390 365 390 c 0xd8
EndSplineSet
Fore
SplineSet
288 25 m 0xd8
 398 25 509 126 509 247 c 0
 509 330 452 390 365 390 c 0
 248 390 144 279 144 169 c 0
 144 86 201 25 288 25 c 0xd8
300 -171 m 0
 300 -160 307 -145 332 -145 c 2
 430 -145 l 1
 480 89 l 1
 418 20 351 -16 276 -16 c 0
 173 -16 102 60 102 160 c 0
 102 304 238 431 371 431 c 0xd8
 446 431 497 399 531 327 c 1
 550 417 l 1
 645 417 l 2
 660 417 668 412 668 402 c 0
 668 392 661 376 636 376 c 2
 582 376 l 1xe8
 471 -145 l 1
 525 -145 l 2
 541 -145 549 -150 549 -160 c 0
 549 -170 542 -186 516 -186 c 2
 323 -186 l 2
 308 -186 300 -181 300 -171 c 0
EndSplineSet
Validated: 1
EndChar

StartChar: r
Encoding: 114 114 93
Width: 600
Flags: W
HStem: 0 41<88.337 216 257 458.663> 376 41<190.336 287> 386 41<455.535 564.847>
DStem2: 207.285 0 248.285 0 0.207912 0.978148<50.4403 298.915 330.512 384.357>
LayerCount: 2
Fore
SplineSet
592 344 m 0xa0
 574 344 565 386 520 386 c 0xa0
 475 386 435 363 304 262 c 1
 257 41 l 1
 436 41 l 2
 451 41 459 36 459 24 c 0
 459 10 446 0 427 0 c 2
 111 0 l 2
 96 0 88 5 88 17 c 0
 88 31 101 41 120 41 c 2
 216 41 l 1
 287 376 l 1
 213 376 l 2
 197 376 190 381 190 393 c 0
 190 407 203 417 221 417 c 2
 337 417 l 1xc0
 315 315 l 1
 427 400 480 427 532 427 c 0
 592 427 619 377 619 369 c 0
 619 357 606 344 592 344 c 0xa0
EndSplineSet
Validated: 1
EndChar

StartChar: s
Encoding: 115 115 94
Width: 600
Flags: W
HStem: -16 41<206.94 407.847> 0 21G<118.5 130.5> 390 41<286.605 470.374> 397 20G<534.5 547>
VStem: 108 58<14.3882 121.219> 126 43<98.3743 136.466> 189 46<272.649 349.921> 478 46<78.5005 171.842> 499 42<293.547 352.2> 514 43<385 416.013>
LayerCount: 2
Fore
SplineSet
169 121 m 0x46
 169 113 166 106 166 98 c 0
 166 57 224 25 303 25 c 0
 393 25 478 64 478 130 c 0
 478 189 395 201 340 207 c 0
 272 214 189 233 189 297 c 0
 189 380 285 431 387 431 c 0xab
 444 431 486 416 514 385 c 1
 518 403 527 417 542 417 c 0
 552 417 557 411 557 400 c 0x1240
 557 397 557 393 556 389 c 2
 541 320 l 2
 537 302 528 293 515 293 c 0
 504 293 499 298 499 311 c 2
 499 322 l 2x1280
 499 364 455 390 382 390 c 0
 307 390 235 358 235 305 c 0
 235 266 303 251 352 246 c 0
 424 239 524 222 524 140 c 0
 524 43 416 -16 298 -16 c 0xa3
 233 -16 186 1 152 38 c 1
 150 27 l 2
 146 9 137 0 124 0 c 0
 113 0 108 6 108 17 c 0x4b
 108 20 108 23 109 27 c 2
 126 110 l 2
 130 128 139 137 153 137 c 0
 163 137 169 131 169 121 c 0x46
EndSplineSet
Validated: 1
EndChar

StartChar: t
Encoding: 116 116 95
Width: 600
Flags: W
HStem: -16 41<230.403 426.631> 376 41<127.425 225 275 517.542> 543 20G<278.5 290>
VStem: 165 42<48.3053 189.664>
DStem2: 141.856 -16 182.43 -16 0.207912 0.978148<118.392 400.721 451.22 584.835>
LayerCount: 2
Fore
SplineSet
511 54 m 0
 511 21 379 -16 296 -16 c 0
 217 -16 165 22 165 79 c 0
 165 89 166 97 168 107 c 2
 225 376 l 1
 151 376 l 2
 134 376 127 381 127 392 c 0
 127 408 139 417 159 417 c 2
 234 417 l 1
 259 536 l 2
 263 554 272 563 285 563 c 0
 295 563 302 556 302 548 c 0
 302 545 302 544 300 536 c 2
 275 417 l 1
 495 417 l 2
 512 417 518 413 518 401 c 0
 518 386 505 376 486 376 c 2
 266 376 l 1
 209 109 l 2
 208 102 207 95 207 91 c 0
 207 51 245 25 303 25 c 0
 359 25 435 42 478 65 c 0
 488 70 491 71 496 71 c 0
 504 71 511 64 511 54 c 0
EndSplineSet
Validated: 1
EndChar

StartChar: u
Encoding: 117 117 96
Width: 600
Flags: W
HStem: -16 41<208.328 353.023> 0 41<489 545.542> 376 41<127.425 204 421.427 519>
VStem: 145 43<45.9507 145.966>
DStem2: 121.155 -16 162.155 -16 0.207912 0.978148<124.792 400.658> 435.57 -16 476.884 -16 0.207912 0.978148<66.8631 83.8319 107.782 400.78>
LayerCount: 2
Fore
SplineSet
439 0 m 1x70
 453 66 l 1
 387 11 320 -16 253 -16 c 0
 187 -16 145 22 145 82 c 0
 145 93 146 104 149 115 c 2
 204 376 l 1
 150 376 l 2
 134 376 127 381 127 392 c 0
 127 408 139 417 159 417 c 2
 254 417 l 1
 190 115 l 2
 188 109 188 105 188 97 c 0
 188 55 218 25 261 25 c 0xb0
 329 25 395 54 464 115 c 1
 519 376 l 1
 445 376 l 2
 428 376 421 381 421 392 c 0
 421 408 433 417 454 417 c 2
 569 417 l 1
 489 41 l 1
 523 41 l 2x70
 540 41 546 37 546 25 c 0xb0
 546 10 534 0 514 0 c 2
 439 0 l 1x70
EndSplineSet
Validated: 1
EndChar

StartChar: v
Encoding: 118 118 97
Width: 600
Flags: W
HStem: 0 41<302 321> 376 41<114.425 178 223 320.538 448.425 540 582 654.542>
DStem2: 223 376 178 376 0.227884 -0.973688<0 344.188> 321 41 336 0 0.547489 0.836813<0 400.232>
LayerCount: 2
Fore
SplineSet
336 0 m 1
 266 0 l 1
 178 376 l 1
 137 376 l 2
 121 376 114 381 114 392 c 0
 114 408 126 417 146 417 c 2
 297 417 l 2
 315 417 321 413 321 401 c 0
 321 386 309 376 289 376 c 2
 223 376 l 1
 302 41 l 1
 321 41 l 1
 540 376 l 1
 471 376 l 2
 455 376 448 381 448 392 c 0
 448 408 460 417 480 417 c 2
 632 417 l 2
 649 417 655 413 655 401 c 0
 655 386 643 376 623 376 c 2
 582 376 l 1
 336 0 l 1
EndSplineSet
Validated: 1
EndChar

StartChar: w
Encoding: 119 119 98
Width: 600
Flags: W
HStem: 0 21G<159.787 222.197 388.297 450.617> 376 41<114.425 156 195 279.541 489.425 562 604 654.542>
VStem: 160 39<56 376>
DStem2: 199 56 211 0 0.488501 0.872563<0 253.825> 391 311 356 259 0.133918 -0.990992<46.8445 257.256> 425 56 442 0 0.395687 0.918385<0 348.092>
LayerCount: 2
Fore
SplineSet
442 0 m 1
 391 0 l 1
 356 259 l 1
 211 0 l 1
 160 0 l 1
 156 376 l 1
 137 376 l 2
 121 376 114 381 114 392 c 0
 114 408 126 417 146 417 c 2
 257 417 l 2
 274 417 280 413 280 401 c 0
 280 386 268 376 248 376 c 2
 195 376 l 1
 199 56 l 1
 339 311 l 1
 391 311 l 1
 425 56 l 1
 562 376 l 1
 512 376 l 2
 496 376 489 381 489 392 c 0
 489 408 501 417 521 417 c 2
 632 417 l 2
 649 417 655 413 655 401 c 0
 655 386 643 376 623 376 c 2
 604 376 l 1
 442 0 l 1
EndSplineSet
Validated: 1
EndChar

StartChar: x
Encoding: 120 120 99
Width: 600
Flags: W
HStem: 0 41<55.4254 96 152 242.541 367.425 463 521 553.542> 376 41<158.425 188 246 323.541 446.425 517 573 610.542>
DStem2: 96 41 152 41 0.782498 0.622653<43.8199 283.705 329.149 538.02> 246 376 188 376 0.634493 -0.772928<0 167.033 203.407 396.616>
LayerCount: 2
Fore
SplineSet
375 219 m 1
 521 41 l 1
 531 41 l 2
 548 41 554 37 554 25 c 0
 554 10 541 0 522 0 c 2
 390 0 l 2
 374 0 367 5 367 16 c 0
 367 32 379 41 399 41 c 2
 463 41 l 1
 340 190 l 1
 152 41 l 1
 220 41 l 2
 237 41 243 37 243 25 c 0
 243 10 230 0 211 0 c 2
 78 0 l 2
 62 0 55 5 55 16 c 0
 55 32 67 41 87 41 c 2
 96 41 l 1
 318 219 l 1
 188 376 l 1
 181 376 l 2
 165 376 158 381 158 392 c 0
 158 408 170 417 190 417 c 2
 301 417 l 2
 318 417 324 413 324 401 c 0
 324 386 312 376 292 376 c 2
 246 376 l 1
 352 246 l 1
 517 376 l 1
 469 376 l 2
 453 376 446 381 446 392 c 0
 446 408 458 417 478 417 c 2
 588 417 l 2
 605 417 611 413 611 401 c 0
 611 386 599 376 579 376 c 2
 573 376 l 1
 375 219 l 1
EndSplineSet
Validated: 1
EndChar

StartChar: y
Encoding: 121 121 100
Width: 600
Flags: W
HStem: -186 41<22.4254 180 222 309.538> 376 41<135.425 175 221 304.575 469.332 546 589 633.575>
DStem2: 221 376 175 376 0.273707 -0.961813<0 344.089> 180 -145 222 -145 0.575882 0.817533<24.187 177.282 233.075 636.707>
LayerCount: 2
Fore
SplineSet
282 0 m 1
 175 376 l 1
 159 376 l 2
 142 376 135 381 135 392 c 0
 135 408 147 417 167 417 c 2
 282 417 l 2
 298 417 305 412 305 401 c 0
 305 386 293 376 273 376 c 2
 221 376 l 1
 315 45 l 1
 546 376 l 1
 492 376 l 2
 476 376 469 381 469 393 c 0
 469 407 481 417 501 417 c 2
 611 417 l 2
 627 417 634 412 634 401 c 0
 634 386 622 376 602 376 c 2
 589 376 l 1
 222 -145 l 1
 286 -145 l 2
 304 -145 310 -149 310 -161 c 0
 310 -176 297 -186 278 -186 c 2
 45 -186 l 2
 29 -186 22 -181 22 -170 c 0
 22 -154 34 -145 54 -145 c 2
 180 -145 l 1
 282 0 l 1
EndSplineSet
Validated: 1
EndChar

StartChar: z
Encoding: 122 122 101
Width: 600
Flags: W
HStem: 0 41<180 457> 376 41<245 497>
DStem2: 123 36 180 41 0.740833 0.671689<45.5859 505.446> 124.364 0 165.079 0 0.207912 0.978148<304.898 392.865> 448.285 0 489 0 0.207912 0.978148<41.916 119.682>
LayerCount: 2
Fore
SplineSet
563 417 m 1
 555 381 l 1
 180 41 l 1
 457 41 l 1
 469 97 l 2
 473 115 482 124 496 124 c 0
 505 124 512 117 512 109 c 0
 512 105 511 101 510 97 c 2
 489 0 l 1
 115 0 l 1
 123 36 l 1
 497 376 l 1
 245 376 l 1
 233 321 l 2
 229 303 221 294 207 294 c 0
 199 294 191 301 191 309 c 0
 194 349 207 380 213 417 c 1
 563 417 l 1
EndSplineSet
Validated: 1
EndChar

StartChar: braceleft
Encoding: 123 123 102
Width: 600
Flags: W
HStem: -124 41<325.411 381.665> 219 42<248.469 307.057> 563 41<453.884 527.672>
VStem: 275 42<-75.2642 67.5>
DStem2: 255.682 -124 296.682 -124 0.207912 0.978148<100.123 299.886 407.296 698.317>
CounterMasks: 1 e0
LayerCount: 2
Fore
SplineSet
428 499 m 2
 392 326 l 2
 383 285 366 262 329 240 c 1
 351 222 359 207 359 184 c 0
 359 177 358 165 355 154 c 2
 319 -19 l 2
 318 -24 317 -28 317 -35 c 0
 317 -61 335 -81 360 -83 c 0
 377 -85 382 -88 382 -100 c 0
 382 -114 369 -124 353 -124 c 0
 308 -124 275 -90 275 -43 c 0
 275 -35 276 -27 278 -19 c 2
 314 154 l 2
 315 159 316 165 316 170 c 0
 316 198 298 217 268 219 c 0
 253 219 248 224 248 235 c 0
 248 250 258 260 277 261 c 0
 313 263 343 289 351 326 c 2
 388 499 l 2
 400 558 453 604 509 604 c 0
 521 604 528 598 528 588 c 0
 528 573 519 565 497 563 c 0
 463 559 436 533 428 499 c 2
EndSplineSet
Validated: 1
EndChar

StartChar: bar
Encoding: 124 124 103
Width: 600
Flags: W
HStem: 584 20G<421.5 432.5>
VStem: 257 187
DStem2: 253.261 -124 293.261 -124 0.207912 0.978148<15.5443 736.94>
LayerCount: 2
Fore
SplineSet
442 577 m 2
 299 -97 l 2
 295 -115 286 -124 273 -124 c 0
 264 -124 257 -117 257 -109 c 0
 257 -107 258 -101 259 -97 c 2
 402 577 l 2
 406 594 415 604 428 604 c 0
 437 604 444 597 444 589 c 0
 444 586 444 585 442 577 c 2
EndSplineSet
Validated: 1
EndChar

StartChar: braceright
Encoding: 125 125 104
Width: 600
Flags: W
HStem: -124 41<175.328 249.116> 219 42<395.943 454.531> 563 41<321.335 377.589>
VStem: 386 42<412.5 554.563>
DStem2: 252.682 -124 292.682 -124 0.207912 0.978148<54.9771 345.263 453.606 652.436>
CounterMasks: 1 e0
LayerCount: 2
Fore
SplineSet
275 -19 m 2
 311 154 l 2
 320 195 337 218 374 240 c 1
 352 258 344 274 344 296 c 0
 344 304 345 315 348 326 c 2
 384 499 l 2
 385 504 386 508 386 515 c 0
 386 541 368 561 343 563 c 0
 326 565 321 568 321 580 c 0
 321 594 334 604 350 604 c 0
 395 604 428 570 428 524 c 0
 428 515 427 507 425 499 c 2
 389 326 l 2
 388 321 387 315 387 311 c 0
 387 282 405 263 435 261 c 0
 450 261 455 256 455 245 c 0
 455 230 445 220 426 219 c 0
 390 217 360 191 352 154 c 2
 315 -19 l 2
 303 -78 250 -124 194 -124 c 0
 182 -124 175 -118 175 -108 c 0
 175 -93 184 -85 206 -83 c 0
 240 -79 267 -53 275 -19 c 2
EndSplineSet
Validated: 1
EndChar

StartChar: asciitilde
Encoding: 126 126 105
Width: 600
Flags: W
HStem: 212 41<400.423 488.514> 307 41<229.142 321.141>
LayerCount: 2
Fore
SplineSet
277 307 m 0
 222 307 190 230 160 230 c 0
 151 230 145 237 145 245 c 0
 145 259 217 348 286 348 c 0
 361 348 393 253 440 253 c 0
 495 253 532 330 558 330 c 0
 568 330 574 323 574 315 c 0
 574 300 497 212 434 212 c 0
 362 212 332 307 277 307 c 0
EndSplineSet
Validated: 1
EndChar

StartChar: exclamdown
Encoding: 161 161 107
Width: 600
Flags: W
HStem: 317 100<332.676 422.51>
VStem: 222 83<-207.002 -116.255> 315 42<139.068 192.399> 316 123<334.094 400.019>
LayerCount: 2
Fore
SplineSet
227 -161 m 2xe0
 315 165 l 2
 320 185 328 193 342 193 c 0
 350 193 357 186 357 178 c 0
 357 174 357 171 356 165 c 2
 305 -161 l 2
 299 -198 283 -216 254 -216 c 0
 236 -216 222 -203 222 -187 c 0
 222 -182 224 -173 227 -161 c 2xe0
374 317 m 2
 362 317 l 2
 335 317 316 333 316 357 c 0
 316 389 347 417 383 417 c 2
 395 417 l 2
 421 417 439 401 439 378 c 0xd0
 439 345 408 317 374 317 c 2
EndSplineSet
Validated: 1
EndChar

StartChar: cent
Encoding: 162 162 108
Width: 600
Flags: W
HStem: -13 177<293 385> 127 37<271.789 307 348 428.841> 459 38<427 480.173>
VStem: 175 41<214.147 354.248> 507 42<363.59 424.846>
DStem2: 277.261 -13 318.261 -13 0.207912 0.978148<15.5894 143.124 529.988 649.285>
LayerCount: 2
Fore
SplineSet
339 164 m 0xb8
 431 164 484 216 496 216 c 0
 503 216 512 208 512 202 c 0
 512 160 385 129 348 127 c 1x78
 324 14 l 2
 320 -4 311 -13 297 -13 c 0xb8
 289 -13 281 -6 281 2 c 0
 281 5 282 11 283 14 c 2
 307 127 l 1x78
 227 137 175 194 175 273 c 0
 175 390 273 471 385 496 c 1
 408 603 l 2
 412 621 421 630 434 630 c 0
 444 630 451 623 451 614 c 0
 451 611 451 611 449 603 c 2
 427 497 l 1
 465 497 503 483 523 461 c 1
 529 472 537 478 546 478 c 0
 557 478 563 472 563 461 c 0
 563 458 563 456 562 453 c 2
 549 392 l 2
 545 373 536 363 523 363 c 0
 518 363 507 371 507 375 c 2
 509 404 l 1
 509 404 496 459 407 459 c 0
 305 459 216 375 216 277 c 0
 216 213 269 164 339 164 c 0xb8
EndSplineSet
Validated: 1
EndChar

StartChar: sterling
Encoding: 163 163 109
Width: 600
Flags: W
HStem: 0 41<90.332 159.172 191 481.794> 273 41<125.313 251 292 413.541> 537 41<349.706 468.648>
VStem: 245 42<314 474.187> 252 40<176.659 273> 499 42<56.1873 114.579>
LayerCount: 2
Fore
SplineSet
413 537 m 0xf4
 372 537 287 503 287 396 c 0xf4
 287 392 290 344 292 314 c 1
 391 314 l 2
 408 314 414 310 414 298 c 0
 414 283 402 273 382 273 c 2
 292 273 l 1
 289 189 248 94 191 41 c 1
 443 41 l 2
 469 41 489 60 499 92 c 0
 504 108 512 115 525 115 c 0
 534 115 541 108 541 100 c 0
 541 71 500 0 436 0 c 2
 113 0 l 2
 97 0 90 5 90 17 c 0
 90 30 101 40 117 40 c 0
 175 41 248 166 252 273 c 1xec
 148 273 l 2
 132 273 125 278 125 290 c 0
 125 305 137 314 157 314 c 2
 251 314 l 1
 246 353 245 373 245 393 c 0
 245 493 326 578 421 578 c 0
 498 578 533 515 533 499 c 0
 533 488 520 476 508 476 c 0
 488 476 484 537 413 537 c 0xf4
EndSplineSet
Validated: 1
EndChar

StartChar: currency
Encoding: 164 164 110
Width: 600
Flags: W
HStem: 127 41<273.376 407.383> 417 41<316.774 452.767>
VStem: 193 42<205.383 337.536> 489 43<245.02 381.778>
DStem2: 143 135 165 106 0.772143 0.635448<-24.4282 90.1613 449.237 562.895> 244 478 210 450 0.617418 -0.786636<-14.7346 72.8751 364.1 454.027>
LayerCount: 2
Fore
SplineSet
521 118 m 0
 521 105 507 95 496 95 c 0
 490 95 486 99 480 106 c 2
 435 162 l 1
 398 138 364 127 327 127 c 0
 290 127 258 139 233 162 c 1
 165 106 l 2
 155 97 150 95 144 95 c 0
 134 95 127 102 127 111 c 0
 127 122 132 126 143 135 c 2
 211 191 l 1
 199 213 193 235 193 258 c 0
 193 315 219 360 253 394 c 1
 210 450 l 2
 205 457 202 459 202 464 c 0
 202 478 215 489 227 489 c 0
 234 489 238 486 244 478 c 2
 288 423 l 1
 322 446 360 458 397 458 c 0
 434 458 469 445 492 423 c 1
 559 478 l 2
 570 487 574 489 581 489 c 0
 590 489 597 483 597 473 c 0
 597 462 595 460 583 450 c 2
 516 394 l 1
 527 372 532 350 532 327 c 0
 532 270 507 226 472 191 c 1
 515 135 l 2
 519 130 521 123 521 118 c 0
389 417 m 0
 316 417 235 352 235 267 c 0
 235 211 277 168 336 168 c 0
 409 168 489 233 489 318 c 0
 489 375 449 417 389 417 c 0
EndSplineSet
Validated: 1
EndChar

StartChar: yen
Encoding: 165 165 111
Width: 600
Flags: W
HStem: 0 41<171.425 289 330 438.541> 141 37<161.537 310 359 507.207> 238 37<182.48 324 392 528.345> 522 41<166.425 213 260 330.541 500.313 562 609 664.687>
DStem2: 260 522 213 522 0.409904 -0.912129<0 249.273> 280.285 0 321.285 0 0.207912 0.978148<50.4403 144.097 190.476 243.343> 363 295 392 275 0.660011 0.751256<4.11518 301.877>
LayerCount: 2
Fore
SplineSet
372 238 m 1
 359 178 l 1
 490 178 l 2
 502 178 508 174 508 167 c 0
 508 150 499 141 482 141 c 2
 351 141 l 1
 330 41 l 1
 416 41 l 2
 433 41 439 37 439 25 c 0
 439 10 426 0 407 0 c 2
 194 0 l 2
 178 0 171 5 171 16 c 0
 171 32 183 41 203 41 c 2
 289 41 l 1
 310 141 l 1
 180 141 l 2
 167 141 161 145 161 153 c 0
 161 170 170 178 187 178 c 2
 318 178 l 1
 331 238 l 1
 200 238 l 2
 187 238 182 241 182 250 c 0
 182 267 190 275 208 275 c 2
 324 275 l 1
 213 522 l 1
 189 522 l 2
 172 522 166 527 166 538 c 0
 166 554 178 563 198 563 c 2
 308 563 l 2
 325 563 331 559 331 547 c 0
 331 532 319 522 299 522 c 2
 260 522 l 1
 363 295 l 1
 562 522 l 1
 523 522 l 2
 506 522 500 527 500 539 c 0
 500 554 512 563 532 563 c 2
 642 563 l 2
 659 563 665 559 665 546 c 0
 665 532 653 522 633 522 c 2
 609 522 l 1
 392 275 l 1
 510 275 l 2
 523 275 529 272 529 264 c 0
 529 246 520 238 503 238 c 2
 372 238 l 1
EndSplineSet
Validated: 1
EndChar

StartChar: brokenbar
Encoding: 166 166 112
Width: 600
Flags: W
HStem: 584 20G<421.5 432.5>
VStem: 344 41<283.422 342.224>
DStem2: 253.261 -124 293.261 -124 0.207912 0.978148<15.5443 320.882 443.59 736.94>
LayerCount: 2
Fore
SplineSet
442 577 m 2
 385 310 l 2
 381 292 373 283 360 283 c 0
 351 283 344 290 344 298 c 2
 345 310 l 1
 402 577 l 2
 406 594 415 604 428 604 c 0
 437 604 444 597 444 589 c 0
 444 586 444 585 442 577 c 2
356 170 m 1
 299 -97 l 2
 295 -115 286 -124 273 -124 c 0
 264 -124 257 -117 257 -109 c 0
 257 -107 258 -101 259 -97 c 2
 315 170 l 2
 319 188 328 197 341 197 c 0
 350 197 357 190 357 182 c 2
 356 170 l 1
EndSplineSet
Validated: 1
EndChar

StartChar: section
Encoding: 167 167 113
Width: 600
Flags: W
HStem: -62 40<141 374.479> 563 40<344.589 575>
VStem: 140 44<307.569 384.351> 257 41<439.75 522.103> 416 43<15.1534 102.737> 531 44<157.484 237.063>
DStem2: 92 -62 132.498 -62 0.207912 0.978148<49.3136 129.821> 286 243 253 211 0.845489 -0.533993<-127.31 176.271> 421 358 389 326 0.845489 -0.533993<-135.854 163.602> 441.819 -62 482.819 -62 0.207912 0.978148<561.458 639.032>
LayerCount: 2
Fore
SplineSet
407 563 m 2
 357 563 298 525 298 475 c 0
 298 444 327 416 421 358 c 2
 471 327 l 2
 544 282 575 244 575 203 c 0
 575 153 543 112 453 101 c 1
 456 92 459 84 459 74 c 0
 459 -6 378 -62 299 -62 c 2
 92 -62 l 1
 115 49 l 2
 118 64 128 73 142 73 c 0
 152 73 157 67 157 57 c 0
 157 55 157 52 156 49 c 2
 141 -22 l 1
 306 -22 l 2
 360 -22 416 13 416 64 c 0
 416 95 386 127 310 175 c 2
 253 211 l 2
 176 260 140 302 140 343 c 0
 140 400 198 436 263 441 c 1
 259 450 257 459 257 468 c 0
 257 544 341 603 412 603 c 2
 624 603 l 1
 601 494 l 2
 598 479 589 470 576 470 c 0
 565 470 559 476 559 487 c 0
 559 489 559 491 560 494 c 2
 575 563 l 1
 407 563 l 2
287 403 m 1
 254 403 184 396 184 350 c 0
 184 322 219 286 286 243 c 2
 340 208 l 2
 388 177 416 157 430 139 c 1
 464 139 531 150 531 191 c 0
 531 219 498 257 446 290 c 2
 389 326 l 2
 332 361 309 379 287 403 c 1
EndSplineSet
Validated: 1
EndChar

StartChar: dieresis
Encoding: 168 168 114
Width: 600
Flags: W
HStem: 511 100<274.788 344.114 495.788 565.114>
VStem: 258 102<527.335 594.315> 479 102<527.335 594.315>
LayerCount: 2
Fore
SplineSet
319 611 m 0
 343 611 360 594 360 571 c 0
 360 540 330 511 298 511 c 0
 275 511 258 528 258 551 c 0
 258 581 288 611 319 611 c 0
540 611 m 0
 564 611 581 594 581 571 c 0
 581 540 551 511 519 511 c 0
 496 511 479 528 479 551 c 0
 479 581 509 611 540 611 c 0
EndSplineSet
Validated: 1
EndChar

StartChar: copyright
Encoding: 169 169 115
Width: 600
Flags: W
HStem: -15 41<212.323 399.574> 111 36<277.465 395.577> 414 36<321.248 437.863> 537 41<318.538 508.198>
VStem: 56 42<139.261 329.318> 205 37<182.129 284.231> 457 51<361 429> 470 38<423.094 442.562> 621 42<233.639 424.781>
DStem2: 149.547 -15 185.909 -15 0.207912 0.978148<268.039 397.888>
LayerCount: 2
Fore
SplineSet
464 188 m 0xfe80
 464 167 397 111 326 111 c 0
 257 111 205 165 205 232 c 0
 205 241 206 250 208 260 c 2
 218 305 l 2
 235 385 312 450 388 450 c 0
 420 450 440 443 470 421 c 1xfd80
 473 435 482 443 493 443 c 0
 502 443 508 438 508 429 c 0
 508 427 507 425 507 423 c 2
 493 358 l 2
 490 346 482 338 471 338 c 0
 458 338 457 347 457 361 c 0
 457 390 424 414 381 414 c 0
 323 414 266 364 253 302 c 2
 245 263 l 2
 243 255 242 247 242 239 c 0
 242 187 279 147 333 147 c 0
 405 147 428 202 451 202 c 0
 459 202 464 195 464 188 c 0xfe80
423 578 m 0
 565 578 663 477 663 343 c 0
 663 138 465 -15 293 -15 c 0
 154 -15 56 88 56 221 c 0
 56 423 256 578 423 578 c 0
414 537 m 0
 271 537 98 404 98 229 c 0
 98 114 183 26 302 26 c 0
 449 26 621 158 621 335 c 0
 621 450 536 537 414 537 c 0
EndSplineSet
Validated: 1
EndChar

StartChar: ordfeminine
Encoding: 170 170 116
Width: 600
Flags: W
HStem: 282 37<268.61 409.337 466 510.496> 420 35<307.785 447.062> 537 37<331.794 458.51>
VStem: 229 37<323.356 386.352> 466 38<459.2 527.5>
DStem2: 419.908 279 457.498 279 0.207912 0.978148<57.3799 134.442 170.573 225.527>
LayerCount: 2
Fore
SplineSet
410 537 m 0
 378 537 322 514 315 514 c 0
 307 514 301 521 301 528 c 0
 301 538 306 545 317 550 c 0
 340 561 394 574 420 574 c 0
 470 574 504 547 504 506 c 0
 504 501 503 496 502 490 c 2
 466 319 l 1
 492 319 l 2
 505 319 511 314 511 305 c 0
 511 291 500 282 484 282 c 2
 421 282 l 1
 426 308 l 1
 381 286 352 279 313 279 c 0
 261 279 229 303 229 343 c 0
 229 404 300 455 385 455 c 0
 407 455 427 452 456 446 c 1
 465 490 l 2
 466 494 466 495 466 500 c 0
 466 522 443 537 410 537 c 0
435 350 m 1
 448 409 l 1
 434 415 402 420 379 420 c 0
 318 420 266 387 266 348 c 0
 266 329 287 316 320 316 c 0
 359 316 394 326 435 350 c 1
EndSplineSet
Validated: 1
EndChar

StartChar: guillemotleft
Encoding: 171 171 117
Width: 600
Flags: W
HStem: 0 21G<289 298.5 518 527.5> 397 20G<377.5 385.5 606.5 614.5>
LayerCount: 2
Fore
SplineSet
108 209 m 1
 358 406 l 2
 368 414 374 417 381 417 c 0
 390 417 397 410 397 401 c 0
 397 393 395 389 382 377 c 2
 203 209 l 1
 310 40 l 2
 316 32 317 29 317 25 c 0
 317 12 305 0 292 0 c 0
 286 0 280 4 274 11 c 2
 108 209 l 1
337 209 m 1
 586 406 l 2
 597 414 603 417 610 417 c 0
 619 417 626 410 626 401 c 0
 626 393 624 389 611 377 c 2
 432 209 l 1
 539 40 l 2
 545 32 546 29 546 25 c 0
 546 12 534 0 521 0 c 0
 515 0 509 4 503 11 c 2
 337 209 l 1
EndSplineSet
Validated: 1
EndChar

StartChar: logicalnot
Encoding: 172 172 118
Width: 600
Flags: W
HStem: 397 41<160.425 571>
DStem2: 522.261 168 563.261 168 0.207912 0.978148<15.5459 234.129>
LayerCount: 2
Fore
SplineSet
526 183 m 0
 526 185 528 193 528 195 c 2
 571 397 l 1
 183 397 l 2
 167 397 160 402 160 413 c 0
 160 429 172 438 192 438 c 2
 621 438 l 1
 569 195 l 2
 566 178 556 168 542 168 c 0
 534 168 526 175 526 183 c 0
EndSplineSet
Validated: 1
EndChar

StartChar: registered
Encoding: 174 174 120
Width: 600
Flags: W
HStem: -15 41<211.149 407.741> 120 36<182.498 231 267 318.502 459.019 495.502> 258 36<296 376.597> 407 36<243.436 284 320 445.069> 537 41<312.021 505.668>
VStem: 57 42<137.986 330.176> 433 63<120.115 154.342> 456 37<322.116 396.255> 621 42<232.824 425.214>
DStem2: 194.653 -15 230.653 -15 0.207912 0.978148<182.305 286.442 323.319 431.355>
LayerCount: 2
Fore
SplineSet
288 258 m 1xfe80
 267 156 l 1
 302 156 l 2
 313 156 319 151 319 142 c 0
 319 130 308 120 295 120 c 2
 199 120 l 2
 188 120 182 125 182 134 c 0
 182 146 193 156 206 156 c 2
 231 156 l 1
 284 407 l 1
 260 407 l 2
 249 407 243 412 243 421 c 0
 243 434 254 443 268 443 c 2
 405 443 l 2
 458 443 493 414 493 369 c 0xfd80
 493 323 457 283 404 269 c 1
 431 242 438 230 465 156 c 1
 480 156 l 2
 490 156 496 151 496 142 c 0
 496 130 485 120 472 120 c 2
 433 120 l 1
 413 198 385 246 352 258 c 1
 288 258 l 1xfe80
296 294 m 1
 352 294 l 2
 413 294 456 322 456 362 c 0
 456 390 433 407 397 407 c 2
 320 407 l 1
 296 294 l 1
426 578 m 0
 563 578 663 479 663 343 c 0
 663 158 485 -15 294 -15 c 0
 157 -15 57 85 57 220 c 0
 57 405 235 578 426 578 c 0
416 537 m 0
 252 537 99 388 99 229 c 0
 99 112 185 26 303 26 c 0
 468 26 621 175 621 334 c 0
 621 451 534 537 416 537 c 0
EndSplineSet
Validated: 1
EndChar

StartChar: macron
Encoding: 175 175 121
Width: 600
Flags: W
HStem: 536 40<273.332 563.668>
VStem: 273 291<536.953 575.047>
LayerCount: 2
Fore
SplineSet
532 536 m 2
 296 536 l 2
 280 536 273 541 273 552 c 0
 273 567 285 576 305 576 c 2
 541 576 l 2
 557 576 564 571 564 560 c 0
 564 545 552 536 532 536 c 2
EndSplineSet
Validated: 1
EndChar

StartChar: degree
Encoding: 176 176 122
Width: 600
Flags: W
HStem: 346 41<326.469 448.137> 595 41<362.376 483.293>
VStem: 257 42<414.063 533.902> 511 42<449.083 567.814>
LayerCount: 2
Fore
SplineSet
437 636 m 0
 504 636 553 587 553 521 c 0
 553 432 466 346 375 346 c 0
 306 346 257 394 257 462 c 0
 257 552 344 636 437 636 c 0
428 595 m 0
 361 595 299 535 299 470 c 0
 299 421 334 387 383 387 c 0
 449 387 511 448 511 513 c 0
 511 560 476 595 428 595 c 0
EndSplineSet
Validated: 1
EndChar

StartChar: plusminus
Encoding: 177 177 123
Width: 600
Flags: W
HStem: 0 40<76.332 532.668> 301 40<140.332 343 393 596.627>
DStem2: 279.455 0 320.455 0 0.207912 0.978148<130.088 307.634 357.156 533.72>
LayerCount: 2
Fore
SplineSet
384 301 m 1
 350 139 l 2
 346 121 337 112 324 112 c 0
 315 112 307 119 307 127 c 0
 307 130 307 131 309 139 c 2
 343 301 l 1
 163 301 l 2
 147 301 140 306 140 317 c 0
 140 332 152 341 171 341 c 2
 352 341 l 1
 386 502 l 2
 390 520 399 529 413 529 c 0
 421 529 429 522 429 514 c 0
 429 511 428 505 427 502 c 2
 393 341 l 1
 573 341 l 2
 591 341 597 337 597 325 c 0
 597 310 585 301 565 301 c 2
 384 301 l 1
108 40 m 2
 510 40 l 2
 526 40 533 35 533 24 c 0
 533 9 521 0 501 0 c 2
 99 0 l 2
 83 0 76 5 76 16 c 0
 76 31 88 40 108 40 c 2
EndSplineSet
Validated: 1
EndChar

StartChar: twosuperior
Encoding: 178 178 124
Width: 600
Flags: W
HStem: 259 59<432.378 465.25> 259 36<282 441.486> 576 36<363.47 461.156>
VStem: 432 37<295.071 317.504> 477 37<479.761 560.162>
LayerCount: 2
Fore
SplineSet
297 521 m 0x78
 297 539 347 612 427 612 c 0
 475 612 514 575 514 530 c 0
 514 477 498 461 282 295 c 1
 432 295 l 1x78
 436 307 441 318 455 318 c 0
 463 318 468 313 469 305 c 1
 469 286 462 275 460 259 c 1xb8
 230 259 l 1
 239 302 l 1
 397 425 l 2
 467 480 477 495 477 523 c 0
 477 552 450 576 418 576 c 0
 383 576 349 555 332 524 c 0
 327 513 320 508 311 508 c 0
 304 508 297 514 297 521 c 0x78
EndSplineSet
Validated: 1
EndChar

StartChar: threesuperior
Encoding: 179 179 125
Width: 600
Flags: W
HStem: 251 36<293.023 414.729> 431 36<362.283 435.153> 576 36<360.643 468.614>
VStem: 457 37<326.124 410.336> 479 37<490.481 564.88>
LayerCount: 2
Fore
SplineSet
516 538 m 0xe8
 516 483 467 455 452 446 c 1
 482 426 494 405 494 376 c 0
 494 312 422 251 348 251 c 0
 302 251 245 278 245 300 c 0
 245 311 255 321 266 321 c 0
 282 321 295 287 356 287 c 0
 408 287 457 328 457 371 c 0xf0
 457 405 425 431 380 431 c 0
 368 431 362 436 362 446 c 0
 362 458 373 467 387 467 c 2
 402 467 l 2
 444 467 479 496 479 531 c 0
 479 558 456 576 422 576 c 0
 361 576 347 539 329 539 c 0
 321 539 315 545 315 553 c 0
 315 578 381 612 430 612 c 0
 481 612 516 582 516 538 c 0xe8
EndSplineSet
Validated: 1
EndChar

StartChar: acute
Encoding: 180 180 126
Width: 600
Flags: W
HStem: 490 149
VStem: 388 189
DStem2: 540 630 425 499 0.803557 0.595228<-191.622 22.0055>
LayerCount: 2
Fore
SplineSet
560 599 m 2
 425 499 l 2
 416 493 410 490 405 490 c 0
 395 490 388 497 388 506 c 0
 388 515 392 520 405 530 c 2
 540 630 l 2
 550 637 555 639 561 639 c 0
 570 639 577 632 577 623 c 0
 577 614 573 608 560 599 c 2
EndSplineSet
Validated: 1
EndChar

StartChar: paragraph
Encoding: 182 182 127
Width: 600
Flags: W
HStem: -62 41<152.371 280 367.543 393 433 516.484> 260 47<282.756 339> 563 41<339.977 403 445 517 557 647.545>
VStem: 163 72<349.312 433.417>
DStem2: 65.5235 -62 135.823 -62 0.207912 0.978148<486.392 596.654> 271.285 -62 312.285 -62 0.207912 0.978148<41.916 329.042 375.974 633.837> 384.285 -62 424.285 -62 0.207912 0.978148<50.2324 638.935>
LayerCount: 2
Fore
SplineSet
337 -37 m 0
 337 -54 324 -62 308 -62 c 2
 174 -62 l 2
 160 -62 152 -56 152 -46 c 0
 152 -29 165 -21 183 -21 c 2
 280 -21 l 1
 339 260 l 1
 219 268 163 321 163 383 c 0
 163 391 163 398 165 406 c 2
 175 453 l 2
 194 543 296 604 426 604 c 2
 626 604 l 2
 640 604 648 597 648 588 c 0
 648 572 635 563 618 563 c 2
 557 563 l 1
 433 -21 l 1
 495 -21 l 2
 510 -21 517 -26 517 -36 c 0
 517 -54 504 -62 486 -62 c 2
 388 -62 l 2
 375 -62 367 -56 367 -46 c 0
 367 -32 379 -22 393 -21 c 1
 517 563 l 1
 445 563 l 1
 321 -21 l 1
 332 -22 337 -28 337 -37 c 0
349 307 m 1
 403 558 l 1
 324 550 256 504 245 451 c 2
 237 414 l 2
 236 409 235 404 235 399 c 0
 235 353 281 314 349 307 c 1
EndSplineSet
Validated: 1
EndChar

StartChar: periodcentered
Encoding: 183 183 128
Width: 600
Flags: W
HStem: 217 131<313.47 407.53>
VStem: 285 151<244.963 320.037>
LayerCount: 2
Fore
SplineSet
369 348 m 2
 380 348 l 2
 413 348 436 327 436 296 c 0
 436 254 396 217 352 217 c 2
 341 217 l 2
 308 217 285 238 285 269 c 0
 285 311 325 348 369 348 c 2
EndSplineSet
Validated: 1
EndChar

StartChar: cedilla
Encoding: 184 184 129
Width: 600
Flags: W
HStem: -173 38<213.797 313.629> -81 34<302 317.557>
VStem: 319 37<-126.952 -83.567>
LayerCount: 2
Fore
SplineSet
205 -114 m 0
 219 -114 235 -135 268 -135 c 0
 297 -135 319 -121 319 -101 c 0
 319 -88 305 -81 278 -81 c 2
 257 -81 l 1
 274 0 l 1
 312 0 l 1
 302 -47 l 1
 338 -48 356 -63 356 -93 c 0
 356 -138 315 -173 262 -173 c 0
 225 -173 181 -154 181 -138 c 0
 181 -125 192 -114 205 -114 c 0
EndSplineSet
Validated: 1
EndChar

StartChar: onesuperior
Encoding: 185 185 130
Width: 600
Flags: W
HStem: 259 36<249.293 345 381 468.502> 592 20G<387.5 444.71>
VStem: 249 220<259.115 294.078>
DStem2: 337.348 259 373.348 259 0.207912 0.978148<44.2891 310.799>
LayerCount: 2
Fore
SplineSet
449 612 m 1
 381 295 l 1
 452 295 l 2
 463 295 469 290 469 281 c 0
 469 269 458 259 445 259 c 2
 266 259 l 2
 255 259 249 264 249 273 c 0
 249 289 260 295 285 295 c 2
 345 295 l 1
 402 563 l 1
 333 542 l 2
 330 541 326 541 323 541 c 0
 316 541 310 548 310 555 c 0
 310 575 326 576 449 612 c 1
EndSplineSet
Validated: 1
EndChar

StartChar: ordmasculine
Encoding: 186 186 131
Width: 600
Flags: W
HStem: 284 37<313.554 431.917> 540 37<353.309 472.138>
VStem: 243 38<353.536 469.343> 505 38<391.244 507.676>
LayerCount: 2
Fore
SplineSet
424 577 m 0
 494 577 543 529 543 460 c 0
 543 369 454 284 360 284 c 0
 293 284 243 333 243 400 c 0
 243 491 331 577 424 577 c 0
416 540 m 0
 347 540 281 476 281 408 c 0
 281 358 318 321 369 321 c 0
 439 321 505 385 505 453 c 0
 505 504 468 540 416 540 c 0
EndSplineSet
Validated: 1
EndChar

StartChar: guillemotright
Encoding: 187 187 132
Width: 600
Flags: W
HStem: 0 21G<78.5 86.5 308.5 316.5> 397 20G<165.5 175 395.5 405>
LayerCount: 2
Fore
SplineSet
355 208 m 1
 107 11 l 2
 97 3 90 0 83 0 c 0
 74 0 67 6 67 16 c 0
 67 24 69 28 82 40 c 2
 260 208 l 1
 154 377 l 2
 148 386 147 388 147 392 c 0
 147 405 159 417 172 417 c 0
 178 417 184 413 190 406 c 2
 355 208 l 1
585 208 m 1
 336 11 l 2
 326 3 320 0 313 0 c 0
 304 0 297 7 297 16 c 0
 297 24 300 28 312 40 c 2
 490 208 l 1
 384 377 l 2
 378 385 377 388 377 392 c 0
 377 405 389 417 402 417 c 0
 408 417 414 413 420 406 c 2
 585 208 l 1
EndSplineSet
Validated: 1
EndChar

StartChar: onequarter
Encoding: 188 188 133
Width: 600
Flags: W
HStem: 0 36<456.435 518 554 583.584> 93 36<428 530 573 603.644> 259 36<75.3551 171 207 294.584> 592 20G<206.5 269.773>
DStem2: 108.296 0 144.296 0 0.207912 0.978148<309.075 575.585> 131 88 154 63 0.727518 0.686088<-20.9559 623.229> 388 127 428 129 0.62382 0.781568<26.5159 258.276> 510.348 0 546.348 0 0.207912 0.978148<44.2891 95.0536 139.207 315.897>
LayerCount: 2
Fore
SplineSet
75 273 m 0
 75 289 89 295 100 295 c 2
 171 295 l 1
 228 563 l 1
 158 542 l 2
 154 541 151 540 149 540 c 0
 142 540 136 547 136 555 c 0
 136 575 139 573 274 612 c 1
 207 295 l 1
 278 295 l 2
 289 295 295 290 295 281 c 0
 295 267 283 259 270 259 c 2
 92 259 l 2
 81 259 75 264 75 273 c 0
593 477 m 2
 154 63 l 2
 144 53 140 51 134 51 c 0
 123 51 116 60 118 71 c 0
 119 75 123 81 131 88 c 2
 569 502 l 2
 580 512 583 514 589 514 c 0
 600 514 607 505 605 494 c 0
 604 490 599 483 593 477 c 2
456 13 m 0
 456 33 473 36 491 36 c 2
 518 36 l 1
 530 93 l 1
 381 93 l 1
 388 127 l 1
 562 345 l 1
 619 345 l 1
 573 129 l 1
 586 129 l 2
 598 129 604 124 604 115 c 0
 604 100 591 93 575 93 c 2
 566 93 l 1
 554 36 l 1
 567 36 l 2
 578 36 584 31 584 22 c 0
 584 8 572 0 559 0 c 2
 474 0 l 2
 463 0 456 5 456 13 c 0
537 129 m 1
 576 309 l 1
 574 309 l 1
 428 129 l 1
 537 129 l 1
EndSplineSet
Validated: 1
LCarets2: 2 0 0 
EndChar

StartChar: onehalf
Encoding: 189 189 134
Width: 600
Flags: W
HStem: 0 59<545.145 573> 0 36<395 545> 259 36<82.528 178 214 301.68> 317 36<476.381 574.28> 592 20G<213.5 276.773>
VStem: 545 36<36 58.3113> 590 37<220.236 301.327>
DStem2: 115.296 0 151.296 0 0.207912 0.978148<309.075 575.585> 124 88 147 63 0.727518 0.686088<-22.9981 625.273>
LayerCount: 2
Fore
SplineSet
586 477 m 2x3e
 147 63 l 2
 137 53 133 51 127 51 c 0
 120 51 111 57 111 66 c 0
 111 72 114 79 124 88 c 2
 562 502 l 2
 573 512 576 514 582 514 c 0
 589 514 598 509 598 499 c 0
 598 493 595 486 586 477 c 2x3e
281 612 m 1
 214 295 l 1
 285 295 l 2
 296 295 302 288 302 280 c 0
 302 270 293 259 277 259 c 2
 99 259 l 2
 88 259 82 264 82 273 c 0
 82 282 89 295 107 295 c 2
 178 295 l 1
 235 563 l 1
 165 542 l 2
 161 541 158 540 156 540 c 0
 148 540 141 549 143 558 c 0
 146 573 146 573 281 612 c 1
627 270 m 0
 627 213 586 183 395 36 c 1
 545 36 l 1x7e
 545 39 l 1
 548 51 557 59 568 59 c 0
 579 59 584 51 581 39 c 2
 573 0 l 1xbe
 343 0 l 1x7e
 352 43 l 1
 510 166 l 2
 575 217 590 235 590 263 c 0
 590 293 564 317 530 317 c 0
 496 317 461 296 445 265 c 0
 440 254 433 249 424 249 c 0
 415 249 411 254 411 261 c 0
 411 288 468 353 538 353 c 0
 590 353 627 316 627 270 c 0
EndSplineSet
Validated: 1
LCarets2: 2 0 0 
EndChar

StartChar: threequarters
Encoding: 190 190 135
Width: 600
Flags: W
HStem: 0 36<456.435 518 554 584.644> 93 36<428 530 573 604.641> 251 36<118.953 238.551> 431 37<186.288 261.999> 576 36<185.005 294.395>
VStem: 282 37<325.951 410.675> 305 37<491.407 564.453>
DStem2: 130 88 153 63 0.727518 0.686088<-22.9981 625.273> 388 127 428 129 0.62382 0.781568<26.5159 258.276> 510.348 0 546.348 0 0.207912 0.978148<44.2891 95.0536 139.207 315.897>
LayerCount: 2
Fore
SplineSet
140 553 m 0xfa
 140 581 210 612 255 612 c 0
 307 612 342 581 342 538 c 0xfa
 342 483 292 454 278 446 c 1
 306 427 319 405 319 378 c 0
 319 314 251 251 173 251 c 0
 125 251 71 279 71 301 c 0
 71 310 81 321 91 321 c 0
 106 321 122 287 181 287 c 0
 226 287 282 322 282 371 c 0xfc
 282 405 251 431 205 431 c 0
 192 431 186 439 186 447 c 0
 186 457 197 468 216 468 c 0
 221 468 226 467 228 467 c 0
 276 467 305 503 305 530 c 0
 305 557 282 576 247 576 c 0
 184 576 172 539 155 539 c 0
 146 539 140 545 140 553 c 0xfa
592 477 m 2
 153 63 l 2
 143 53 139 51 133 51 c 0
 123 51 117 58 117 67 c 0
 117 76 121 80 130 88 c 2
 568 502 l 2
 579 512 582 514 588 514 c 0
 595 514 604 509 604 499 c 0
 604 493 601 486 592 477 c 2
456 13 m 0
 456 33 473 36 491 36 c 2
 518 36 l 1
 530 93 l 1
 381 93 l 1
 388 127 l 1
 562 345 l 1
 619 345 l 1
 573 129 l 1
 586 129 l 2
 598 129 605 122 605 114 c 0
 605 104 595 93 575 93 c 2
 566 93 l 1
 554 36 l 1
 567 36 l 2
 579 36 585 29 585 21 c 0
 585 11 575 0 559 0 c 2
 474 0 l 2
 463 0 456 5 456 13 c 0
537 129 m 1
 576 309 l 1
 574 309 l 1
 428 129 l 1
 537 129 l 1
EndSplineSet
Validated: 1
LCarets2: 2 0 0 
EndChar

StartChar: questiondown
Encoding: 191 191 136
Width: 600
Flags: W
HStem: -175 41<188.281 365.66> 317 100<321.425 433.575>
VStem: 105 42<-96.6986 22.4551> 306 143<333.25 400.375>
DStem2: 240.856 -175 281.595 -175 0.207912 0.978148<324.772 397.724> 388.058 -175 428.585 -175 0.207912 0.978148<63.5917 137.027>
LayerCount: 2
Fore
SplineSet
439 -126 m 1
 331 -175 283 -175 254 -175 c 0
 162 -175 105 -128 105 -55 c 0
 105 40 166 93 311 155 c 1
 320 196 l 2
 324 214 332 223 345 223 c 0
 356 223 362 217 362 206 c 0
 362 203 362 200 361 196 c 2
 346 128 l 1
 215 78 147 36 147 -43 c 0
 147 -97 194 -134 268 -134 c 0
 313 -134 345 -126 404 -100 c 1
 412 -59 l 2
 416 -41 425 -32 438 -32 c 0
 449 -32 455 -38 455 -49 c 0
 455 -52 454 -55 453 -59 c 2
 439 -126 l 1
449 378 m 0
 449 340 416 317 380 317 c 2
 353 317 l 2
 323 317 306 333 306 356 c 0
 306 393 339 417 375 417 c 2
 402 417 l 2
 432 417 449 402 449 378 c 0
EndSplineSet
Validated: 1
EndChar

StartChar: Agrave
Encoding: 192 192 137
Width: 600
Flags: W
HStem: 0 41<12.5585 76 117 218.296 384.558 493 536 595.296> 188 41<227 462> 522 41<213.558 357 397 412>
DStem2: 76 41 117 41 0.504429 0.863453<20.6816 190.486 238.498 557.066> 463 680 336 749 0.681013 -0.732272<-154.008 15.5279> 450 563 412 522 0.16256 -0.986699<34.2774 331.508 372.938 522.047>
LayerCount: 2
Fore
SplineSet
384 16 m 0
 384 26 391 41 417 41 c 2
 493 41 l 1
 468 188 l 1
 202 188 l 1
 117 41 l 1
 196 41 l 2
 211 41 219 36 219 26 c 0
 219 16 212 0 187 0 c 2
 36 0 l 2
 20 0 12 5 12 16 c 0
 12 26 19 41 45 41 c 2
 76 41 l 1
 357 522 l 1
 237 522 l 2
 221 522 213 527 213 538 c 0
 213 548 220 563 246 563 c 2
 450 563 l 1
 536 41 l 1
 573 41 l 2
 588 41 596 36 596 26 c 0
 596 16 589 0 564 0 c 2
 408 0 l 2
 392 0 384 5 384 16 c 0
462 229 m 1
 412 522 l 1
 397 522 l 1
 227 229 l 1
 462 229 l 1
471 666 m 0
 471 652 459 640 445 640 c 0
 440 640 435 643 429 649 c 2
 336 749 l 2
 330 756 328 760 328 765 c 0
 328 780 343 789 353 789 c 0
 359 789 363 786 370 780 c 1
 463 680 l 2
 468 674 471 671 471 666 c 0
EndSplineSet
Validated: 1
EndChar

StartChar: Aacute
Encoding: 193 193 138
Width: 600
Flags: W
HStem: 0 41<12.5585 76 117 218.296 384.558 493 536 595.296> 188 41<227 462> 522 41<213.558 357 397 412>
DStem2: 76 41 117 41 0.504429 0.863453<20.6816 190.486 238.498 557.066> 450 563 412 522 0.16256 -0.986699<34.2774 331.508 372.938 522.047> 510 780 395 649 0.803557 0.595228<-192.39 22.0055>
LayerCount: 2
Fore
SplineSet
384 16 m 0
 384 26 391 41 417 41 c 2
 493 41 l 1
 468 188 l 1
 202 188 l 1
 117 41 l 1
 196 41 l 2
 211 41 219 36 219 26 c 0
 219 16 212 0 187 0 c 2
 36 0 l 2
 20 0 12 5 12 16 c 0
 12 26 19 41 45 41 c 2
 76 41 l 1
 357 522 l 1
 237 522 l 2
 221 522 213 527 213 538 c 0
 213 548 220 563 246 563 c 2
 450 563 l 1
 536 41 l 1
 573 41 l 2
 588 41 596 36 596 26 c 0
 596 16 589 0 564 0 c 2
 408 0 l 2
 392 0 384 5 384 16 c 0
462 229 m 1
 412 522 l 1
 397 522 l 1
 227 229 l 1
 462 229 l 1
547 773 m 0
 547 759 535 752 530 749 c 2
 395 649 l 2
 384 642 380 640 374 640 c 0
 364 640 358 647 358 657 c 0
 358 666 364 671 375 680 c 2
 510 780 l 2
 520 787 525 789 531 789 c 0
 540 789 547 783 547 773 c 0
EndSplineSet
Validated: 1
EndChar

StartChar: Acircumflex
Encoding: 194 194 139
Width: 600
Flags: W
HStem: 0 41<12.5585 76 117 218.296 384.558 493 536 595.296> 188 41<227 462> 522 41<213.558 357 397 412>
DStem2: 76 41 117 41 0.504429 0.863453<20.6816 190.486 238.498 557.066> 286 680 304 648 0.81799 0.575232<-24.4511 149.186> 450 563 412 522 0.16256 -0.986699<34.2774 331.508 372.938 522.047> 441 789 429 736 0.710358 -0.703841<28.7793 170.23>
LayerCount: 2
Fore
SplineSet
384 16 m 0
 384 26 391 41 417 41 c 2
 493 41 l 1
 468 188 l 1
 202 188 l 1
 117 41 l 1
 196 41 l 2
 211 41 219 36 219 26 c 0
 219 16 212 0 187 0 c 2
 36 0 l 2
 20 0 12 5 12 16 c 0
 12 26 19 41 45 41 c 2
 76 41 l 1
 357 522 l 1
 237 522 l 2
 221 522 213 527 213 538 c 0
 213 548 220 563 246 563 c 2
 450 563 l 1
 536 41 l 1
 573 41 l 2
 588 41 596 36 596 26 c 0
 596 16 589 0 564 0 c 2
 408 0 l 2
 392 0 384 5 384 16 c 0
462 229 m 1
 412 522 l 1
 397 522 l 1
 227 229 l 1
 462 229 l 1
559 666 m 0
 559 654 549 640 534 640 c 0
 529 640 524 643 518 648 c 2
 429 736 l 1
 304 648 l 2
 296 643 289 640 284 640 c 0
 274 640 268 647 268 656 c 0
 268 671 283 678 286 680 c 2
 441 789 l 1
 550 681 l 2
 557 674 559 671 559 666 c 0
EndSplineSet
Validated: 1
EndChar

StartChar: Atilde
Encoding: 195 195 140
Width: 600
Flags: W
HStem: 0 41<12.5585 76 117 218.296 384.558 493 536 595.296> 188 41<227 462> 522 41<213.558 357 397 412> 666 41<440.288 528.602> 714 41<318.975 408.801>
DStem2: 76 41 117 41 0.504429 0.863453<20.6816 190.486 238.498 557.066> 450 563 412 522 0.16256 -0.986699<34.2774 331.508 372.938 522.047>
LayerCount: 2
Fore
SplineSet
384 16 m 0
 384 26 391 41 417 41 c 2
 493 41 l 1
 468 188 l 1
 202 188 l 1
 117 41 l 1
 196 41 l 2
 211 41 219 36 219 26 c 0
 219 16 212 0 187 0 c 2
 36 0 l 2
 20 0 12 5 12 16 c 0
 12 26 19 41 45 41 c 2
 76 41 l 1
 357 522 l 1
 237 522 l 2
 221 522 213 527 213 538 c 0
 213 548 220 563 246 563 c 2
 450 563 l 1
 536 41 l 1
 573 41 l 2
 588 41 596 36 596 26 c 0
 596 16 589 0 564 0 c 2
 408 0 l 2
 392 0 384 5 384 16 c 0
462 229 m 1
 412 522 l 1
 397 522 l 1
 227 229 l 1
 462 229 l 1
485 707 m 0
 521 707 547 753 568 753 c 0
 577 753 584 746 584 736 c 0
 584 720 522 666 479 666 c 0
 427 666 399 714 365 714 c 0
 323 714 305 669 280 669 c 0
 270 669 264 675 264 684 c 0
 264 704 325 755 372 755 c 0
 420 755 451 707 485 707 c 0
EndSplineSet
Validated: 1
EndChar

StartChar: Adieresis
Encoding: 196 196 141
Width: 600
Flags: W
HStem: 0 41<12.5585 76 117 218.296 384.558 493 536 595.296> 188 41<227 462> 522 41<213.558 357 397 412> 661 100<278.845 347.826 499.845 568.587>
VStem: 262 102<677.107 743.965> 483 102<677.449 743.965>
DStem2: 76 41 117 41 0.504429 0.863453<20.6816 190.486 238.498 557.066> 450 563 412 522 0.16256 -0.986699<34.2774 331.508 372.938 522.047>
LayerCount: 2
Fore
SplineSet
384 16 m 0
 384 26 391 41 417 41 c 2
 493 41 l 1
 468 188 l 1
 202 188 l 1
 117 41 l 1
 196 41 l 2
 211 41 219 36 219 26 c 0
 219 16 212 0 187 0 c 2
 36 0 l 2
 20 0 12 5 12 16 c 0
 12 26 19 41 45 41 c 2
 76 41 l 1
 357 522 l 1
 237 522 l 2
 221 522 213 527 213 538 c 0
 213 548 220 563 246 563 c 2
 450 563 l 1
 536 41 l 1
 573 41 l 2
 588 41 596 36 596 26 c 0
 596 16 589 0 564 0 c 2
 408 0 l 2
 392 0 384 5 384 16 c 0
462 229 m 1
 412 522 l 1
 397 522 l 1
 227 229 l 1
 462 229 l 1
262 701 m 0
 262 727 289 761 324 761 c 0
 348 761 364 744 364 721 c 0
 364 686 330 661 302 661 c 0
 279 661 262 679 262 701 c 0
483 701 m 0
 483 727 510 761 545 761 c 0
 569 761 585 744 585 721 c 0
 585 686 550 661 524 661 c 0
 500 661 483 678 483 701 c 0
EndSplineSet
Validated: 1
EndChar

StartChar: Aring
Encoding: 197 197 142
Width: 600
Flags: W
HStem: 0 41<12.5585 76 117 218.296 384.558 493 536 595.296> 188 41<227 462> 522 41<213.558 357 397 412> 630 33<379.852 461.884> 778 33<398.337 480.148>
VStem: 335 34<674.157 749.958> 491 34<691.228 766.653>
DStem2: 76 41 117 41 0.504429 0.863453<20.6816 190.486 238.498 557.066> 450 563 412 522 0.16256 -0.986699<34.2774 331.508 372.938 522.047>
LayerCount: 2
Fore
SplineSet
384 16 m 0
 384 26 391 41 417 41 c 2
 493 41 l 1
 468 188 l 1
 202 188 l 1
 117 41 l 1
 196 41 l 2
 211 41 219 36 219 26 c 0
 219 16 212 0 187 0 c 2
 36 0 l 2
 20 0 12 5 12 16 c 0
 12 26 19 41 45 41 c 2
 76 41 l 1
 357 522 l 1
 237 522 l 2
 221 522 213 527 213 538 c 0
 213 548 220 563 246 563 c 2
 450 563 l 1
 536 41 l 1
 573 41 l 2
 588 41 596 36 596 26 c 0
 596 16 589 0 564 0 c 2
 408 0 l 2
 392 0 384 5 384 16 c 0
462 229 m 1
 412 522 l 1
 397 522 l 1
 227 229 l 1
 462 229 l 1
335 703 m 0
 335 763 396 811 449 811 c 0
 494 811 525 781 525 739 c 0
 525 678 465 630 411 630 c 0
 366 630 335 662 335 703 c 0
418 663 m 0
 460 663 491 701 491 732 c 0
 491 758 471 778 442 778 c 0
 400 778 369 740 369 709 c 0
 369 683 389 663 418 663 c 0
EndSplineSet
Validated: 1
EndChar

StartChar: AE
Encoding: 198 198 143
Width: 600
Flags: W
HStem: 0 41<13.5585 83 124 172.296 221.558 306 347 558> 189 41<216 337> 273 41<405 474> 522 41<231.558 318 358 408 449 640>
DStem2: 83 41 124 41 0.438976 0.898499<17.998 182.582 228.2 535.337> 297.285 0 338.285 0 0.207912 0.978148<50.4403 193.127 235.102 287.558 329.534 533.612> 415.711 0 455.711 0 0.207912 0.978148<242.622 279.153 321.128 368.91> 528.639 0 569.639 0 0.207912 0.978148<411.308 533.746> 549.285 0 590 0 0.207912 0.978148<41.916 154.232>
LayerCount: 2
Fore
SplineSet
221 16 m 0
 221 26 228 41 254 41 c 2
 306 41 l 1
 337 189 l 1
 196 189 l 1
 124 41 l 1
 150 41 l 2
 165 41 173 36 173 26 c 0
 173 16 166 0 141 0 c 2
 37 0 l 2
 21 0 13 5 13 16 c 0
 13 26 20 41 46 41 c 2
 83 41 l 1
 318 522 l 1
 255 522 l 2
 239 522 231 527 231 538 c 0
 231 548 238 563 264 563 c 2
 690 563 l 1
 657 411 l 2
 654 393 645 384 631 384 c 0
 620 384 615 390 615 402 c 0
 615 405 615 408 616 411 c 2
 640 522 l 1
 449 522 l 1
 405 314 l 1
 483 314 l 1
 489 342 l 2
 493 360 501 369 514 369 c 0
 525 369 530 364 530 353 c 0
 530 350 530 346 529 342 c 2
 508 246 l 2
 504 228 496 219 483 219 c 0
 472 219 467 226 467 237 c 0
 467 240 467 243 468 246 c 2
 474 273 l 1
 396 273 l 1
 347 41 l 1
 558 41 l 1
 577 134 l 1
 582 153 589 160 603 160 c 0
 613 160 619 153 619 143 c 0
 619 140 619 137 618 134 c 2
 590 0 l 1
 245 0 l 2
 229 0 221 5 221 16 c 0
346 230 m 1
 408 522 l 1
 358 522 l 1
 216 230 l 1
 346 230 l 1
EndSplineSet
Validated: 1
EndChar

StartChar: Ccedilla
Encoding: 199 199 144
Width: 600
Flags: W
HStem: -173 38<219.897 317.435> -81 34<307 322.223> -16 41<314 416.496> 535 41<332.712 506.402> 543 20G<612 624>
VStem: 109 43<116.007 317.555> 323 38<-127.434 -83.1102> 567 42<397.659 431.584> 568 66<423.662 552.5>
DStem2: 25.789 -173 67.5137 -173 0.207912 0.978148<393.734 611.352>
LayerCount: 2
Fore
SplineSet
327 25 m 0xf680
 459 25 512 125 541 125 c 0
 551 125 557 119 557 110 c 0
 557 79 431 -16 327 -16 c 2
 314 -16 l 1
 307 -47 l 1
 342 -48 361 -64 361 -92 c 0
 361 -141 319 -173 266 -173 c 0
 254 -173 187 -163 187 -136 c 0
 187 -126 196 -114 211 -114 c 0
 224 -114 241 -135 272 -135 c 0
 297 -135 323 -123 323 -100 c 0
 323 -87 309 -81 282 -81 c 2
 262 -81 l 1
 276 -12 l 1
 177 14 109 91 109 197 c 0
 109 212 111 227 114 242 c 2
 132 325 l 2
 153 424 261 576 427 576 c 0xf680
 493 576 548 552 586 507 c 1
 592 536 l 2
 596 554 605 563 619 563 c 0
 629 563 634 558 634 547 c 0xee80
 634 544 634 540 633 536 c 2
 609 424 l 2
 605 406 596 397 582 397 c 0
 572 397 567 403 567 415 c 0xef
 567 422 568 423 568 432 c 0
 568 488 503 535 419 535 c 0
 308 535 197 438 172 319 c 2
 157 248 l 2
 154 232 152 217 152 202 c 0
 152 103 224 25 327 25 c 0xf680
EndSplineSet
Validated: 1
EndChar

StartChar: Egrave
Encoding: 200 200 145
Width: 600
Flags: W
HStem: 0 41<45.4774 133 174 488> 272 41<232 368> 522 41<156.477 235 276 569>
DStem2: 124.285 0 165.285 0 0.207912 0.978148<50.4403 286.58 328.555 533.612> 309.75 0 350.75 0 0.207912 0.978148<222.219 278.167 320.142 385.384> 474 680 347 749 0.681013 -0.732272<-154.537 16.8714> 457.876 0 498.876 0 0.207912 0.978148<422.643 533.697> 479.285 0 520 0 0.207912 0.978148<41.916 182.867>
LayerCount: 2
Fore
SplineSet
223 272 m 1
 174 41 l 1
 488 41 l 1
 513 160 l 2
 517 178 526 187 540 187 c 0
 550 187 555 182 555 171 c 0
 555 168 555 164 554 160 c 2
 520 0 l 1
 70 0 l 2
 53 0 45 8 45 17 c 0
 45 28 57 41 79 41 c 2
 133 41 l 1
 235 522 l 1
 181 522 l 2
 164 522 156 530 156 539 c 0
 156 550 168 563 190 563 c 2
 619 563 l 1
 589 424 l 2
 585 406 576 397 562 397 c 0
 552 397 547 402 547 413 c 0
 547 416 547 420 548 424 c 2
 569 522 l 1
 276 522 l 1
 232 313 l 1
 377 313 l 1
 386 358 l 2
 390 376 399 385 413 385 c 0
 423 385 428 380 428 369 c 0
 428 366 428 362 427 358 c 2
 399 227 l 2
 395 209 387 200 374 200 c 0
 363 200 357 206 357 217 c 0
 357 220 357 223 358 227 c 2
 368 272 l 1
 223 272 l 1
381 780 m 1
 474 680 l 2
 479 674 482 668 482 663 c 0
 482 649 466 640 456 640 c 0
 451 640 446 643 440 649 c 2
 347 749 l 2
 341 756 339 762 339 767 c 0
 339 781 355 789 364 789 c 0
 370 789 374 786 381 780 c 1
EndSplineSet
Validated: 1
EndChar

StartChar: Eacute
Encoding: 201 201 146
Width: 600
Flags: W
HStem: 0 41<45.4774 133 174 488> 272 41<232 368> 522 41<156.477 235 276 569>
DStem2: 124.285 0 165.285 0 0.207912 0.978148<50.4403 286.58 328.555 533.612> 309.75 0 350.75 0 0.207912 0.978148<222.219 278.167 320.142 385.384> 457.876 0 498.876 0 0.207912 0.978148<422.643 533.697> 479.285 0 520 0 0.207912 0.978148<41.916 182.867> 528 780 413 649 0.803557 0.595228<-192.39 22.0055>
LayerCount: 2
Fore
SplineSet
223 272 m 1
 174 41 l 1
 488 41 l 1
 513 160 l 2
 517 178 526 187 540 187 c 0
 550 187 555 182 555 171 c 0
 555 168 555 164 554 160 c 2
 520 0 l 1
 70 0 l 2
 53 0 45 8 45 17 c 0
 45 28 57 41 79 41 c 2
 133 41 l 1
 235 522 l 1
 181 522 l 2
 164 522 156 530 156 539 c 0
 156 550 168 563 190 563 c 2
 619 563 l 1
 589 424 l 2
 585 406 576 397 562 397 c 0
 552 397 547 402 547 413 c 0
 547 416 547 420 548 424 c 2
 569 522 l 1
 276 522 l 1
 232 313 l 1
 377 313 l 1
 386 358 l 2
 390 376 399 385 413 385 c 0
 423 385 428 380 428 369 c 0
 428 366 428 362 427 358 c 2
 399 227 l 2
 395 209 387 200 374 200 c 0
 363 200 357 206 357 217 c 0
 357 220 357 223 358 227 c 2
 368 272 l 1
 223 272 l 1
548 749 m 2
 413 649 l 2
 402 642 398 640 392 640 c 0
 382 640 376 647 376 657 c 0
 376 666 382 671 393 680 c 2
 528 780 l 2
 538 787 543 789 549 789 c 0
 557 789 565 783 565 774 c 0
 565 767 560 758 548 749 c 2
EndSplineSet
Validated: 1
EndChar

StartChar: Ecircumflex
Encoding: 202 202 147
Width: 600
Flags: W
HStem: 0 41<45.4774 133 174 488> 272 41<232 368> 522 41<156.477 235 276 569>
DStem2: 124.285 0 165.285 0 0.207912 0.978148<50.4403 286.58 328.555 533.612> 309.75 0 350.75 0 0.207912 0.978148<222.219 278.167 320.142 385.384> 459 789 447 736 0.710358 -0.703841<28.7793 170.768> 457.876 0 498.876 0 0.207912 0.978148<422.643 533.697> 459 789 322 648 0.81799 0.575232<-213.94 -40.3032> 479.285 0 520 0 0.207912 0.978148<41.916 182.867>
LayerCount: 2
Fore
SplineSet
223 272 m 1
 174 41 l 1
 488 41 l 1
 513 160 l 2
 517 178 526 187 540 187 c 0
 550 187 555 182 555 171 c 0
 555 168 555 164 554 160 c 2
 520 0 l 1
 70 0 l 2
 53 0 45 8 45 17 c 0
 45 28 57 41 79 41 c 2
 133 41 l 1
 235 522 l 1
 181 522 l 2
 164 522 156 530 156 539 c 0
 156 550 168 563 190 563 c 2
 619 563 l 1
 589 424 l 2
 585 406 576 397 562 397 c 0
 552 397 547 402 547 413 c 0
 547 416 547 420 548 424 c 2
 569 522 l 1
 276 522 l 1
 232 313 l 1
 377 313 l 1
 386 358 l 2
 390 376 399 385 413 385 c 0
 423 385 428 380 428 369 c 0
 428 366 428 362 427 358 c 2
 399 227 l 2
 395 209 387 200 374 200 c 0
 363 200 357 206 357 217 c 0
 357 220 357 223 358 227 c 2
 368 272 l 1
 223 272 l 1
459 789 m 1
 568 681 l 2
 574 675 577 669 577 663 c 0
 577 650 563 640 552 640 c 0
 547 640 542 643 536 648 c 2
 447 736 l 1
 322 648 l 2
 314 643 307 640 302 640 c 0
 293 640 286 647 286 656 c 0
 286 663 291 672 304 680 c 2
 459 789 l 1
EndSplineSet
Validated: 1
EndChar

StartChar: Edieresis
Encoding: 203 203 148
Width: 600
Flags: W
HStem: 0 41<46.5585 133 174 488> 272 41<232 368> 522 41<157.558 235 276 569> 661 100<297.845 366.587 518.845 587.826>
VStem: 281 102<677.449 743.965> 502 102<677.107 743.965>
DStem2: 124.285 0 165.285 0 0.207912 0.978148<50.4403 286.58 328.555 533.612> 309.75 0 350.75 0 0.207912 0.978148<222.219 278.167 320.142 385.384> 457.876 0 498.876 0 0.207912 0.978148<422.643 533.697> 479.285 0 520 0 0.207912 0.978148<41.916 182.867>
LayerCount: 2
Fore
SplineSet
157 538 m 0
 157 548 164 563 190 563 c 2
 619 563 l 1
 589 424 l 2
 585 406 576 397 562 397 c 0
 552 397 547 402 547 413 c 0
 547 416 547 420 548 424 c 2
 569 522 l 1
 276 522 l 1
 232 313 l 1
 377 313 l 1
 386 358 l 2
 390 376 399 385 413 385 c 0
 423 385 428 380 428 369 c 0
 428 366 428 362 427 358 c 2
 399 227 l 2
 395 209 387 200 374 200 c 0
 363 200 357 206 357 217 c 0
 357 220 357 223 358 227 c 2
 368 272 l 1
 223 272 l 1
 174 41 l 1
 488 41 l 1
 513 160 l 2
 517 178 526 187 540 187 c 0
 550 187 555 182 555 171 c 0
 555 168 555 164 554 160 c 2
 520 0 l 1
 70 0 l 2
 54 0 46 5 46 16 c 0
 46 26 53 41 79 41 c 2
 133 41 l 1
 235 522 l 1
 181 522 l 2
 165 522 157 527 157 538 c 0
281 701 m 0
 281 727 308 761 343 761 c 0
 367 761 383 744 383 721 c 0
 383 686 348 661 322 661 c 0
 298 661 281 678 281 701 c 0
502 701 m 0
 502 727 529 761 564 761 c 0
 588 761 604 744 604 721 c 0
 604 686 570 661 542 661 c 0
 519 661 502 679 502 701 c 0
EndSplineSet
Validated: 1
EndChar

StartChar: Igrave
Encoding: 204 204 149
Width: 600
Flags: W
HStem: 0 41<116.558 288 329 491.291> 522 41<227.558 390 431 602.268>
DStem2: 279.285 0 320.285 0 0.207912 0.978148<50.4403 533.612> 489 680 362 749 0.681013 -0.732272<-154.008 15.5279>
LayerCount: 2
Fore
SplineSet
603 548 m 0
 603 539 597 522 570 522 c 2
 431 522 l 1
 329 41 l 1
 468 41 l 2
 484 41 492 36 492 26 c 0
 492 16 485 0 459 0 c 2
 140 0 l 2
 124 0 116 5 116 16 c 0
 116 26 123 41 149 41 c 2
 288 41 l 1
 390 522 l 1
 251 522 l 2
 235 522 227 527 227 538 c 0
 227 548 234 563 260 563 c 2
 579 563 l 2
 595 563 603 558 603 548 c 0
497 666 m 0
 497 652 485 640 471 640 c 0
 466 640 461 643 455 649 c 2
 362 749 l 2
 356 756 354 760 354 765 c 0
 354 780 369 789 379 789 c 0
 385 789 389 786 396 780 c 1
 489 680 l 2
 494 674 497 671 497 666 c 0
EndSplineSet
Validated: 1
EndChar

StartChar: Iacute
Encoding: 205 205 150
Width: 600
Flags: W
HStem: 0 41<116.558 288 329 491.291> 522 41<227.558 390 431 602.268>
DStem2: 279.285 0 320.285 0 0.207912 0.978148<50.4403 533.612> 572 780 457 649 0.803557 0.595228<-192.39 22.0055>
LayerCount: 2
Fore
SplineSet
603 548 m 0
 603 539 597 522 570 522 c 2
 431 522 l 1
 329 41 l 1
 468 41 l 2
 484 41 492 36 492 26 c 0
 492 16 485 0 459 0 c 2
 140 0 l 2
 124 0 116 5 116 16 c 0
 116 26 123 41 149 41 c 2
 288 41 l 1
 390 522 l 1
 251 522 l 2
 235 522 227 527 227 538 c 0
 227 548 234 563 260 563 c 2
 579 563 l 2
 595 563 603 558 603 548 c 0
609 773 m 0
 609 759 597 752 592 749 c 2
 457 649 l 2
 446 642 442 640 436 640 c 0
 426 640 420 647 420 657 c 0
 420 666 426 671 437 680 c 2
 572 780 l 2
 582 787 587 789 593 789 c 0
 602 789 609 783 609 773 c 0
EndSplineSet
Validated: 1
EndChar

StartChar: Icircumflex
Encoding: 206 206 151
Width: 600
Flags: W
HStem: 0 41<116.558 288 329 491.291> 522 41<227.558 390 431 602.268>
DStem2: 279.285 0 320.285 0 0.207912 0.978148<50.4403 533.612> 313 680 331 648 0.81799 0.575232<-24.4511 149.186> 468 789 456 736 0.710358 -0.703841<28.7793 170.23>
LayerCount: 2
Fore
SplineSet
603 548 m 0
 603 539 597 522 570 522 c 2
 431 522 l 1
 329 41 l 1
 468 41 l 2
 484 41 492 36 492 26 c 0
 492 16 485 0 459 0 c 2
 140 0 l 2
 124 0 116 5 116 16 c 0
 116 26 123 41 149 41 c 2
 288 41 l 1
 390 522 l 1
 251 522 l 2
 235 522 227 527 227 538 c 0
 227 548 234 563 260 563 c 2
 579 563 l 2
 595 563 603 558 603 548 c 0
586 666 m 0
 586 654 576 640 561 640 c 0
 556 640 551 643 545 648 c 2
 456 736 l 1
 331 648 l 2
 323 643 316 640 311 640 c 0
 301 640 295 647 295 656 c 0
 295 671 310 678 313 680 c 2
 468 789 l 1
 577 681 l 2
 584 674 586 671 586 666 c 0
EndSplineSet
Validated: 1
EndChar

StartChar: Idieresis
Encoding: 207 207 152
Width: 600
Flags: W
HStem: 0 41<116.558 288 329 491.291> 522 41<227.558 390 431 602.268> 661 100<305.845 374.587 527.845 596.587>
VStem: 289 102<677.449 743.965> 511 102<677.449 743.965>
DStem2: 279.285 0 320.285 0 0.207912 0.978148<50.4403 533.612>
LayerCount: 2
Fore
SplineSet
603 548 m 0
 603 539 597 522 570 522 c 2
 431 522 l 1
 329 41 l 1
 468 41 l 2
 484 41 492 36 492 26 c 0
 492 16 485 0 459 0 c 2
 140 0 l 2
 124 0 116 5 116 16 c 0
 116 26 123 41 149 41 c 2
 288 41 l 1
 390 522 l 1
 251 522 l 2
 235 522 227 527 227 538 c 0
 227 548 234 563 260 563 c 2
 579 563 l 2
 595 563 603 558 603 548 c 0
289 701 m 0
 289 727 316 761 351 761 c 0
 375 761 391 744 391 721 c 0
 391 686 356 661 330 661 c 0
 306 661 289 678 289 701 c 0
511 701 m 0
 511 727 538 761 573 761 c 0
 597 761 613 744 613 721 c 0
 613 686 578 661 552 661 c 0
 528 661 511 678 511 701 c 0
EndSplineSet
Validated: 1
EndChar

StartChar: Eth
Encoding: 208 208 153
Width: 600
Flags: W
HStem: 0 41<46.5585 113 154 377.636> 272 41<61.5585 162 212 396.296> 522 41<157.558 215 256 479.819>
VStem: 551 41<293.1 444.031>
DStem2: 104.285 0 145.285 0 0.207912 0.978148<50.4403 278.056 328.555 533.612> 478.924 0 520.011 0 0.207912 0.978148<163.864 364.476>
LayerCount: 2
Fore
SplineSet
46 16 m 0
 46 26 53 41 79 41 c 2
 113 41 l 1
 162 272 l 1
 85 272 l 2
 69 272 61 277 61 288 c 0
 61 298 68 313 94 313 c 2
 171 313 l 1
 215 522 l 1
 181 522 l 2
 165 522 157 527 157 538 c 0
 157 548 164 563 190 563 c 2
 410 563 l 2
 518 563 592 478 592 366 c 0
 592 348 590 329 586 310 c 2
 574 254 l 2
 544 115 416 0 290 0 c 2
 70 0 l 2
 54 0 46 5 46 16 c 0
397 298 m 0
 397 288 390 272 365 272 c 2
 203 272 l 1
 154 41 l 1
 304 41 l 2
 398 41 509 140 531 245 c 2
 547 319 l 2
 549 330 551 343 551 358 c 0
 551 426 519 522 399 522 c 2
 256 522 l 1
 212 313 l 1
 374 313 l 2
 389 313 397 308 397 298 c 0
EndSplineSet
Validated: 1
EndChar

StartChar: Ntilde
Encoding: 209 209 154
Width: 600
Flags: W
HStem: 0 41<45.5585 112 153 250.296> 522 41<136.558 214 472.562 571 612 677.296> 666 41<465.288 553.602> 714 41<343.975 433.801>
DStem2: 103.285 0 144.285 0 0.207912 0.978148<50.4403 523.698> 275 563 251 504 0.365652 -0.930752<46.1387 541.498> 460.459 0 501 0 0.207912 0.978148<60.3181 533.576>
LayerCount: 2
Fore
SplineSet
678 548 m 0
 678 538 671 522 646 522 c 2
 612 522 l 1
 501 0 l 1
 449 0 l 1
 251 504 l 1
 153 41 l 1
 228 41 l 2
 243 41 251 36 251 26 c 0
 251 16 244 0 219 0 c 2
 69 0 l 2
 53 0 45 5 45 16 c 0
 45 26 52 41 78 41 c 2
 112 41 l 1
 214 522 l 1
 160 522 l 2
 144 522 136 527 136 538 c 0
 136 548 143 563 169 563 c 2
 275 563 l 1
 473 59 l 1
 571 522 l 1
 497 522 l 2
 481 522 472 527 472 538 c 0
 472 548 479 563 506 563 c 2
 655 563 l 2
 670 563 678 558 678 548 c 0
510 707 m 0
 546 707 572 753 593 753 c 0
 602 753 609 746 609 736 c 0
 609 720 547 666 504 666 c 0
 452 666 424 714 390 714 c 0
 348 714 330 669 305 669 c 0
 295 669 289 675 289 684 c 0
 289 704 350 755 397 755 c 0
 445 755 476 707 510 707 c 0
EndSplineSet
Validated: 1
EndChar

StartChar: Ograve
Encoding: 210 210 155
Width: 600
Flags: W
HStem: -16 41<229.881 387.443> 535 41<330.986 489.586>
VStem: 103 42<117.696 325.035> 574 43<234.287 444.51>
DStem2: 483 680 356 749 0.681013 -0.732272<-154.008 15.5279>
LayerCount: 2
Fore
SplineSet
103 205 m 0
 103 390 255 576 422 576 c 0
 540 576 617 484 617 354 c 0
 617 157 454 -16 297 -16 c 0
 180 -16 103 77 103 205 c 0
305 25 m 0
 435 25 574 176 574 344 c 0
 574 455 511 535 414 535 c 0
 275 535 145 374 145 216 c 0
 145 106 209 25 305 25 c 0
491 666 m 0
 491 652 479 640 465 640 c 0
 460 640 455 643 449 649 c 2
 356 749 l 2
 350 756 348 760 348 765 c 0
 348 780 363 789 373 789 c 0
 379 789 383 786 390 780 c 1
 483 680 l 2
 488 674 491 671 491 666 c 0
EndSplineSet
Validated: 1
EndChar

StartChar: Oacute
Encoding: 211 211 156
Width: 600
Flags: W
HStem: -16 41<229.881 387.443> 535 41<330.986 489.586>
VStem: 103 42<117.696 325.035> 574 43<234.287 444.51>
DStem2: 408 680 428 649 0.803557 0.595228<-24.3869 190.008>
LayerCount: 2
Fore
SplineSet
103 205 m 0
 103 390 255 576 422 576 c 0
 540 576 617 484 617 354 c 0
 617 157 454 -16 297 -16 c 0
 180 -16 103 77 103 205 c 0
305 25 m 0
 435 25 574 176 574 344 c 0
 574 455 511 535 414 535 c 0
 275 535 145 374 145 216 c 0
 145 106 209 25 305 25 c 0
580 773 m 0
 580 759 568 752 563 749 c 2
 428 649 l 2
 417 642 413 640 407 640 c 0
 398 640 391 646 391 656 c 0
 391 670 402 675 408 680 c 2
 543 780 l 2
 553 787 558 789 564 789 c 0
 573 789 580 783 580 773 c 0
EndSplineSet
Validated: 1
EndChar

StartChar: Ocircumflex
Encoding: 212 212 157
Width: 600
Flags: W
HStem: -16 41<229.881 387.443> 535 41<330.986 489.586>
VStem: 103 42<117.696 325.035> 574 43<234.287 444.51>
DStem2: 313 680 331 648 0.81799 0.575232<-24.4511 149.186> 468 789 456 736 0.710358 -0.703841<28.7793 170.23>
LayerCount: 2
Fore
SplineSet
103 205 m 0
 103 390 255 576 422 576 c 0
 540 576 617 484 617 354 c 0
 617 157 454 -16 297 -16 c 0
 180 -16 103 77 103 205 c 0
305 25 m 0
 435 25 574 176 574 344 c 0
 574 455 511 535 414 535 c 0
 275 535 145 374 145 216 c 0
 145 106 209 25 305 25 c 0
586 666 m 0
 586 654 576 640 561 640 c 0
 556 640 551 643 545 648 c 2
 456 736 l 1
 331 648 l 2
 323 643 316 640 311 640 c 0
 301 640 295 647 295 656 c 0
 295 671 310 678 313 680 c 2
 468 789 l 1
 577 681 l 2
 584 674 586 671 586 666 c 0
EndSplineSet
Validated: 1
EndChar

StartChar: Otilde
Encoding: 213 213 158
Width: 600
Flags: W
HStem: -16 41<229.881 387.443> 535 41<330.986 489.586> 666 41<473.288 561.602> 714 41<351.975 441.801>
VStem: 103 42<117.696 325.035> 574 43<234.287 444.51>
LayerCount: 2
Fore
SplineSet
103 205 m 0
 103 390 255 576 422 576 c 0
 540 576 617 484 617 354 c 0
 617 157 454 -16 297 -16 c 0
 180 -16 103 77 103 205 c 0
305 25 m 0
 435 25 574 176 574 344 c 0
 574 455 511 535 414 535 c 0
 275 535 145 374 145 216 c 0
 145 106 209 25 305 25 c 0
518 707 m 0
 554 707 580 753 601 753 c 0
 610 753 617 746 617 736 c 0
 617 720 555 666 512 666 c 0
 460 666 432 714 398 714 c 0
 356 714 338 669 313 669 c 0
 303 669 297 675 297 684 c 0
 297 704 358 755 405 755 c 0
 453 755 484 707 518 707 c 0
EndSplineSet
Validated: 1
EndChar

StartChar: Odieresis
Encoding: 214 214 159
Width: 600
Flags: W
HStem: -16 41<229.881 387.443> 535 41<330.986 489.586> 661 100<305.845 374.587 526.845 595.826>
VStem: 103 42<117.696 325.035> 289 102<677.449 743.965> 510 102<677.107 743.965> 574 43<234.287 444.51>
LayerCount: 2
Fore
SplineSet
103 205 m 0xfa
 103 390 255 576 422 576 c 0
 540 576 617 484 617 354 c 0
 617 157 454 -16 297 -16 c 0
 180 -16 103 77 103 205 c 0xfa
305 25 m 0
 435 25 574 176 574 344 c 0
 574 455 511 535 414 535 c 0
 275 535 145 374 145 216 c 0
 145 106 209 25 305 25 c 0
289 701 m 0
 289 727 316 761 351 761 c 0
 375 761 391 744 391 721 c 0
 391 686 356 661 330 661 c 0
 306 661 289 678 289 701 c 0
510 701 m 0xfc
 510 727 537 761 572 761 c 0
 596 761 612 744 612 721 c 0
 612 686 578 661 550 661 c 0
 527 661 510 679 510 701 c 0xfc
EndSplineSet
Validated: 1
EndChar

StartChar: multiply
Encoding: 215 215 160
Width: 600
Flags: W
DStem2: 158 139 181 110 0.770875 0.636986<-23.0825 223.708 269.904 516.695> 253 453 218 424 0.619806 -0.784755<-15.1902 181.473 219.551 416.835>
LayerCount: 2
Fore
SplineSet
366 311 m 1
 538 453 l 2
 549 462 554 464 560 464 c 0
 569 464 577 457 577 448 c 0
 577 438 571 432 561 424 c 2
 389 282 l 1
 501 139 l 2
 506 133 508 128 508 123 c 0
 508 110 493 100 482 100 c 0
 476 100 472 102 465 110 c 2
 354 253 l 1
 181 110 l 2
 172 103 166 100 160 100 c 0
 150 100 143 106 143 115 c 0
 143 129 156 137 158 139 c 2
 331 282 l 1
 218 424 l 2
 214 430 213 436 213 441 c 0
 213 455 224 464 238 464 c 0
 244 464 247 461 253 453 c 2
 366 311 l 1
EndSplineSet
Validated: 1
EndChar

StartChar: Oslash
Encoding: 216 216 161
Width: 600
Flags: W
HStem: -16 41<229.101 386.395> 535 41<329.625 489.974> 585 20G<667.5 675.5>
VStem: 102 43<116.048 322.764> 575 42<235.785 441.18>
DStem2: 46 -9 69 -31 0.708278 0.705933<-21.6434 117.434 171.828 680.998 734.684 875.884>
LayerCount: 2
Fore
SplineSet
617 353 m 0
 617 166 461 -16 297 -16 c 0
 237 -16 187 7 152 51 c 1
 69 -31 l 2
 60 -40 55 -43 49 -43 c 0
 40 -43 35 -37 35 -29 c 0
 35 -21 40 -15 46 -9 c 2
 134 78 l 1
 113 117 102 159 102 204 c 0
 102 385 250 576 422 576 c 0
 482 576 527 555 566 510 c 1
 650 593 l 2
 659 602 664 605 671 605 c 0
 680 605 685 599 685 591 c 0
 685 583 681 579 673 571 c 2
 585 483 l 1
 606 447 617 402 617 353 c 0
414 535 m 0
 273 535 145 369 145 216 c 0
 145 180 153 145 168 112 c 1
 533 476 l 1
 502 516 463 535 414 535 c 0
305 25 m 0
 438 25 575 180 575 343 c 0
 575 381 567 417 551 449 c 1
 185 84 l 1
 216 45 256 25 305 25 c 0
EndSplineSet
Validated: 1
EndChar

StartChar: Ugrave
Encoding: 217 217 162
Width: 600
Flags: W
HStem: -16 41<232.373 384.04> 522 41<154.497 212 253 358.296 471.435 569 610 675.361>
VStem: 135 42<78.3691 215.636>
DStem2: 97.2761 -16 138.276 -16 0.207912 0.978148<179.453 550.096> 486 680 359 749 0.681013 -0.732272<-154.008 16.8714> 454.276 -16 495.276 -16 0.207912 0.978148<122.859 550.096>
LayerCount: 2
Fore
SplineSet
676 549 m 0
 676 538 671 522 644 522 c 2
 610 522 l 1
 538 185 l 2
 514 71 409 -16 297 -16 c 0
 199 -16 135 49 135 140 c 0
 135 155 137 170 140 185 c 2
 212 522 l 1
 178 522 l 2
 162 522 154 527 154 538 c 0
 154 548 160 563 187 563 c 2
 336 563 l 2
 351 563 359 558 359 548 c 0
 359 538 352 522 327 522 c 2
 253 522 l 1
 181 185 l 2
 178 173 177 161 177 150 c 0
 177 77 228 25 305 25 c 0
 393 25 478 95 497 185 c 2
 569 522 l 1
 495 522 l 2
 479 522 471 527 471 538 c 0
 471 548 476 563 504 563 c 2
 653 563 l 2
 669 563 676 559 676 549 c 0
393 780 m 1
 486 680 l 2
 492 673 494 670 494 664 c 0
 494 655 484 640 468 640 c 0
 463 640 458 643 452 649 c 2
 359 749 l 2
 353 756 351 760 351 765 c 0
 351 780 366 789 376 789 c 0
 382 789 386 786 393 780 c 1
EndSplineSet
Validated: 1
EndChar

StartChar: Uacute
Encoding: 218 218 163
Width: 600
Flags: W
HStem: -16 41<232.373 384.04> 522 41<154.497 212 253 358.296 471.435 569 610 675.361>
VStem: 135 42<78.3691 215.636>
DStem2: 97.2761 -16 138.276 -16 0.207912 0.978148<179.453 550.096> 454.276 -16 495.276 -16 0.207912 0.978148<122.859 550.096> 540 780 425 649 0.803557 0.595228<-192.39 22.0055>
LayerCount: 2
Fore
SplineSet
676 549 m 0
 676 538 671 522 644 522 c 2
 610 522 l 1
 538 185 l 2
 514 71 409 -16 297 -16 c 0
 199 -16 135 49 135 140 c 0
 135 155 137 170 140 185 c 2
 212 522 l 1
 178 522 l 2
 162 522 154 527 154 538 c 0
 154 548 160 563 187 563 c 2
 336 563 l 2
 351 563 359 558 359 548 c 0
 359 538 352 522 327 522 c 2
 253 522 l 1
 181 185 l 2
 178 173 177 161 177 150 c 0
 177 77 228 25 305 25 c 0
 393 25 478 95 497 185 c 2
 569 522 l 1
 495 522 l 2
 479 522 471 527 471 538 c 0
 471 548 476 563 504 563 c 2
 653 563 l 2
 669 563 676 559 676 549 c 0
577 773 m 0
 577 759 565 752 560 749 c 2
 425 649 l 2
 414 642 410 640 404 640 c 0
 394 640 388 647 388 657 c 0
 388 666 394 671 405 680 c 2
 540 780 l 2
 550 787 555 789 561 789 c 0
 570 789 577 783 577 773 c 0
EndSplineSet
Validated: 1
EndChar

StartChar: Ucircumflex
Encoding: 219 219 164
Width: 600
Flags: W
HStem: -16 41<232.373 384.04> 522 41<154.497 212 253 358.296 471.435 569 610 675.361>
VStem: 135 42<78.3691 215.636>
DStem2: 97.2761 -16 138.276 -16 0.207912 0.978148<179.453 550.096> 313 680 331 648 0.81799 0.575232<-24.4511 149.186> 454.276 -16 495.276 -16 0.207912 0.978148<122.859 550.096> 468 789 456 736 0.710358 -0.703841<28.7793 170.23>
LayerCount: 2
Fore
SplineSet
676 549 m 0
 676 538 671 522 644 522 c 2
 610 522 l 1
 538 185 l 2
 514 71 409 -16 297 -16 c 0
 199 -16 135 49 135 140 c 0
 135 155 137 170 140 185 c 2
 212 522 l 1
 178 522 l 2
 162 522 154 527 154 538 c 0
 154 548 160 563 187 563 c 2
 336 563 l 2
 351 563 359 558 359 548 c 0
 359 538 352 522 327 522 c 2
 253 522 l 1
 181 185 l 2
 178 173 177 161 177 150 c 0
 177 77 228 25 305 25 c 0
 393 25 478 95 497 185 c 2
 569 522 l 1
 495 522 l 2
 479 522 471 527 471 538 c 0
 471 548 476 563 504 563 c 2
 653 563 l 2
 669 563 676 559 676 549 c 0
586 666 m 0
 586 654 576 640 561 640 c 0
 556 640 551 643 545 648 c 2
 456 736 l 1
 331 648 l 2
 323 643 316 640 311 640 c 0
 301 640 295 647 295 656 c 0
 295 671 310 678 313 680 c 2
 468 789 l 1
 577 681 l 2
 584 674 586 671 586 666 c 0
EndSplineSet
Validated: 1
EndChar

StartChar: Udieresis
Encoding: 220 220 165
Width: 600
Flags: W
HStem: -16 41<232.373 384.04> 522 41<154.497 212 253 358.296 471.435 569 610 675.361> 661 100<305.845 374.587 526.845 595.826>
VStem: 135 42<78.3691 215.636> 289 102<677.449 743.965> 510 102<677.107 743.965>
DStem2: 97.2761 -16 138.276 -16 0.207912 0.978148<179.453 550.096> 454.276 -16 495.276 -16 0.207912 0.978148<122.859 550.096>
LayerCount: 2
Fore
SplineSet
676 549 m 0
 676 538 671 522 644 522 c 2
 610 522 l 1
 538 185 l 2
 514 71 409 -16 297 -16 c 0
 199 -16 135 49 135 140 c 0
 135 155 137 170 140 185 c 2
 212 522 l 1
 178 522 l 2
 162 522 154 527 154 538 c 0
 154 548 160 563 187 563 c 2
 336 563 l 2
 351 563 359 558 359 548 c 0
 359 538 352 522 327 522 c 2
 253 522 l 1
 181 185 l 2
 178 173 177 161 177 150 c 0
 177 77 228 25 305 25 c 0
 393 25 478 95 497 185 c 2
 569 522 l 1
 495 522 l 2
 479 522 471 527 471 538 c 0
 471 548 476 563 504 563 c 2
 653 563 l 2
 669 563 676 559 676 549 c 0
289 701 m 0
 289 727 316 761 351 761 c 0
 375 761 391 744 391 721 c 0
 391 686 356 661 330 661 c 0
 306 661 289 678 289 701 c 0
510 701 m 0
 510 727 537 761 572 761 c 0
 596 761 612 744 612 721 c 0
 612 686 578 661 550 661 c 0
 527 661 510 679 510 701 c 0
EndSplineSet
Validated: 1
EndChar

StartChar: Yacute
Encoding: 221 221 166
Width: 600
Flags: W
HStem: 0 41<152.558 290 331 458.296> 522 41<165.558 213 262 331.296 498.562 563 609 664.25>
DStem2: 262 522 213 522 0.414315 -0.910134<0 249.689> 281.285 0 322.285 0 0.207912 0.978148<50.4403 259.617> 366 295 376 254 0.656109 0.754666<0 300.563> 540 780 425 649 0.803557 0.595228<-192.39 22.0055>
LayerCount: 2
Fore
SplineSet
665 548 m 0
 665 537 657 522 633 522 c 2
 609 522 l 1
 376 254 l 1
 331 41 l 1
 436 41 l 2
 451 41 459 36 459 26 c 0
 459 16 452 0 427 0 c 2
 176 0 l 2
 160 0 152 5 152 16 c 0
 152 26 159 41 185 41 c 2
 290 41 l 1
 335 254 l 1
 213 522 l 1
 189 522 l 2
 173 522 165 527 165 538 c 0
 165 548 172 563 198 563 c 2
 309 563 l 2
 324 563 332 558 332 548 c 0
 332 538 325 522 300 522 c 2
 262 522 l 1
 366 295 l 1
 563 522 l 1
 523 522 l 2
 507 522 498 527 498 538 c 0
 498 548 505 563 532 563 c 2
 642 563 l 2
 657 563 665 557 665 548 c 0
577 773 m 0
 577 759 565 752 560 749 c 2
 425 649 l 2
 414 642 410 640 404 640 c 0
 394 640 388 647 388 657 c 0
 388 666 394 671 405 680 c 2
 540 780 l 2
 550 787 555 789 561 789 c 0
 570 789 577 783 577 773 c 0
EndSplineSet
Validated: 1
EndChar

StartChar: Thorn
Encoding: 222 222 167
Width: 600
Flags: W
HStem: 0 41<46.5585 133 174 335.291> 131 41<202 422.707> 422 41<263 475.745> 522 41<157.558 235 276 446.268>
VStem: 524 41<258.869 377.578>
DStem2: 124.285 0 165.285 0 0.207912 0.978148<50.4403 142.424 184.399 439.955 481.723 533.612>
LayerCount: 2
Fore
SplineSet
565 330 m 0
 565 226 456 131 324 131 c 2
 193 131 l 1
 174 41 l 1
 312 41 l 2
 328 41 336 36 336 26 c 0
 336 16 329 0 303 0 c 2
 70 0 l 2
 54 0 46 5 46 16 c 0
 46 26 53 41 79 41 c 2
 133 41 l 1
 235 522 l 1
 181 522 l 2
 165 522 157 527 157 538 c 0
 157 548 164 563 190 563 c 2
 423 563 l 2
 439 563 447 558 447 548 c 0
 447 539 441 522 414 522 c 2
 276 522 l 1
 263 463 l 1
 408 463 l 2
 502 463 565 407 565 330 c 0
336 172 m 2
 436 172 524 243 524 321 c 0
 524 378 474 422 404 422 c 2
 255 422 l 1
 202 172 l 1
 336 172 l 2
EndSplineSet
Validated: 1
EndChar

StartChar: germandbls
Encoding: 223 223 168
Width: 600
Flags: W
HStem: -16 41<329.081 422.931> 0 41<46.5585 133 174 211.296> 334 41<321.485 417.431> 563 41<317.078 442.7>
VStem: 277 43<33.174 123.024> 471 42<422.64 535.751> 496 42<111.182 267.414>
DStem2: 120.884 -16 161.884 -16 0.207912 0.978148<66.7978 568.973>
LayerCount: 2
Fore
SplineSet
370 25 m 0xba
 435 25 496 117 496 198 c 0xba
 496 290 412 334 350 334 c 2
 345 334 l 2
 329 334 321 339 321 350 c 0
 321 365 335 375 350 375 c 2
 355 375 l 2
 403 375 471 415 471 480 c 0
 471 527 437 563 386 563 c 0
 330 563 277 525 266 476 c 2
 174 41 l 1
 189 41 l 2
 204 41 212 36 212 26 c 0
 212 16 205 0 180 0 c 2
 70 0 l 2
 54 0 46 5 46 16 c 0
 46 26 53 41 79 41 c 2
 133 41 l 1
 225 476 l 2
 240 547 316 604 394 604 c 0
 464 604 513 555 513 490 c 0x7c
 513 411 458 375 430 359 c 1
 502 327 538 277 538 209 c 0
 538 106 461 -16 362 -16 c 0
 311 -16 277 21 277 73 c 0
 277 98 283 124 305 124 c 0
 316 124 322 118 322 107 c 0
 322 102 320 94 320 81 c 0
 320 46 337 25 370 25 c 0xba
EndSplineSet
Validated: 1
EndChar

StartChar: agrave
Encoding: 224 224 169
Width: 600
Flags: W
HStem: -16 41<159.995 327.655> 0 41<469 545.296> 217 41<223.276 460.911> 390 41<267.787 459.912>
VStem: 93 42<48.5761 149.159> 486 42<237.594 365.294>
DStem2: 440 530 313 599 0.681013 -0.732272<-153.275 16.8714> 415.358 -16 456.884 -16 0.207912 0.978148<66.9073 84.8543 109.991 222.934 258.624 346.05>
LayerCount: 2
Fore
SplineSet
93 86 m 0xbc
 93 189 206 258 338 258 c 0
 384 258 414 253 469 237 c 1
 484 308 l 2
 485 313 486 318 486 323 c 0
 486 364 444 390 379 390 c 0
 315 390 232 358 220 358 c 0
 210 358 204 365 204 374 c 0
 204 383 211 394 227 399 c 0
 286 418 354 431 391 431 c 0
 474 431 528 390 528 331 c 0
 528 324 527 316 525 308 c 2
 469 41 l 1
 523 41 l 2
 538 41 546 36 546 26 c 0
 546 16 539 0 514 0 c 2
 419 0 l 1x7c
 433 67 l 1
 360 10 295 -16 225 -16 c 0
 143 -16 93 24 93 86 c 0xbc
337 217 m 0
 225 217 135 168 135 94 c 0
 135 52 171 25 232 25 c 0xbc
 303 25 362 49 443 112 c 1
 462 202 l 1
 428 211 381 217 337 217 c 0
305 614 m 0
 305 626 316 639 330 639 c 0
 336 639 340 636 347 630 c 1
 440 530 l 2
 446 523 448 520 448 514 c 0
 448 505 438 490 422 490 c 0
 417 490 412 493 406 499 c 2
 313 599 l 2
 308 605 305 609 305 614 c 0
EndSplineSet
Validated: 1
EndChar

StartChar: aacute
Encoding: 225 225 170
Width: 600
Flags: W
HStem: -16 41<159.995 327.655> 0 41<469 545.296> 217 41<223.276 460.911> 390 41<267.787 459.912>
VStem: 93 42<48.5761 149.159> 486 42<237.594 365.294>
DStem2: 359 530 379 499 0.803557 0.595228<-24.3864 190.008> 415.358 -16 456.884 -16 0.207912 0.978148<66.9073 84.8543 109.991 222.934 258.624 346.05>
LayerCount: 2
Fore
SplineSet
93 86 m 0xbc
 93 189 206 258 338 258 c 0
 384 258 414 253 469 237 c 1
 484 308 l 2
 485 313 486 318 486 323 c 0
 486 364 444 390 379 390 c 0
 315 390 232 358 220 358 c 0
 210 358 204 365 204 374 c 0
 204 383 211 394 227 399 c 0
 286 418 354 431 391 431 c 0
 474 431 528 390 528 331 c 0
 528 324 527 316 525 308 c 2
 469 41 l 1
 523 41 l 2
 538 41 546 36 546 26 c 0
 546 16 539 0 514 0 c 2
 419 0 l 1x7c
 433 67 l 1
 360 10 295 -16 225 -16 c 0
 143 -16 93 24 93 86 c 0xbc
337 217 m 0
 225 217 135 168 135 94 c 0
 135 52 171 25 232 25 c 0xbc
 303 25 362 49 443 112 c 1
 462 202 l 1
 428 211 381 217 337 217 c 0
531 623 m 0
 531 609 519 602 514 599 c 2
 379 499 l 2
 369 492 364 490 358 490 c 0
 349 490 342 496 342 506 c 0
 342 520 353 525 359 530 c 2
 494 630 l 2
 504 637 509 639 515 639 c 0
 524 639 531 633 531 623 c 0
EndSplineSet
Validated: 1
EndChar

StartChar: acircumflex
Encoding: 226 226 171
Width: 600
Flags: W
HStem: -16 41<159.995 327.655> 0 41<469 545.296> 217 41<223.276 460.911> 390 41<267.787 459.912>
VStem: 93 42<48.5761 149.159> 486 42<237.594 365.294>
DStem2: 271 530 289 498 0.81799 0.575232<-24.4511 150.004> 426 639 415 586 0.710358 -0.703841<29.4896 170.23> 415.358 -16 456.884 -16 0.207912 0.978148<66.9073 84.8543 109.991 222.934 258.624 346.05>
LayerCount: 2
Fore
SplineSet
93 86 m 0xbc
 93 189 206 258 338 258 c 0
 384 258 414 253 469 237 c 1
 484 308 l 2
 485 313 486 318 486 323 c 0
 486 364 444 390 379 390 c 0
 315 390 232 358 220 358 c 0
 210 358 204 365 204 374 c 0
 204 383 211 394 227 399 c 0
 286 418 354 431 391 431 c 0
 474 431 528 390 528 331 c 0
 528 324 527 316 525 308 c 2
 469 41 l 1
 523 41 l 2
 538 41 546 36 546 26 c 0
 546 16 539 0 514 0 c 2
 419 0 l 1x7c
 433 67 l 1
 360 10 295 -16 225 -16 c 0
 143 -16 93 24 93 86 c 0xbc
337 217 m 0
 225 217 135 168 135 94 c 0
 135 52 171 25 232 25 c 0xbc
 303 25 362 49 443 112 c 1
 462 202 l 1
 428 211 381 217 337 217 c 0
544 516 m 0
 544 504 534 490 519 490 c 0
 514 490 509 493 503 498 c 2
 415 586 l 1
 289 498 l 2
 281 493 274 490 269 490 c 0
 259 490 253 497 253 506 c 0
 253 521 268 528 271 530 c 2
 426 639 l 1
 535 531 l 2
 542 524 544 521 544 516 c 0
EndSplineSet
Validated: 1
EndChar

StartChar: atilde
Encoding: 227 227 172
Width: 600
Flags: W
HStem: -16 41<159.995 327.655> 0 41<469 545.296> 217 41<223.276 460.911> 390 41<267.787 459.912> 516 41<425.491 513.602> 564 41<304.106 394.205>
VStem: 93 42<48.5761 149.159> 486 42<237.594 365.294>
DStem2: 415.358 -16 456.884 -16 0.207912 0.978148<66.9073 84.8543 109.991 222.934 258.624 346.05>
LayerCount: 2
Fore
SplineSet
93 86 m 0xbf
 93 189 206 258 338 258 c 0
 384 258 414 253 469 237 c 1
 484 308 l 2
 485 313 486 318 486 323 c 0
 486 364 444 390 379 390 c 0
 315 390 232 358 220 358 c 0
 210 358 204 365 204 374 c 0
 204 383 211 394 227 399 c 0
 286 418 354 431 391 431 c 0
 474 431 528 390 528 331 c 0
 528 324 527 316 525 308 c 2
 469 41 l 1
 523 41 l 2
 538 41 546 36 546 26 c 0
 546 16 539 0 514 0 c 2
 419 0 l 1x7f
 433 67 l 1
 360 10 295 -16 225 -16 c 0
 143 -16 93 24 93 86 c 0xbf
337 217 m 0
 225 217 135 168 135 94 c 0
 135 52 171 25 232 25 c 0xbf
 303 25 362 49 443 112 c 1
 462 202 l 1
 428 211 381 217 337 217 c 0
470 557 m 0
 506 557 532 603 553 603 c 0
 562 603 569 596 569 586 c 0
 569 570 507 516 464 516 c 0
 412 516 384 564 350 564 c 0
 308 564 290 519 265 519 c 0
 255 519 249 525 249 534 c 0
 249 552 310 605 358 605 c 0
 406 605 436 557 470 557 c 0
EndSplineSet
Validated: 1
EndChar

StartChar: adieresis
Encoding: 228 228 173
Width: 600
Flags: W
HStem: -16 41<159.995 327.655> 0 41<469 545.296> 217 41<223.276 460.911> 390 41<267.787 459.912> 511 100<262.886 332.91 483.886 553.91>
VStem: 93 42<48.5761 149.159> 247 102<526.892 594.25> 468 102<526.892 594.25> 486 42<237.594 365.294>
DStem2: 415.358 -16 456.884 -16 0.207912 0.978148<66.9073 84.8543 109.991 222.934 258.624 346.05>
LayerCount: 2
Fore
SplineSet
93 86 m 0xbe80
 93 189 206 258 338 258 c 0
 384 258 414 253 469 237 c 1
 484 308 l 2
 485 313 486 318 486 323 c 0
 486 364 444 390 379 390 c 0
 315 390 232 358 220 358 c 0
 210 358 204 365 204 374 c 0
 204 383 211 394 227 399 c 0
 286 418 354 431 391 431 c 0
 474 431 528 390 528 331 c 0
 528 324 527 316 525 308 c 2
 469 41 l 1
 523 41 l 2
 538 41 546 36 546 26 c 0
 546 16 539 0 514 0 c 2
 419 0 l 1x7e80
 433 67 l 1
 360 10 295 -16 225 -16 c 0
 143 -16 93 24 93 86 c 0xbe80
337 217 m 0
 225 217 135 168 135 94 c 0
 135 52 171 25 232 25 c 0xbe
 303 25 362 49 443 112 c 1
 462 202 l 1
 428 211 381 217 337 217 c 0
247 552 m 0
 247 586 283 611 309 611 c 0
 333 611 349 594 349 571 c 0
 349 536 315 511 288 511 c 0
 264 511 247 529 247 552 c 0
468 552 m 0x3f
 468 586 504 611 530 611 c 0
 554 611 570 594 570 571 c 0
 570 536 536 511 509 511 c 0
 485 511 468 529 468 552 c 0x3f
EndSplineSet
Validated: 1
EndChar

StartChar: aring
Encoding: 229 229 174
Width: 600
Flags: W
HStem: -16 41<159.995 327.655> 0 41<469 545.296> 217 41<223.276 460.911> 390 41<267.787 459.912> 480 33<361.218 443.084> 628 33<378.735 461.148>
VStem: 93 42<48.5761 149.159> 316 34<524.203 601.019> 472 34<540.434 616.653> 486 42<237.594 365.294>
DStem2: 415.358 -16 456.884 -16 0.207912 0.978148<66.9073 84.8543 109.991 222.934 258.624 346.05>
LayerCount: 2
Fore
SplineSet
93 86 m 0xbf40
 93 189 206 258 338 258 c 0
 384 258 414 253 469 237 c 1
 484 308 l 2
 485 313 486 318 486 323 c 0
 486 364 444 390 379 390 c 0
 315 390 232 358 220 358 c 0
 210 358 204 365 204 374 c 0
 204 383 211 394 227 399 c 0
 286 418 354 431 391 431 c 0
 474 431 528 390 528 331 c 0
 528 324 527 316 525 308 c 2
 469 41 l 1
 523 41 l 2
 538 41 546 36 546 26 c 0
 546 16 539 0 514 0 c 2
 419 0 l 1x7f40
 433 67 l 1
 360 10 295 -16 225 -16 c 0
 143 -16 93 24 93 86 c 0xbf40
337 217 m 0
 225 217 135 168 135 94 c 0
 135 52 171 25 232 25 c 0xbf
 303 25 362 49 443 112 c 1
 462 202 l 1
 428 211 381 217 337 217 c 0
316 553 m 0
 316 605 370 661 430 661 c 0
 475 661 506 631 506 589 c 0x3f80
 506 528 446 480 392 480 c 0
 347 480 316 512 316 553 c 0
399 513 m 0
 432 513 472 541 472 582 c 0
 472 608 452 628 423 628 c 0
 383 628 350 592 350 560 c 0
 350 533 370 513 399 513 c 0
EndSplineSet
Validated: 1
EndChar

StartChar: ae
Encoding: 230 230 175
Width: 600
Flags: W
HStem: -16 41<104.807 226.305 398.23 509.71> 199 41<251.312 323 371 587.191> 216 41<150.755 321.849> 390 41<196.334 327.244 454.153 565.805>
VStem: 36 44<48.7501 158.305> 588 41<240.59 366.962>
LayerCount: 2
Fore
SplineSet
592 70 m 0xdc
 592 49 503 -16 441 -16 c 0
 395 -16 355 12 333 61 c 1
 326 27 l 2
 322 9 313 0 300 0 c 0
 290 0 284 6 284 17 c 0
 284 20 285 23 286 27 c 2
 291 52 l 1
 242 5 201 -16 157 -16 c 0
 84 -16 36 31 36 98 c 0
 36 207 148 257 250 257 c 0xbc
 278 257 305 253 332 245 c 1
 345 305 l 2
 346 311 347 316 347 322 c 0
 347 361 318 390 275 390 c 0
 219 390 179 358 166 358 c 0
 158 358 151 367 151 375 c 0
 151 397 226 431 291 431 c 0
 340 431 378 398 386 347 c 1
 421 399 474 431 522 431 c 0
 599 431 629 375 629 292 c 0
 629 264 625 233 619 199 c 1
 361 199 l 1
 359 184 358 170 358 157 c 0
 358 78 394 25 451 25 c 0
 507 25 555 87 576 87 c 0
 586 87 592 79 592 70 c 0xdc
247 216 m 0
 179 216 80 185 80 100 c 0
 80 55 114 25 167 25 c 0
 204 25 243 50 303 110 c 1
 323 203 l 1
 298 211 270 216 247 216 c 0
371 240 m 1xdc
 586 240 l 1
 587 256 588 272 588 286 c 0
 588 346 573 390 512 390 c 0
 452 390 405 340 371 240 c 1xdc
EndSplineSet
Validated: 1
EndChar

StartChar: ccedilla
Encoding: 231 231 176
Width: 600
Flags: W
HStem: -173 38<217.938 315.163> -81 34<305 320.223> -16 41<231.991 274 312 424.797> 390 41<302.265 484.034> 397 20G<573 585>
VStem: 122 42<87.9187 254.511> 321 38<-126.815 -83.1337> 532 42<271.374 301.766> 533 62<291.459 405.5>
LayerCount: 2
Fore
SplineSet
532 288 m 0xef
 532 292 533 297 533 302 c 0
 533 351 474 390 394 390 c 0
 277 390 164 299 164 163 c 0
 164 80 222 25 316 25 c 0
 389 25 457 49 519 97 c 0
 529 105 532 107 539 107 c 0
 548 107 554 100 554 91 c 0
 554 66 464 -8 312 -16 c 1
 305 -47 l 1
 340 -48 359 -64 359 -92 c 0
 359 -143 315 -173 264 -173 c 0
 249 -173 184 -162 184 -137 c 0
 184 -124 198 -114 209 -114 c 0
 222 -114 239 -135 270 -135 c 0
 297 -135 321 -122 321 -101 c 0
 321 -88 308 -81 281 -81 c 2
 260 -81 l 1
 274 -14 l 1
 178 0 122 63 122 153 c 0
 122 318 262 431 406 431 c 0xf680
 468 431 517 412 550 376 c 1
 553 389 l 2
 557 408 566 417 580 417 c 0
 590 417 595 411 595 400 c 0xee80
 595 397 595 393 594 389 c 2
 574 298 l 2
 570 280 562 271 549 271 c 0
 538 271 532 276 532 288 c 0xef
EndSplineSet
Validated: 1
EndChar

StartChar: egrave
Encoding: 232 232 177
Width: 600
Flags: W
HStem: -16 41<222.534 424.023> 199 41<155 529> 390 41<280.738 460.015>
VStem: 104 41<100.168 194.354> 529 42<240.697 324.431>
DStem2: 455 530 328 599 0.681013 -0.732272<-153.275 16.8714>
LayerCount: 2
Fore
SplineSet
530 70 m 0
 530 31 391 -16 302 -16 c 0
 184 -16 104 62 104 169 c 0
 104 305 231 431 383 431 c 0
 510 431 571 343 571 259 c 0
 571 243 568 225 562 199 c 1
 146 199 l 1
 146 193 145 187 145 182 c 0
 145 87 209 25 311 25 c 0
 373 25 451 47 498 79 c 0
 506 84 510 86 515 86 c 0
 524 86 530 79 530 70 c 0
155 240 m 1
 529 240 l 1
 529 246 l 2
 529 334 469 390 374 390 c 0
 277 390 193 332 155 240 c 1
320 614 m 0
 320 626 331 639 345 639 c 0
 351 639 355 636 362 630 c 1
 455 530 l 2
 461 523 463 520 463 514 c 0
 463 505 453 490 437 490 c 0
 432 490 427 493 421 499 c 2
 328 599 l 2
 323 605 320 609 320 614 c 0
EndSplineSet
Validated: 1
EndChar

StartChar: eacute
Encoding: 233 233 178
Width: 600
Flags: W
HStem: -16 41<222.534 424.023> 199 41<155 529> 390 41<280.738 460.015>
VStem: 104 41<100.168 194.354> 529 42<240.697 324.431>
DStem2: 374 530 394 499 0.803557 0.595228<-24.3864 190.008>
LayerCount: 2
Fore
SplineSet
530 70 m 0
 530 31 391 -16 302 -16 c 0
 184 -16 104 62 104 169 c 0
 104 305 231 431 383 431 c 0
 510 431 571 343 571 259 c 0
 571 243 568 225 562 199 c 1
 146 199 l 1
 146 193 145 187 145 182 c 0
 145 87 209 25 311 25 c 0
 373 25 451 47 498 79 c 0
 506 84 510 86 515 86 c 0
 524 86 530 79 530 70 c 0
155 240 m 1
 529 240 l 1
 529 246 l 2
 529 334 469 390 374 390 c 0
 277 390 193 332 155 240 c 1
546 623 m 0
 546 609 534 602 529 599 c 2
 394 499 l 2
 384 492 379 490 373 490 c 0
 364 490 357 496 357 506 c 0
 357 520 368 525 374 530 c 2
 509 630 l 2
 519 637 524 639 530 639 c 0
 539 639 546 633 546 623 c 0
EndSplineSet
Validated: 1
EndChar

StartChar: ecircumflex
Encoding: 234 234 179
Width: 600
Flags: W
HStem: -16 41<222.534 424.023> 199 41<155 529> 390 41<280.738 460.015>
VStem: 104 41<100.168 194.354> 529 42<240.697 324.431>
DStem2: 286 530 304 498 0.81799 0.575232<-24.4511 150.004> 441 639 430 586 0.710358 -0.703841<29.4896 170.23>
LayerCount: 2
Fore
SplineSet
530 70 m 0
 530 31 391 -16 302 -16 c 0
 184 -16 104 62 104 169 c 0
 104 305 231 431 383 431 c 0
 510 431 571 343 571 259 c 0
 571 243 568 225 562 199 c 1
 146 199 l 1
 146 193 145 187 145 182 c 0
 145 87 209 25 311 25 c 0
 373 25 451 47 498 79 c 0
 506 84 510 86 515 86 c 0
 524 86 530 79 530 70 c 0
155 240 m 1
 529 240 l 1
 529 246 l 2
 529 334 469 390 374 390 c 0
 277 390 193 332 155 240 c 1
559 516 m 0
 559 504 549 490 534 490 c 0
 529 490 524 493 518 498 c 2
 430 586 l 1
 304 498 l 2
 296 493 289 490 284 490 c 0
 274 490 268 497 268 506 c 0
 268 521 283 528 286 530 c 2
 441 639 l 1
 550 531 l 2
 557 524 559 521 559 516 c 0
EndSplineSet
Validated: 1
EndChar

StartChar: edieresis
Encoding: 235 235 180
Width: 600
Flags: W
HStem: -16 41<222.534 424.023> 199 41<155 529> 390 41<280.738 460.015> 511 100<277.886 347.91 498.886 568.91>
VStem: 104 41<100.168 194.354> 262 102<526.892 594.25> 483 102<526.892 594.25> 529 42<240.697 324.431>
LayerCount: 2
Fore
SplineSet
530 70 m 0xfd
 530 31 391 -16 302 -16 c 0
 184 -16 104 62 104 169 c 0
 104 305 231 431 383 431 c 0
 510 431 571 343 571 259 c 0
 571 243 568 225 562 199 c 1
 146 199 l 1
 146 193 145 187 145 182 c 0
 145 87 209 25 311 25 c 0
 373 25 451 47 498 79 c 0
 506 84 510 86 515 86 c 0
 524 86 530 79 530 70 c 0xfd
155 240 m 1
 529 240 l 1
 529 246 l 2
 529 334 469 390 374 390 c 0
 277 390 193 332 155 240 c 1
262 552 m 0
 262 586 298 611 324 611 c 0
 348 611 364 594 364 571 c 0
 364 536 330 511 303 511 c 0
 279 511 262 529 262 552 c 0
483 552 m 0xfe
 483 586 519 611 545 611 c 0
 569 611 585 594 585 571 c 0
 585 536 551 511 524 511 c 0
 500 511 483 529 483 552 c 0xfe
EndSplineSet
Validated: 1
EndChar

StartChar: igrave
Encoding: 236 236 181
Width: 600
Flags: W
HStem: 0 41<95.5585 288 329 512.291> 376 41<217.558 359>
DStem2: 279.285 0 320.285 0 0.207912 0.978148<50.4403 384.357> 444 530 317 599 0.681013 -0.732272<-153.275 16.8714>
LayerCount: 2
Fore
SplineSet
217 392 m 0
 217 402 224 417 250 417 c 2
 409 417 l 1
 329 41 l 1
 489 41 l 2
 505 41 513 36 513 26 c 0
 513 16 506 0 480 0 c 2
 119 0 l 2
 103 0 95 5 95 16 c 0
 95 26 102 41 128 41 c 2
 288 41 l 1
 359 376 l 1
 241 376 l 2
 225 376 217 381 217 392 c 0
309 614 m 0
 309 626 320 639 334 639 c 0
 340 639 344 636 351 630 c 1
 444 530 l 2
 450 523 452 520 452 514 c 0
 452 505 442 490 426 490 c 0
 421 490 416 493 410 499 c 2
 317 599 l 2
 312 605 309 609 309 614 c 0
EndSplineSet
Validated: 1
EndChar

StartChar: iacute
Encoding: 237 237 182
Width: 600
Flags: W
HStem: 0 41<95.5585 288 329 512.291> 376 41<217.558 359>
DStem2: 279.285 0 320.285 0 0.207912 0.978148<50.4403 384.357> 363 530 383 499 0.803557 0.595228<-24.3864 190.008>
LayerCount: 2
Fore
SplineSet
217 392 m 0
 217 402 224 417 250 417 c 2
 409 417 l 1
 329 41 l 1
 489 41 l 2
 505 41 513 36 513 26 c 0
 513 16 506 0 480 0 c 2
 119 0 l 2
 103 0 95 5 95 16 c 0
 95 26 102 41 128 41 c 2
 288 41 l 1
 359 376 l 1
 241 376 l 2
 225 376 217 381 217 392 c 0
535 623 m 0
 535 609 523 602 518 599 c 2
 383 499 l 2
 373 492 368 490 362 490 c 0
 353 490 346 496 346 506 c 0
 346 520 357 525 363 530 c 2
 498 630 l 2
 508 637 513 639 519 639 c 0
 528 639 535 633 535 623 c 0
EndSplineSet
Validated: 1
EndChar

StartChar: icircumflex
Encoding: 238 238 183
Width: 600
Flags: W
HStem: 0 41<95.5585 288 329 512.291> 376 41<217.558 359>
DStem2: 264 530 282 498 0.81799 0.575232<-24.4511 150.004> 279.285 0 320.285 0 0.207912 0.978148<50.4403 384.357> 419 639 408 586 0.710358 -0.703841<29.4896 170.23>
LayerCount: 2
Fore
SplineSet
217 392 m 0
 217 402 224 417 250 417 c 2
 409 417 l 1
 329 41 l 1
 489 41 l 2
 505 41 513 36 513 26 c 0
 513 16 506 0 480 0 c 2
 119 0 l 2
 103 0 95 5 95 16 c 0
 95 26 102 41 128 41 c 2
 288 41 l 1
 359 376 l 1
 241 376 l 2
 225 376 217 381 217 392 c 0
537 516 m 0
 537 504 527 490 512 490 c 0
 507 490 502 493 496 498 c 2
 408 586 l 1
 282 498 l 2
 274 493 267 490 262 490 c 0
 252 490 246 497 246 506 c 0
 246 521 261 528 264 530 c 2
 419 639 l 1
 528 531 l 2
 535 524 537 521 537 516 c 0
EndSplineSet
Validated: 1
EndChar

StartChar: idieresis
Encoding: 239 239 184
Width: 600
Flags: W
HStem: 0 41<95.5585 288 329 512.291> 376 41<217.558 359> 511 100<259.886 329.91 481.886 551.91>
VStem: 244 102<526.892 594.25> 466 102<526.892 594.25>
DStem2: 279.285 0 320.285 0 0.207912 0.978148<50.4403 384.357>
LayerCount: 2
Fore
SplineSet
217 392 m 0
 217 402 224 417 250 417 c 2
 409 417 l 1
 329 41 l 1
 489 41 l 2
 505 41 513 36 513 26 c 0
 513 16 506 0 480 0 c 2
 119 0 l 2
 103 0 95 5 95 16 c 0
 95 26 102 41 128 41 c 2
 288 41 l 1
 359 376 l 1
 241 376 l 2
 225 376 217 381 217 392 c 0
244 552 m 0
 244 586 280 611 306 611 c 0
 330 611 346 594 346 571 c 0
 346 536 312 511 285 511 c 0
 261 511 244 529 244 552 c 0
466 552 m 0
 466 586 502 611 528 611 c 0
 552 611 568 594 568 571 c 0
 568 536 534 511 507 511 c 0
 483 511 466 529 466 552 c 0
EndSplineSet
Validated: 1
EndChar

StartChar: eth
Encoding: 240 240 185
Width: 600
Flags: W
HStem: -17 42<224.495 394.916> 390 40<296.875 465.87> 549 71<337.677 392.593>
VStem: 111 43<93.2079 255.511> 536 46<173.43 322.457>
DStem2: 394 549 335 483 0.926511 0.376269<-87.1566 0 77.4223 179.389>
LayerCount: 2
Fore
SplineSet
285 593 m 0
 285 609 299 620 312 620 c 0
 339 620 397 600 450 572 c 1
 554 614 l 2
 556 615 557 615 561 615 c 0
 569 615 576 609 576 599 c 0
 576 590 570 580 563 577 c 2
 480 543 l 1
 546 474 582 380 582 288 c 0
 582 100 435 -17 296 -17 c 0
 186 -17 111 58 111 159 c 0
 111 304 250 430 389 430 c 0
 444 430 478 416 524 377 c 1
 504 441 470 495 435 525 c 1
 335 483 l 2
 332 482 330 482 327 482 c 0
 317 482 312 491 312 501 c 0
 312 510 316 518 325 521 c 2
 394 549 l 1
 313 586 285 576 285 593 c 0
306 25 m 0
 424 25 536 129 536 245 c 0
 536 330 475 390 384 390 c 0
 269 390 154 289 154 170 c 0
 154 87 215 25 306 25 c 0
EndSplineSet
Validated: 1
EndChar

StartChar: ntilde
Encoding: 241 241 186
Width: 600
Flags: W
HStem: 0 41<56.5623 135 176 243.296 381.558 448 489 545.296> 376 41<148.558 206> 390 41<326.427 472.122> 516 41<425.491 513.602> 564 41<304.106 394.205>
VStem: 502 44<207.32 362.672>
DStem2: 126.285 0 167.285 0 0.207912 0.978148<50.4403 338.258 364.246 384.357> 439.285 0 480.285 0 0.207912 0.978148<50.4403 312.032>
LayerCount: 2
Fore
SplineSet
381 16 m 0xbc
 381 26 388 41 414 41 c 2
 448 41 l 1
 500 288 l 2
 501 293 502 299 502 306 c 0
 502 341 482 390 402 390 c 0xbc
 327 390 284 349 229 294 c 1
 176 41 l 1
 221 41 l 2
 236 41 244 36 244 26 c 0
 244 16 237 0 212 0 c 2
 81 0 l 2
 65 0 56 5 56 16 c 0
 56 26 63 41 90 41 c 2
 135 41 l 1
 206 376 l 1
 172 376 l 2
 156 376 148 381 148 392 c 0
 148 402 155 417 181 417 c 2
 256 417 l 1xdc
 241 348 l 1
 313 412 353 431 415 431 c 0
 494 431 546 385 546 321 c 0
 546 313 545 304 543 295 c 2
 489 41 l 1
 523 41 l 2
 538 41 546 36 546 26 c 0
 546 16 539 0 514 0 c 2
 405 0 l 2
 389 0 381 5 381 16 c 0xbc
470 557 m 0
 506 557 532 603 553 603 c 0
 562 603 569 596 569 586 c 0
 569 570 507 516 464 516 c 0
 412 516 384 564 350 564 c 0
 308 564 290 519 265 519 c 0
 255 519 249 525 249 534 c 0
 249 552 310 605 358 605 c 0
 406 605 436 557 470 557 c 0
EndSplineSet
Validated: 1
EndChar

StartChar: ograve
Encoding: 242 242 187
Width: 600
Flags: W
HStem: -16 41<224.219 395.941> 390 41<295.689 464.211>
VStem: 111 42<94.1567 255.018> 535 42<160.015 321.512>
DStem2: 457 530 330 599 0.681013 -0.732272<-153.275 16.8714>
LayerCount: 2
Fore
SplineSet
111 162 m 0
 111 298 243 431 392 431 c 0
 503 431 577 356 577 254 c 0
 577 113 443 -16 297 -16 c 0
 186 -16 111 59 111 162 c 0
305 25 m 0
 423 25 535 129 535 245 c 0
 535 330 474 390 383 390 c 0
 268 390 153 289 153 170 c 0
 153 87 214 25 305 25 c 0
322 614 m 0
 322 626 333 639 347 639 c 0
 353 639 357 636 364 630 c 1
 457 530 l 2
 463 523 465 520 465 514 c 0
 465 505 455 490 439 490 c 0
 434 490 429 493 423 499 c 2
 330 599 l 2
 325 605 322 609 322 614 c 0
EndSplineSet
Validated: 1
EndChar

StartChar: oacute
Encoding: 243 243 188
Width: 600
Flags: W
HStem: -16 41<224.219 395.941> 390 41<295.689 464.211>
VStem: 111 42<94.1567 255.018> 535 42<160.015 321.512>
DStem2: 370 530 390 499 0.803557 0.595228<-24.3864 190.008>
LayerCount: 2
Fore
SplineSet
111 162 m 0
 111 298 243 431 392 431 c 0
 503 431 577 356 577 254 c 0
 577 113 443 -16 297 -16 c 0
 186 -16 111 59 111 162 c 0
305 25 m 0
 423 25 535 129 535 245 c 0
 535 330 474 390 383 390 c 0
 268 390 153 289 153 170 c 0
 153 87 214 25 305 25 c 0
542 623 m 0
 542 609 530 602 525 599 c 2
 390 499 l 2
 380 492 375 490 369 490 c 0
 360 490 353 496 353 506 c 0
 353 520 364 525 370 530 c 2
 505 630 l 2
 515 637 520 639 526 639 c 0
 535 639 542 633 542 623 c 0
EndSplineSet
Validated: 1
EndChar

StartChar: ocircumflex
Encoding: 244 244 189
Width: 600
Flags: W
HStem: -16 41<224.219 395.941> 390 41<295.689 464.211>
VStem: 111 42<94.1567 255.018> 535 42<160.015 321.512>
DStem2: 281 530 299 498 0.81799 0.575232<-24.4511 150.004> 436 639 425 586 0.710358 -0.703841<29.4896 170.23>
LayerCount: 2
Fore
SplineSet
111 162 m 0
 111 298 243 431 392 431 c 0
 503 431 577 356 577 254 c 0
 577 113 443 -16 297 -16 c 0
 186 -16 111 59 111 162 c 0
305 25 m 0
 423 25 535 129 535 245 c 0
 535 330 474 390 383 390 c 0
 268 390 153 289 153 170 c 0
 153 87 214 25 305 25 c 0
554 516 m 0
 554 504 544 490 529 490 c 0
 524 490 519 493 513 498 c 2
 425 586 l 1
 299 498 l 2
 291 493 284 490 279 490 c 0
 269 490 263 497 263 506 c 0
 263 521 278 528 281 530 c 2
 436 639 l 1
 545 531 l 2
 552 524 554 521 554 516 c 0
EndSplineSet
Validated: 1
EndChar

StartChar: otilde
Encoding: 245 245 190
Width: 600
Flags: W
HStem: -16 41<224.219 395.941> 390 41<295.689 464.211> 516 41<441.491 529.602> 564 41<320.106 410.205>
VStem: 111 42<94.1567 255.018> 535 42<160.015 321.512>
LayerCount: 2
Fore
SplineSet
111 162 m 0
 111 298 243 431 392 431 c 0
 503 431 577 356 577 254 c 0
 577 113 443 -16 297 -16 c 0
 186 -16 111 59 111 162 c 0
305 25 m 0
 423 25 535 129 535 245 c 0
 535 330 474 390 383 390 c 0
 268 390 153 289 153 170 c 0
 153 87 214 25 305 25 c 0
486 557 m 0
 522 557 548 603 569 603 c 0
 578 603 585 596 585 586 c 0
 585 570 523 516 480 516 c 0
 428 516 400 564 366 564 c 0
 324 564 306 519 281 519 c 0
 271 519 265 525 265 534 c 0
 265 552 326 605 374 605 c 0
 422 605 452 557 486 557 c 0
EndSplineSet
Validated: 1
EndChar

StartChar: odieresis
Encoding: 246 246 191
Width: 600
Flags: W
HStem: -16 41<224.219 395.941> 390 41<295.689 464.211> 511 100<272.886 342.91 493.886 563.91>
VStem: 111 42<94.1567 255.018> 257 102<526.892 594.25> 478 102<526.892 594.25> 535 42<160.015 321.512>
LayerCount: 2
Fore
SplineSet
111 162 m 0xfa
 111 298 243 431 392 431 c 0
 503 431 577 356 577 254 c 0
 577 113 443 -16 297 -16 c 0
 186 -16 111 59 111 162 c 0xfa
305 25 m 0
 423 25 535 129 535 245 c 0
 535 330 474 390 383 390 c 0
 268 390 153 289 153 170 c 0
 153 87 214 25 305 25 c 0
257 552 m 0
 257 586 293 611 319 611 c 0
 343 611 359 594 359 571 c 0
 359 536 325 511 298 511 c 0
 274 511 257 529 257 552 c 0
478 552 m 0xfc
 478 586 514 611 540 611 c 0
 564 611 580 594 580 571 c 0
 580 536 546 511 519 511 c 0
 495 511 478 529 478 552 c 0xfc
EndSplineSet
Validated: 1
EndChar

StartChar: divide
Encoding: 247 247 192
Width: 600
Flags: W
HStem: 25 99<281.683 351.114> 262 40<131.676 588.324> 441 99<370.731 439.219>
VStem: 266 101<41.5 108.108> 354 101<456.985 523.302>
LayerCount: 2
Fore
SplineSet
589 287 m 0xe0
 589 277 582 262 557 262 c 2
 155 262 l 2
 139 262 131 267 131 277 c 0
 131 287 138 302 163 302 c 2
 565 302 l 2
 581 302 589 297 589 287 c 0xe0
266 64 m 0xf0
 266 99 299 124 326 124 c 0
 350 124 367 107 367 85 c 0
 367 49 332 25 305 25 c 0
 282 25 266 41 266 64 c 0xf0
354 480 m 0xe8
 354 507 381 540 415 540 c 0
 439 540 455 524 455 501 c 0
 455 469 425 441 394 441 c 0
 371 441 354 458 354 480 c 0xe8
EndSplineSet
Validated: 1
EndChar

StartChar: oslash
Encoding: 248 248 193
Width: 600
Flags: W
HStem: -16 41<223.989 392.55> 390 41<294.576 465.062>
VStem: 111 42<94.3113 254.15> 535 42<159.795 323.08>
DStem2: 142 59 81 -33 0.765204 0.643788<-126.703 1.32698 46.0958 454.921 498.989 624.72>
LayerCount: 2
Fore
SplineSet
577 254 m 0
 577 115 445 -16 297 -16 c 0
 242 -16 198 1 161 35 c 1
 81 -33 l 2
 71 -41 67 -43 62 -43 c 0
 53 -43 48 -37 48 -29 c 0
 48 -20 52 -16 61 -8 c 2
 142 59 l 1
 122 90 111 125 111 163 c 0
 111 305 250 431 392 431 c 0
 446 431 490 415 525 382 c 1
 603 448 l 2
 614 456 617 458 623 458 c 0
 631 458 637 452 637 443 c 0
 637 435 629 428 623 423 c 2
 545 358 l 1
 566 327 577 292 577 254 c 0
305 25 m 0
 420 25 535 126 535 245 c 0
 535 276 527 304 511 329 c 1
 197 65 l 1
 224 39 261 25 305 25 c 0
383 390 m 0
 259 390 153 279 153 171 c 0
 153 141 161 113 177 89 c 1
 490 352 l 1
 462 377 426 390 383 390 c 0
EndSplineSet
Validated: 1
EndChar

StartChar: ugrave
Encoding: 249 249 194
Width: 600
Flags: W
HStem: -16 41<208.104 351.445> 0 41<489 545.296> 376 41<126.558 204 420.562 519>
VStem: 145 42<46.4275 145.966>
DStem2: 120.155 -16 161.155 -16 0.207912 0.978148<124.704 400.866> 449 530 322 599 0.681013 -0.732272<-153.275 16.8714> 435.57 -16 476.884 -16 0.207912 0.978148<66.8631 83.8319 111.058 400.78>
LayerCount: 2
Fore
SplineSet
546 26 m 0x70
 546 16 539 0 514 0 c 2
 439 0 l 1x70
 453 66 l 1
 387 12 320 -16 254 -16 c 0
 185 -16 145 22 145 83 c 0
 145 93 146 104 148 115 c 2
 204 376 l 1
 150 376 l 2
 134 376 126 381 126 392 c 0
 126 402 133 417 159 417 c 2
 254 417 l 1
 189 115 l 2
 188 109 187 103 187 97 c 0
 187 56 216 25 261 25 c 0xb0
 328 25 396 55 463 115 c 1
 519 376 l 1
 445 376 l 2
 429 376 420 381 420 392 c 0
 420 402 427 417 454 417 c 2
 569 417 l 1
 489 41 l 1
 523 41 l 2
 538 41 546 36 546 26 c 0x70
314 614 m 0
 314 626 325 639 339 639 c 0
 345 639 349 636 356 630 c 1
 449 530 l 2
 455 523 457 520 457 514 c 0
 457 505 447 490 431 490 c 0
 426 490 421 493 415 499 c 2
 322 599 l 2
 317 605 314 609 314 614 c 0
EndSplineSet
Validated: 1
EndChar

StartChar: uacute
Encoding: 250 250 195
Width: 600
Flags: W
HStem: -16 41<208.104 351.445> 0 41<489 545.296> 376 41<126.558 204 420.562 519>
VStem: 145 42<46.4275 145.966>
DStem2: 120.155 -16 161.155 -16 0.207912 0.978148<124.704 400.866> 355 530 375 499 0.803557 0.595228<-24.3864 190.008> 435.57 -16 476.884 -16 0.207912 0.978148<66.8631 83.8319 111.058 400.78>
LayerCount: 2
Fore
SplineSet
546 26 m 0x70
 546 16 539 0 514 0 c 2
 439 0 l 1x70
 453 66 l 1
 387 12 320 -16 254 -16 c 0
 185 -16 145 22 145 83 c 0
 145 93 146 104 148 115 c 2
 204 376 l 1
 150 376 l 2
 134 376 126 381 126 392 c 0
 126 402 133 417 159 417 c 2
 254 417 l 1
 189 115 l 2
 188 109 187 103 187 97 c 0
 187 56 216 25 261 25 c 0xb0
 328 25 396 55 463 115 c 1
 519 376 l 1
 445 376 l 2
 429 376 420 381 420 392 c 0
 420 402 427 417 454 417 c 2
 569 417 l 1
 489 41 l 1
 523 41 l 2
 538 41 546 36 546 26 c 0x70
527 623 m 0
 527 609 515 602 510 599 c 2
 375 499 l 2
 365 492 360 490 354 490 c 0
 345 490 338 496 338 506 c 0
 338 520 349 525 355 530 c 2
 490 630 l 2
 500 637 505 639 511 639 c 0
 520 639 527 633 527 623 c 0
EndSplineSet
Validated: 1
EndChar

StartChar: ucircumflex
Encoding: 251 251 196
Width: 600
Flags: W
HStem: -16 41<208.104 351.445> 0 41<489 545.296> 376 41<126.558 204 420.562 519>
VStem: 145 42<46.4275 145.966>
DStem2: 120.155 -16 161.155 -16 0.207912 0.978148<124.704 400.866> 273 530 291 498 0.81799 0.575232<-24.4511 150.004> 428 639 417 586 0.710358 -0.703841<29.4896 170.23> 435.57 -16 476.884 -16 0.207912 0.978148<66.8631 83.8319 111.058 400.78>
LayerCount: 2
Fore
SplineSet
546 26 m 0x70
 546 16 539 0 514 0 c 2
 439 0 l 1x70
 453 66 l 1
 387 12 320 -16 254 -16 c 0
 185 -16 145 22 145 83 c 0
 145 93 146 104 148 115 c 2
 204 376 l 1
 150 376 l 2
 134 376 126 381 126 392 c 0
 126 402 133 417 159 417 c 2
 254 417 l 1
 189 115 l 2
 188 109 187 103 187 97 c 0
 187 56 216 25 261 25 c 0xb0
 328 25 396 55 463 115 c 1
 519 376 l 1
 445 376 l 2
 429 376 420 381 420 392 c 0
 420 402 427 417 454 417 c 2
 569 417 l 1
 489 41 l 1
 523 41 l 2
 538 41 546 36 546 26 c 0x70
546 516 m 0
 546 504 536 490 521 490 c 0
 516 490 511 493 505 498 c 2
 417 586 l 1
 291 498 l 2
 283 493 276 490 271 490 c 0
 261 490 255 497 255 506 c 0
 255 521 270 528 273 530 c 2
 428 639 l 1
 537 531 l 2
 544 524 546 521 546 516 c 0
EndSplineSet
Validated: 1
EndChar

StartChar: udieresis
Encoding: 252 252 197
Width: 600
Flags: W
HStem: -16 41<208.104 351.445> 0 41<489 545.296> 376 41<126.558 204 420.562 519> 511 100<264.886 334.91 485.886 555.91>
VStem: 145 42<46.4275 145.966> 249 102<526.892 594.25> 470 102<526.892 594.25>
DStem2: 120.155 -16 161.155 -16 0.207912 0.978148<124.704 400.866> 435.57 -16 476.884 -16 0.207912 0.978148<66.8631 83.8319 111.058 400.78>
LayerCount: 2
Fore
SplineSet
546 26 m 0x7e
 546 16 539 0 514 0 c 2
 439 0 l 1x7e
 453 66 l 1
 387 12 320 -16 254 -16 c 0
 185 -16 145 22 145 83 c 0
 145 93 146 104 148 115 c 2
 204 376 l 1
 150 376 l 2
 134 376 126 381 126 392 c 0
 126 402 133 417 159 417 c 2
 254 417 l 1
 189 115 l 2
 188 109 187 103 187 97 c 0
 187 56 216 25 261 25 c 0xbe
 328 25 396 55 463 115 c 1
 519 376 l 1
 445 376 l 2
 429 376 420 381 420 392 c 0
 420 402 427 417 454 417 c 2
 569 417 l 1
 489 41 l 1
 523 41 l 2
 538 41 546 36 546 26 c 0x7e
249 552 m 0
 249 586 285 611 311 611 c 0
 335 611 351 594 351 571 c 0
 351 536 317 511 290 511 c 0
 266 511 249 529 249 552 c 0
470 552 m 0
 470 586 506 611 532 611 c 0
 556 611 572 594 572 571 c 0
 572 536 538 511 511 511 c 0
 487 511 470 529 470 552 c 0
EndSplineSet
Validated: 1
EndChar

StartChar: yacute
Encoding: 253 253 198
Width: 600
Flags: W
HStem: -186 41<21.6762 180 221 309.291> 376 41<134.558 174 221 304.296 468.558 546 588 633.296>
DStem2: 221 376 174 376 0.276071 -0.961137<0 344.087> 180 -145 221 -145 0.575882 0.817533<23.6112 177.282 233.075 636.707> 405 530 425 499 0.803557 0.595228<-24.3864 190.008>
LayerCount: 2
Fore
SplineSet
21 -171 m 0
 21 -160 28 -145 53 -145 c 2
 180 -145 l 1
 282 0 l 1
 174 376 l 1
 158 376 l 2
 142 376 134 381 134 392 c 0
 134 402 141 417 167 417 c 2
 282 417 l 2
 297 417 305 412 305 402 c 0
 305 392 298 376 273 376 c 2
 221 376 l 1
 315 45 l 1
 546 376 l 1
 492 376 l 2
 476 376 468 381 468 392 c 0
 468 402 475 417 501 417 c 2
 611 417 l 2
 626 417 634 412 634 402 c 0
 634 392 627 376 602 376 c 2
 588 376 l 1
 221 -145 l 1
 286 -145 l 2
 302 -145 310 -150 310 -160 c 0
 310 -170 303 -186 277 -186 c 2
 44 -186 l 2
 29 -186 21 -181 21 -171 c 0
577 623 m 0
 577 609 565 602 560 599 c 2
 425 499 l 2
 415 492 410 490 404 490 c 0
 395 490 388 496 388 506 c 0
 388 520 399 525 405 530 c 2
 540 630 l 2
 550 637 555 639 561 639 c 0
 570 639 577 633 577 623 c 0
EndSplineSet
Validated: 1
EndChar

StartChar: thorn
Encoding: 254 254 199
Width: 600
Flags: W
HStem: -186 41<-13.3238 72 113 234.291> 10 41<251.907 418.553> 390 41<316.952 485.608> 549 41<142.555 220>
VStem: 551 42<175.923 327.742>
DStem2: 63.2852 -186 104.285 -186 0.207912 0.978148<50.4403 307.183 541.158 751.521>
LayerCount: 2
Fore
SplineSet
142 565 m 0
 142 575 149 590 174 590 c 2
 269 590 l 1
 215 335 l 1
 283 404 339 431 415 431 c 0
 523 431 593 362 593 266 c 0
 593 137 472 10 325 10 c 0
 248 10 199 40 167 106 c 1
 113 -145 l 1
 211 -145 l 2
 227 -145 235 -150 235 -160 c 0
 235 -170 228 -186 202 -186 c 2
 9 -186 l 2
 -6 -186 -14 -181 -14 -171 c 0
 -14 -160 -7 -145 18 -145 c 2
 72 -145 l 1
 220 549 l 1
 166 549 l 2
 150 549 142 554 142 565 c 0
333 51 m 0
 437 51 551 140 551 255 c 0
 551 334 493 390 405 390 c 0
 297 390 187 297 187 186 c 0
 187 108 246 51 333 51 c 0
EndSplineSet
Validated: 1
EndChar

StartChar: ydieresis
Encoding: 255 255 200
Width: 600
Flags: W
HStem: -186 41<21.6762 180 221 309.291> 376 41<134.558 174 221 304.296 468.558 546 588 633.296> 511 100<272.886 342.91 493.886 563.91>
VStem: 257 102<526.892 594.25> 478 102<526.892 594.25>
DStem2: 221 376 174 376 0.276071 -0.961137<0 344.087> 180 -145 221 -145 0.575882 0.817533<23.6112 177.282 233.075 636.707>
LayerCount: 2
Fore
SplineSet
21 -171 m 0
 21 -160 28 -145 53 -145 c 2
 180 -145 l 1
 282 0 l 1
 174 376 l 1
 158 376 l 2
 142 376 134 381 134 392 c 0
 134 402 141 417 167 417 c 2
 282 417 l 2
 297 417 305 412 305 402 c 0
 305 392 298 376 273 376 c 2
 221 376 l 1
 315 45 l 1
 546 376 l 1
 492 376 l 2
 476 376 468 381 468 392 c 0
 468 402 475 417 501 417 c 2
 611 417 l 2
 626 417 634 412 634 402 c 0
 634 392 627 376 602 376 c 2
 588 376 l 1
 221 -145 l 1
 286 -145 l 2
 302 -145 310 -150 310 -160 c 0
 310 -170 303 -186 277 -186 c 2
 44 -186 l 2
 29 -186 21 -181 21 -171 c 0
257 552 m 0
 257 586 293 611 319 611 c 0
 343 611 359 594 359 571 c 0
 359 536 325 511 298 511 c 0
 274 511 257 529 257 552 c 0
478 552 m 0
 478 586 514 611 540 611 c 0
 564 611 580 594 580 571 c 0
 580 536 546 511 519 511 c 0
 495 511 478 529 478 552 c 0
EndSplineSet
Validated: 1
EndChar

StartChar: uni0E01
Encoding: 3585 3585 201
Width: 600
Flags: W
HStem: 0 21G<160 224.206 440 504.276> 405 50<306.623 463.552>
VStem: 504 60<258.281 364.719>
DStem2: 160 0 220 0 0.207912 0.978148<12.4747 275.403> 440 0 500 0 0.207912 0.978148<12.4747 317.189>
LayerCount: 2
Fore
SplineSet
400 455 m 0
 507 455 564 382 564 314 c 0
 564 306 564 298 562 290 c 10
 500 0 l 25
 440 0 l 25
 502 290 l 18
 504 297 504 304 504 311 c 0
 504 370 447 405 389 405 c 8
 335 405 293 381 251 341 c 1
 289 331 313 318 328 285 c 1
 299 271 271 241 265 214 c 10
 220 0 l 25
 160 0 l 25
 205 214 l 18
 211 241 237 270 268 285 c 1
 255 306 219 318 173 326 c 1
 241 402 309 455 400 455 c 0
EndSplineSet
Validated: 1
Comment: "Thai Gogai" 
EndChar

StartChar: uni0E02
Encoding: 3586 3586 202
Width: 600
Flags: W
HStem: 0 50<167 222 282 451> 228 40<202.188 269.458> 405 50<270.592 383.015> 425 20G<530.747 595>
VStem: 158 41<270.659 335.912> 281 41<278.764 345.856> 398 62<295.094 390.61>
DStem2: 211.372 0 271.372 0 0.207912 0.978148<63.5917 217.004> 440.372 0 500 0 0.207912 0.978148<51.117 454.95>
LayerCount: 2
Back
SplineSet
160.468 308 m 4
 169.854 352.16 213.312 388 257.472 388 c 4
 301.632 388 329.854 352.16 320.468 308 c 4
 311.081 263.84 267.623 228 223.463 228 c 4
 179.303 228 151.081 263.84 160.468 308 c 4
246.497 167 m 18
 257.975 221 380.414 256 397.419 336 c 0
 401.67 356 384.085 405 342.085 405 c 0
 316.085 405 218.747 394 200.468 308 c 1
 160.468 308 l 1
 174.496 374 262.713 455 352.713 455 c 0
 432.713 455 470.598 398 457.419 336 c 0
 438.714 248 314.574 205 304.371 157 c 2
200.468 308 m 4
 195.791 286 209.965 268 231.965 268 c 4
 253.965 268 275.791 286 280.468 308 c 4
 285.144 330 270.97 348 248.97 348 c 4
 226.97 348 205.144 330 200.468 308 c 4
EndSplineSet
Fore
SplineSet
158 292 m 0xee
 158 357 253 455 353 455 c 0xee
 422 455 460 412 460 361 c 0
 460 255 316 209 304 157 c 1
 282 50 l 1
 451 50 l 1
 535 445 l 1
 595 445 l 1xde
 500 0 l 1
 156 0 l 1
 167 50 l 1
 222 50 l 1
 246 167 l 2
 258 223 398 268 398 343 c 0
 398 366 379 405 342 405 c 0
 329 405 296 402 265 388 c 1
 299 384 322 358 322 325 c 0
 322 276 275 228 223 228 c 0
 185 228 158 255 158 292 c 0xee
249 348 m 0
 228 348 199 329 199 301 c 0
 199 282 213 268 232 268 c 0
 257 268 281 291 281 317 c 0
 281 335 268 348 249 348 c 0
EndSplineSet
Validated: 1
EndChar

StartChar: uni0E03
Encoding: 3587 3587 203
Width: 600
Flags: W
HStem: 0 50<167 222 282 451> 208 40<198.188 265.458> 328 40<250 274.661> 424 21G<273 323.667 361.889 408 530.747 595>
VStem: 154 41<250.659 316.67> 277 41<258.764 325.945> 399 60<295.653 391.547>
DStem2: 211.372 0 271.372 0 0.207912 0.978148<63.5917 210.69> 440.372 0 500 0 0.207912 0.978148<51.117 454.95>
LayerCount: 2
Back
SplineSet
156.216 288 m 4
 165.603 332.16 209.061 368 253.221 368 c 4
 297.381 368 325.603 332.16 316.216 288 c 4
 306.83 243.84 263.372 208 219.212 208 c 4
 175.052 208 146.83 243.84 156.216 288 c 4
244.371 157 m 2
 255.85 211 380.414 256 397.419 336 c 4
 400.635 351.128 399.133 386.403 372.747 394 c 5
 326.37 364 l 29
 291.109 391 l 21
 261.196 382 207.832 342.648 196.216 288 c 5
 156.216 288 l 5
 167.724 342.137 249.073 435 297.375 444 c 13
 336.998 414 l 29
 392.65 450 l 21
 427.25 434 468.49 388.084 457.419 336 c 4
 438.714 248 312.448 195 302.246 147 c 2
196.216 288 m 4
 191.54 266 205.714 248 227.714 248 c 4
 249.714 248 271.54 266 276.216 288 c 4
 280.893 310 266.719 328 244.719 328 c 4
 222.719 328 200.893 310 196.216 288 c 4
EndSplineSet
Fore
SplineSet
318 305 m 0
 318 256 271 208 219 208 c 0
 181 208 154 235 154 272 c 0
 154 332 249 435 297 444 c 1
 337 414 l 1
 393 450 l 1
 423 436 459 398 459 353 c 0
 459 259 312 197 302 147 c 2
 282 50 l 1
 451 50 l 1
 535 445 l 1
 595 445 l 1
 500 0 l 1
 156 0 l 1
 167 50 l 1
 222 50 l 1
 244 157 l 2
 256 213 399 266 399 350 c 0
 399 366 393 388 373 394 c 1
 326 364 l 1
 291 391 l 1
 279 388 265 380 250 368 c 1
 253 368 l 2
 291 368 318 341 318 305 c 0
245 328 m 0
 224 328 195 309 195 281 c 0
 195 262 209 248 228 248 c 0
 253 248 277 271 277 297 c 0
 277 315 264 328 245 328 c 0
EndSplineSet
Validated: 1
EndChar

StartChar: uni0E04
Encoding: 3588 3588 204
Width: 600
Flags: W
HStem: 0 21G<160 224.255 440 504.236> 144 50<310.389 382.251> 274 50<318.464 388.779> 405 50<299.368 458.864>
VStem: 149 58<199.974 324.896> 391 51<204.095 272.116> 503 62<256.985 363.061>
DStem2: 160 0 220 0 0.207912 0.978148<12.4747 110.963> 440 0 500 0 0.207912 0.978148<12.4747 313.115>
LayerCount: 2
Back
SplineSet
309.738 234 m 0
 305.062 212 319.236 194 341.236 194 c 0
 363.236 194 385.062 212 389.738 234 c 0
 394.414 256 380.24 274 358.24 274 c 0
 336.24 274 314.414 256 309.738 234 c 0
259.738 234 m 0
 270.366 284 318.868 324 368.868 324 c 0
 418.868 324 450.366 284 439.738 234 c 0
 429.11 184 380.608 144 330.608 144 c 0
 280.608 144 249.11 184 259.738 234 c 0
211.216 288 m 0
 187.835 178 263.787 206 239.98 94 c 2
 220 0 l 9
 160 0 l 17
 179.98 94 l 2
 190.608 144 138.888 230 151.216 288 c 0
 172.047 386 292.713 455 397.713 455 c 16
 501.713 455 583.747 394 561.217 288 c 10
 500 0 l 25
 440 0 l 25
 501.216 288 l 18
 514.82 352 458.085 405 387.085 405 c 24
 313.085 405 225.245 354 211.216 288 c 0
358.24 274 m 1
 294.24 274 251.033 146 239.98 94 c 2
 220 0 l 9
 160 0 l 17
 179.98 94 l 18
 190.183 142 260.868 324 368.868 324 c 1
 358.24 274 l 1
EndSplineSet
Fore
SplineSet
358 274 m 0
 333 274 309 251 309 225 c 0
 309 207 322 194 341 194 c 0
 362 194 391 213 391 241 c 0
 391 260 377 274 358 274 c 0
149 269 m 0
 149 359 270 455 398 455 c 0
 490 455 565 407 565 323 c 0
 565 312 564 300 561 288 c 2
 500 0 l 1
 440 0 l 1
 501 288 l 2
 502 295 503 301 503 307 c 0
 503 362 451 405 387 405 c 0
 313 405 225 354 211 288 c 0
 208 273 207 261 207 250 c 0
 207 226 213 212 221 199 c 1
 244 241 296 324 369 324 c 0
 413 324 442 293 442 252 c 0
 442 202 394 144 331 144 c 0
 302 144 279 157 267 178 c 1
 253 147 244 114 240 94 c 2
 220 0 l 1
 160 0 l 1
 180 94 l 2
 181 99 182 104 182 109 c 0
 182 154 149 219 149 269 c 0
EndSplineSet
Validated: 1
EndChar

StartChar: uni0E05
Encoding: 3589 3589 205
Width: 600
Flags: W
HStem: 0 21G<160 224.255 440 504.236> 144 50<310.389 382.251> 274 50<318.464 388.779> 425 20G<278 349.889 436.556 502.5>
VStem: 149 58<199.974 323.801> 391 51<204.095 272.116> 503 62<256.985 367.027>
DStem2: 160 0 220 0 0.207912 0.978148<12.4747 110.963> 321 445 314 393 0.822192 -0.56921<13.0273 79.0569> 386 400 375 350 0.896389 0.443269<0 67.4497> 440 0 500 0 0.207912 0.978148<12.4747 310.225>
LayerCount: 2
Back
SplineSet
309.738 234 m 0
 305.062 212 319.236 194 341.236 194 c 0
 363.236 194 385.062 212 389.738 234 c 0
 394.414 256 380.24 274 358.24 274 c 0
 336.24 274 314.414 256 309.738 234 c 0
259.738 234 m 0
 270.366 284 318.868 324 368.868 324 c 0
 418.868 324 450.366 284 439.738 234 c 0
 429.11 184 380.608 144 330.608 144 c 0
 280.608 144 249.11 184 259.738 234 c 0
211.216 288 m 0
 187.835 178 263.787 206 239.98 94 c 2
 220 0 l 9
 160 0 l 17
 179.98 94 l 2
 190.608 144 138.888 230 151.216 288 c 0
 166.998 362.248 250.975 428 320.588 445 c 1
 386.022 400 l 1
 476.588 445 l 0
 538.124 424 577.63 365.22 561.217 288 c 10
 500 0 l 25
 440 0 l 25
 501.216 288 l 18
 509.879 328.754 481.921 376 456.685 389 c 1
 375.395 350 l 25
 313.535 393 l 17
 275.921 376 220.656 332.412 211.216 288 c 0
358.24 274 m 1
 294.24 274 251.033 146 239.98 94 c 2
 220 0 l 9
 160 0 l 17
 179.98 94 l 18
 190.183 142 260.868 324 368.868 324 c 1
 358.24 274 l 1
EndSplineSet
Fore
SplineSet
358 274 m 0
 333 274 309 251 309 225 c 0
 309 207 322 194 341 194 c 0
 362 194 391 213 391 241 c 0
 391 260 377 274 358 274 c 0
442 252 m 0
 442 202 394 144 331 144 c 0
 302 144 279 157 267 178 c 1
 253 147 244 114 240 94 c 2
 220 0 l 1
 160 0 l 1
 180 94 l 2
 181 99 182 104 182 109 c 0
 182 154 149 219 149 269 c 0
 149 339 235 424 321 445 c 1
 386 400 l 1
 477 445 l 1
 528 427 565 383 565 323 c 0
 565 312 564 300 561 288 c 2
 500 0 l 1
 440 0 l 1
 501 288 l 2
 502 293 503 299 503 304 c 0
 503 341 479 378 457 389 c 1
 375 350 l 1
 314 393 l 1
 276 376 221 332 211 288 c 0
 208 273 207 261 207 250 c 0
 207 226 213 212 221 199 c 1
 244 241 296 324 369 324 c 0
 413 324 442 293 442 252 c 0
EndSplineSet
Validated: 1
EndChar

StartChar: uni0E06
Encoding: 3590 3590 206
Width: 600
Flags: W
HStem: -10 56<142.863 183.248> 0 21G<426 504.27> 135 49<153.272 199 269 334.066> 208 40<114.188 181.458> 328 40<166 190.661> 424 21G<189 239.667 277.889 324 530.733 595>
VStem: 70 41<250.659 316.67> 91 51<46.2503 124.915> 193 41<258.764 325.945> 319 60<325.848 390.625>
DStem2: 167.445 -10 227.696 -10 0.207912 0.978148<54.659 148.392 211.853 302.613> 437.995 -10 497.874 -10 0.207912 0.978148<81.7872 465.226>
LayerCount: 2
Back
SplineSet
72.2158 288 m 4
 81.6025 332.16 125.061 368 169.221 368 c 4
 213.381 368 241.603 332.16 232.216 288 c 4
 222.83 243.84 179.372 208 135.212 208 c 4
 91.0518 208 62.8301 243.84 72.2158 288 c 4
377.032 353 m 4
 367.042 306 285.265 260 279.313 232 c 14
 243.179 62 l 2
 234.889 23 188.236 -13 151.874 -10 c 0
 103.874 -10 83.1396 43 93.9805 94 c 0
 105.884 150 157.535 186 237.535 186 c 0
 295.535 186 302.897 183 364.646 163 c 0
 440.333 138 454.879 70 454.879 70 c 9
 534.588 445 l 25
 594.588 445 l 25
 500 0 l 17
 438 0 l 1
 438 0 415.517 73 352.318 105 c 0
 312.569 125 281.907 136 226.907 136 c 0
 178.907 136 151.633 130 143.98 94 c 0
 136.328 58 144.41 51.625 164.777 46 c 24
 178.68 42.1611 184.196 66.79 187.43 82 c 18
 221.438 242 l 6
 227.391 270 312.144 330 317.032 353 c 4
 321.61 374.539 315.133 386.403 288.747 394 c 5
 242.37 364 l 29
 207.109 391 l 21
 177.196 382 123.832 342.648 112.216 288 c 5
 72.2158 288 l 5
 83.7236 342.137 165.073 435 213.375 444 c 13
 252.998 414 l 29
 308.65 450 l 21
 343.25 434 387.945 404.341 377.032 353 c 4
112.216 288 m 4
 107.54 266 121.714 248 143.714 248 c 4
 165.714 248 187.54 266 192.216 288 c 4
 196.893 310 182.719 328 160.719 328 c 4
 138.719 328 116.893 310 112.216 288 c 4
EndSplineSet
Fore
SplineSet
234 305 m 0xbdc0
 234 256 187 208 135 208 c 0
 97 208 70 235 70 272 c 0
 70 332 165 435 213 444 c 1
 253 414 l 1
 309 450 l 1
 339 436 379 410 379 368 c 0
 379 307 286 265 279 232 c 2
 269 185 l 1
 301 185 316 179 365 163 c 0
 440 138 455 70 455 70 c 1
 535 445 l 1
 595 445 l 1
 500 0 l 1
 438 0 l 1x7ec0
 414 79 338 126 259 135 c 1
 243 62 l 2
 235 23 189 -10 152 -10 c 0
 112 -10 91 26 91 67 c 0
 91 139 145 177 209 184 c 1
 221 242 l 2
 228 276 319 326 319 365 c 0
 319 379 310 388 289 394 c 1
 242 364 l 1
 207 391 l 1
 195 388 181 380 166 368 c 1
 169 368 l 2
 207 368 234 341 234 305 c 0xbdc0
161 328 m 0
 140 328 111 309 111 281 c 0
 111 262 125 248 144 248 c 0
 169 248 193 271 193 297 c 0
 193 315 180 328 161 328 c 0
199 135 m 1
 154 135 142 103 142 77 c 0
 142 60 149 46 165 46 c 0xbdc0
 181 46 184 67 187 82 c 2
 199 135 l 1
EndSplineSet
Validated: 1
EndChar

StartChar: uni0E07
Encoding: 3591 3591 207
Width: 600
Flags: W
HStem: 0 54<376 406> 275 50<403.626 454.716> 405 50<411.528 481.779>
VStem: 351 51<326.689 394.985> 484 51<335.439 403.116>
DStem2: 206 270 164 234 0.618118 -0.786085<2.3381 274.874> 394.522 0 455 0 0.207912 0.978148<55.2064 286.455>
LayerCount: 2
Back
SplineSet
352.583 365 m 4
 363.211 415 411.713 455 461.713 455 c 4
 511.713 455 543.211 415 532.583 365 c 4
 521.955 315 473.453 275 423.453 275 c 4
 373.453 275 341.955 315 352.583 365 c 4
402.583 365 m 4
 397.907 343 412.081 325 434.081 325 c 4
 456.081 325 477.907 343 482.583 365 c 4
 487.26 387 473.085 405 451.085 405 c 4
 429.085 405 407.26 387 402.583 365 c 4
459.617 304 m 21
 452.555 299 532.583 365 532.583 365 c 13
 455 0 l 29
 348 0 l 29
 163.738 234 l 29
 206.391 270 l 21
 376.479 54 l 5
 406.479 54 l 13
 459.617 304 l 21
EndSplineSet
Fore
SplineSet
451 405 m 0
 426 405 402 382 402 356 c 0
 402 338 415 325 434 325 c 0
 455 325 484 344 484 372 c 0
 484 391 470 405 451 405 c 0
351 345 m 0
 351 404 406 455 462 455 c 0
 506 455 535 424 535 383 c 0
 535 377 534 371 533 365 c 2
 455 0 l 1
 348 0 l 1
 164 234 l 1
 206 270 l 1
 376 54 l 1
 406 54 l 1
 455 280 l 1
 445 277 434 275 423 275 c 0
 380 275 351 305 351 345 c 0
EndSplineSet
Validated: 1
EndChar

StartChar: uni0E08
Encoding: 3592 3592 208
Width: 600
Flags: W
HStem: 0 50<421 451> 140 50<282.093 352.449> 270 50<290.734 360.013> 405 50<290.69 471.33>
VStem: 229 51<191.989 259.772> 362 51<74.375 158 199.835 267.505> 368 53<50 138.25> 507 61<218.969 371.769>
DStem2: 440.372 0 500 0 0.207912 0.978148<51.117 330.542>
LayerCount: 2
Back
SplineSet
280.888 230 m 4
 276.212 208 290.386 190 312.386 190 c 4
 334.386 190 356.212 208 360.888 230 c 4
 365.564 252 351.391 270 329.391 270 c 4
 307.391 270 285.564 252 280.888 230 c 4
230.888 230 m 4
 241.516 280 290.019 320 340.019 320 c 4
 390.019 320 421.516 280 410.888 230 c 4
 400.26 180 351.758 140 301.758 140 c 4
 251.758 140 220.26 180 230.888 230 c 4
358.11 184 m 5
 412.414 256 l 5
 420.628 50 l 5
 450.628 50 l 5
 505.042 306 l 6
 520.347 378 447.085 405 378.085 405 c 0
 311.085 405 259.646 370 210.868 324 c 1
 188.158 363 l 1
 236.936 409 304.713 455 386.713 455 c 0
 504.713 455 584.173 396 565.042 306 c 6
 500 0 l 5
 368 0 l 5
 358.11 184 l 5
EndSplineSet
Fore
SplineSet
229 211 m 0xfb
 229 262 278 320 340 320 c 0
 385 320 411 292 413 245 c 2xfd
 421 50 l 1
 451 50 l 1
 505 306 l 2
 506 312 507 319 507 324 c 0
 507 383 441 405 378 405 c 0
 311 405 260 370 211 324 c 1
 188 363 l 1
 237 409 305 455 387 455 c 0
 493 455 568 407 568 332 c 0
 568 324 567 315 565 306 c 2
 500 0 l 1
 368 0 l 1
 360 158 l 1
 342 147 322 140 302 140 c 0
 259 140 229 170 229 211 c 0xfb
329 270 m 0
 305 270 280 247 280 221 c 0
 280 203 293 190 312 190 c 0
 339 190 362 215 362 238 c 0
 362 256 348 270 329 270 c 0
EndSplineSet
Validated: 1
EndChar

StartChar: uni0E09
Encoding: 3593 3593 209
Width: 600
Flags: W
HStem: -10 50<428.092 497.484> 0 21G<228 320.688> 135 50<217.093 256.809> 265 50<224.668 294.908> 405 50<271.238 454.327>
VStem: 164 51<186.989 255.379> 297 51<194.636 263.121> 375 51<43.3417 64> 489 61<217.422 372.764> 508 51<50.2284 118.217>
DStem2: 419.977 -10 480.015 -10 0.207912 0.978148<197.312 341.755>
LayerCount: 2
Back
SplineSet
377.005 80 m 4
 387.633 130 436.135 170 486.135 170 c 4
 536.135 170 567.633 130 557.005 80 c 4
 546.377 30 497.874 -10 447.874 -10 c 4
 397.874 -10 366.377 30 377.005 80 c 4
427.005 80 m 4
 422.328 58 436.502 40 458.502 40 c 4
 480.502 40 502.328 58 507.005 80 c 4
 511.681 102 497.507 120 475.507 120 c 4
 453.507 120 431.681 102 427.005 80 c 4
165.825 225 m 4
 176.453 275 224.955 315 274.955 315 c 4
 324.955 315 356.453 275 345.825 225 c 4
 335.197 175 286.695 135 236.695 135 c 4
 186.695 135 155.197 175 165.825 225 c 4
215.825 225 m 4
 211.149 203 225.323 185 247.323 185 c 4
 269.323 185 291.149 203 295.825 225 c 4
 300.502 247 286.327 265 264.327 265 c 4
 242.327 265 220.502 247 215.825 225 c 4
262.435 162 m 5
 345.825 225 l 5
 345.825 225 327.27 133 311.179 62 c 13
 460.897 183 l 29
 487.042 306 l 22
 502.134 377 434.085 405 365.085 405 c 4
 298.085 405 231.646 370 182.868 324 c 5
 160.158 363 l 5
 208.936 409 291.713 455 373.713 455 c 4
 491.713 455 565.96 395 547.042 306 c 14
 507.082 118 l 21
 490.458 148 463.333 138 442.082 118 c 13
 296 0 l 21
 228 0 l 5
 262.435 162 l 5
EndSplineSet
Fore
SplineSet
264 265 m 0x3f
 240 265 215 242 215 216 c 0
 215 198 228 185 247 185 c 0
 274 185 297 210 297 233 c 0
 297 251 283 265 264 265 c 0x3f
164 206 m 0
 164 265 219 315 275 315 c 0
 319 315 348 284 348 243 c 0
 348 237 347 231 346 225 c 2
 311 62 l 1
 461 183 l 1
 487 306 l 2
 488 313 489 319 489 325 c 0
 489 382 427 405 365 405 c 0
 298 405 232 370 183 324 c 1
 160 363 l 1
 209 409 292 455 374 455 c 0
 480 455 550 407 550 333 c 0x7f80
 550 324 549 315 547 306 c 2
 517 164 l 1
 543 153 559 129 559 99 c 0
 559 48 511 -10 448 -10 c 0xbf40
 404 -10 375 22 375 64 c 1
 296 0 l 1
 228 0 l 1x7f40
 257 137 l 1
 251 136 244 135 237 135 c 0
 194 135 164 165 164 206 c 0
476 120 m 0
 449 120 426 95 426 72 c 0
 426 54 440 40 459 40 c 0
 483 40 508 63 508 89 c 0xbf40
 508 107 495 120 476 120 c 0
EndSplineSet
Validated: 1
EndChar

StartChar: uni0E0A
Encoding: 3594 3594 210
Width: 600
Flags: W
HStem: 0 50<167 222 282 451> 228 40<202.188 269.458> 405 50<270.592 383.015>
VStem: 158 41<270.659 335.912> 281 41<278.764 345.856> 398 62<295.094 390.61> 501 58<185.141 350.211> 582 60<425.198 480>
DStem2: 211.372 0 271.372 0 0.207912 0.978148<63.5917 217.004> 440.372 0 500 0 0.207912 0.978148<51.117 303.266>
LayerCount: 2
Fore
SplineSet
158 292 m 0
 158 357 253 455 353 455 c 0
 422 455 460 412 460 361 c 0
 460 255 316 209 304 157 c 1
 282 50 l 25
 451 50 l 17
 491 242 l 2
 495 261 501 280 501 298 c 0
 501 318 495 337 472 358 c 1
 534 386 568 416 582 480 c 9
 642 480 l 17
 628 412 601 376 532 358 c 1
 553 337 559 318 559 296 c 0
 559 280 556 262 551 242 c 2
 500 0 l 1
 156 0 l 9
 167 50 l 25
 222 50 l 25
 246 167 l 18
 258 223 398 268 398 343 c 0
 398 366 379 405 342 405 c 0
 329 405 296 402 265 388 c 1
 299 384 322 358 322 325 c 0
 322 276 275 228 223 228 c 0
 185 228 158 255 158 292 c 0
249 348 m 0
 228 348 199 329 199 301 c 0
 199 282 213 268 232 268 c 0
 257 268 281 291 281 317 c 0
 281 335 268 348 249 348 c 0
EndSplineSet
Validated: 1
EndChar

StartChar: uni0E0B
Encoding: 3595 3595 211
Width: 600
Flags: W
HStem: 0 50<167 222 282 451> 208 40<198.188 265.906> 328 40<250 274.661> 424 20G<270.5 323.667 361.889 408>
VStem: 154 41<250.659 317.258> 277 41<258.832 325.945> 399 60<296.027 391.547> 501 58<185.141 350.211> 582 60<425.198 480>
DStem2: 211.372 0 271.372 0 0.207912 0.978148<63.5917 210.154> 440.372 0 500 0 0.207912 0.978148<51.117 303.266>
LayerCount: 2
Fore
SplineSet
318 305 m 0
 318 257 272 208 219 208 c 0
 181 208 154 235 154 272 c 0
 154 326 244 434 297 444 c 1
 337 414 l 1
 393 450 l 1
 423 436 459 398 459 353 c 0
 459 260 312 195 302 147 c 2
 282 50 l 25
 451 50 l 17
 491 242 l 2
 495 261 501 280 501 298 c 0
 501 318 495 337 472 358 c 1
 534 386 568 416 582 480 c 9
 642 480 l 17
 628 412 601 376 532 358 c 1
 553 337 559 318 559 296 c 0
 559 280 556 262 551 242 c 2
 500 0 l 1
 156 0 l 9
 167 50 l 25
 222 50 l 25
 244 157 l 18
 256 211 399 268 399 350 c 0
 399 366 393 388 373 394 c 1
 326 364 l 1
 291 391 l 1
 279 388 265 380 250 368 c 1
 253 368 l 2
 291 368 318 341 318 305 c 0
228 248 m 0
 252 248 277 270 277 297 c 0
 277 315 264 328 245 328 c 0
 221 328 195 308 195 281 c 0
 195 262 209 248 228 248 c 0
EndSplineSet
Validated: 1
EndChar

